<svg width="24" height="24" viewBox="0 0 24 24" fill="none" xmlns="http://www.w3.org/2000/svg">
<path d="M19.3584 0.824128C19.0956 -0.0298362 18.0097 -0.28359 17.3957 0.365494L14.6134 3.30685C13.8449 4.11925 13.4167 5.19507 13.4167 6.31335V9.28278L11.0479 11.6515C10.7062 11.9932 10.7062 12.5472 11.0479 12.8889C11.3897 13.2306 11.9437 13.2306 12.2854 12.8889L14.6541 10.5202H17.6235C18.7418 10.5202 19.8176 10.092 20.63 9.32352L23.5714 6.54115C24.2205 5.92716 23.9667 4.84129 23.1128 4.57853L20.2417 3.69514L19.3584 0.824128Z" fill="#1A1925"/>
<path d="M1.75 12.2705C1.75 6.79368 6.18984 2.35384 11.6667 2.35384C11.8468 2.35384 12.0258 2.35864 12.2035 2.3681C12.686 2.3938 13.0981 2.02344 13.1238 1.54088C13.1495 1.05831 12.7791 0.646281 12.2965 0.620577C12.0879 0.609464 11.8779 0.603841 11.6667 0.603841C5.22334 0.603841 0 5.82719 0 12.2705C0 18.7138 5.22334 23.9372 11.6667 23.9372C18.11 23.9372 23.3333 18.7138 23.3333 12.2705C23.3333 12.0593 23.3277 11.8493 23.3166 11.6406C23.2909 11.1581 22.8789 10.7877 22.3963 10.8134C21.9137 10.8391 21.5434 11.2512 21.5691 11.7337C21.5785 11.9114 21.5833 12.0903 21.5833 12.2705C21.5833 17.7473 17.1435 22.1872 11.6667 22.1872C6.18984 22.1872 1.75 17.7473 1.75 12.2705Z" fill="#1A1925"/>
<path d="M10.6674 7.08653C11.1418 6.99405 11.4513 6.53457 11.3588 6.06026C11.2663 5.58594 10.8069 5.2764 10.3326 5.36888C7.10379 5.9984 4.66667 8.84076 4.66667 12.2542C4.66667 16.1286 7.80747 19.2694 11.6818 19.2694C15.0953 19.2694 17.9376 16.8324 18.5672 13.6037C18.6597 13.1293 18.3501 12.6699 17.8758 12.5774C17.4015 12.4849 16.942 12.7944 16.8495 13.2687C16.3772 15.6912 14.242 17.5194 11.6818 17.5194C8.77397 17.5194 6.41667 15.1621 6.41667 12.2542C6.41667 9.69401 8.2449 7.55887 10.6674 7.08653Z" fill="#1A1925"/>
</svg>
