<svg width="136" height="136" viewBox="0 0 136 136" fill="none" xmlns="http://www.w3.org/2000/svg">
<path d="M27.6934 26.5625V109.438H108.305" stroke="black" stroke-width="3.5" stroke-linecap="round" stroke-linejoin="round"/>
<path d="M81.3051 74.1253C81.3051 76.3433 79.5094 78.1389 77.2941 78.1389C75.0788 78.1389 73.2832 76.3433 73.2832 74.1253C73.2832 73.1558 73.6285 72.2659 74.2023 71.57C74.938 70.6802 76.0484 70.1144 77.2941 70.1144C78.3487 70.1144 79.3102 70.5208 80.0248 71.1875C80.811 71.918 81.3051 72.9645 81.3051 74.1253Z" stroke="black" stroke-width="3.5" stroke-linecap="round" stroke-linejoin="round"/>
<path d="M74.2027 71.57L65.0625 64.4326" stroke="black" stroke-width="3.5" stroke-linecap="round" stroke-linejoin="round"/>
<path d="M80.0254 71.1875L100 45.5999" stroke="black" stroke-width="3.5" stroke-linecap="round" stroke-linejoin="round"/>
<path d="M59.4308 65.1285L42.9062 86.2935" stroke="black" stroke-width="3.5" stroke-linecap="round" stroke-linejoin="round"/>
<path d="M65.9121 61.965C65.9121 62.8947 65.596 63.7526 65.0621 64.4326C64.329 65.373 63.1868 65.9786 61.9012 65.9786C60.9688 65.9786 60.1109 65.6625 59.4309 65.1286C58.4905 64.3928 57.8876 63.2506 57.8876 61.965C57.8876 59.7497 59.6832 57.954 61.9012 57.954C64.1191 57.954 65.9121 59.7497 65.9121 61.965ZM106.481 42.4362C106.481 44.6515 104.685 46.4498 102.47 46.4498C101.538 46.4498 100.68 46.1311 99.9998 45.5998C99.0621 44.864 98.4591 43.7192 98.4591 42.4362C98.4591 40.2209 100.255 38.4253 102.47 38.4253C104.685 38.4253 106.481 40.2209 106.481 42.4362ZM40.4387 85.4436C42.654 85.4436 44.4496 87.2392 44.4496 89.4545C44.4496 91.6698 42.654 93.4654 40.4387 93.4654C38.2234 93.4654 36.4277 91.6698 36.4277 89.4545C36.4277 87.2392 38.2234 85.4436 40.4387 85.4436Z" stroke="black" stroke-width="3.5" stroke-miterlimit="10"/>
</svg>
