<svg width="42" height="39" viewBox="0 0 42 39" fill="none" xmlns="http://www.w3.org/2000/svg">
<path d="M28.8235 19.5C28.8235 19.8301 28.6934 20.1467 28.4617 20.3801C28.2301 20.6135 27.9159 20.7447 27.5882 20.7447H14.4118C14.0842 20.7447 13.77 20.6135 13.5383 20.3801C13.3066 20.1467 13.1765 19.8301 13.1765 19.5C13.1765 19.1699 13.3066 18.8533 13.5383 18.6199C13.77 18.3865 14.0842 18.2553 14.4118 18.2553H27.5882C27.9159 18.2553 28.2301 18.3865 28.4617 18.6199C28.6934 18.8533 28.8235 19.1699 28.8235 19.5Z" fill="black"/>
<path d="M28.8235 19.5C28.8235 19.8301 28.6934 20.1467 28.4617 20.3801C28.2301 20.6135 27.9159 20.7447 27.5882 20.7447H14.4118C14.0842 20.7447 13.77 20.6135 13.5383 20.3801C13.3066 20.1467 13.1765 19.8301 13.1765 19.5C13.1765 19.1699 13.3066 18.8533 13.5383 18.6199C13.77 18.3865 14.0842 18.2553 14.4118 18.2553H27.5882C27.9159 18.2553 28.2301 18.3865 28.4617 18.6199C28.6934 18.8533 28.8235 19.1699 28.8235 19.5Z" fill="#1356F4"/>
<path fill-rule="evenodd" clip-rule="evenodd" d="M39.1176 0H2.88239C2.11795 0 1.38481 0.305983 0.844263 0.850637C0.303717 1.39529 4.19803e-05 2.134 4.19803e-05 2.90426V36.0957C-0.00293617 36.6495 0.1526 37.1923 0.448012 37.6592C0.743424 38.1261 1.16618 38.4973 1.66563 38.7282C2.04691 38.9065 2.46206 38.9992 2.88239 39C3.56142 39.0004 4.21835 38.7569 4.73533 38.3134L4.74768 38.303L11.5768 32.3617H39.1176C39.8821 32.3617 40.6152 32.0557 41.1558 31.5111C41.6963 30.9664 42 30.2277 42 29.4574V2.90426C42 2.134 41.6963 1.39529 41.1558 0.850637C40.6152 0.305983 39.8821 0 39.1176 0ZM39.5294 29.4574C39.5294 29.5675 39.486 29.673 39.4088 29.7508C39.3316 29.8286 39.2269 29.8723 39.1176 29.8723H11.1177C10.8213 29.8725 10.5349 29.98 10.3106 30.1752L3.1418 36.4131C3.0817 36.4623 3.00907 36.4934 2.93224 36.5028C2.85541 36.5122 2.77749 36.4997 2.70742 36.4665C2.63736 36.4334 2.57798 36.381 2.53609 36.3155C2.49421 36.2499 2.47152 36.1737 2.47063 36.0957V2.90426C2.47063 2.79422 2.51401 2.68869 2.59123 2.61088C2.66845 2.53307 2.77319 2.48936 2.88239 2.48936H39.1176C39.2269 2.48936 39.3316 2.53307 39.4088 2.61088C39.486 2.68869 39.5294 2.79422 39.5294 2.90426V29.4574Z" fill="black"/>
<path fill-rule="evenodd" clip-rule="evenodd" d="M39.1176 0H2.88239C2.11795 0 1.38481 0.305983 0.844263 0.850637C0.303717 1.39529 4.19803e-05 2.134 4.19803e-05 2.90426V36.0957C-0.00293617 36.6495 0.1526 37.1923 0.448012 37.6592C0.743424 38.1261 1.16618 38.4973 1.66563 38.7282C2.04691 38.9065 2.46206 38.9992 2.88239 39C3.56142 39.0004 4.21835 38.7569 4.73533 38.3134L4.74768 38.303L11.5768 32.3617H39.1176C39.8821 32.3617 40.6152 32.0557 41.1558 31.5111C41.6963 30.9664 42 30.2277 42 29.4574V2.90426C42 2.134 41.6963 1.39529 41.1558 0.850637C40.6152 0.305983 39.8821 0 39.1176 0ZM39.5294 29.4574C39.5294 29.5675 39.486 29.673 39.4088 29.7508C39.3316 29.8286 39.2269 29.8723 39.1176 29.8723H11.1177C10.8213 29.8725 10.5349 29.98 10.3106 30.1752L3.1418 36.4131C3.0817 36.4623 3.00907 36.4934 2.93224 36.5028C2.85541 36.5122 2.77749 36.4997 2.70742 36.4665C2.63736 36.4334 2.57798 36.381 2.53609 36.3155C2.49421 36.2499 2.47152 36.1737 2.47063 36.0957V2.90426C2.47063 2.79422 2.51401 2.68869 2.59123 2.61088C2.66845 2.53307 2.77319 2.48936 2.88239 2.48936H39.1176C39.2269 2.48936 39.3316 2.53307 39.4088 2.61088C39.486 2.68869 39.5294 2.79422 39.5294 2.90426V29.4574Z" fill="#1356F4" fill-opacity="0.2"/>
<path d="M28.8235 12.8617C28.8235 13.1918 28.6934 13.5084 28.4617 13.7418C28.2301 13.9752 27.9159 14.1064 27.5882 14.1064H14.4118C14.0842 14.1064 13.77 13.9752 13.5383 13.7418C13.3066 13.5084 13.1765 13.1918 13.1765 12.8617C13.1765 12.5316 13.3066 12.215 13.5383 11.9816C13.77 11.7482 14.0842 11.617 14.4118 11.617H27.5882C27.9159 11.617 28.2301 11.7482 28.4617 11.9816C28.6934 12.215 28.8235 12.5316 28.8235 12.8617Z" fill="black"/>
<path d="M28.8235 12.8617C28.8235 13.1918 28.6934 13.5084 28.4617 13.7418C28.2301 13.9752 27.9159 14.1064 27.5882 14.1064H14.4118C14.0842 14.1064 13.77 13.9752 13.5383 13.7418C13.3066 13.5084 13.1765 13.1918 13.1765 12.8617C13.1765 12.5316 13.3066 12.215 13.5383 11.9816C13.77 11.7482 14.0842 11.617 14.4118 11.617H27.5882C27.9159 11.617 28.2301 11.7482 28.4617 11.9816C28.6934 12.215 28.8235 12.5316 28.8235 12.8617Z" fill="#1356F4"/>
</svg>
