<svg width="52" height="52" viewBox="0 0 52 52" fill="none" xmlns="http://www.w3.org/2000/svg">
<path fill-rule="evenodd" clip-rule="evenodd" d="M5.57143 13C5.57143 5.84257 11.414 0 18.5714 0C25.7289 0 31.5714 5.84257 31.5714 13C31.5691 15.1318 31.0441 17.2305 30.0424 19.1123C29.0406 20.9941 27.5927 22.6015 25.8254 23.7937C26.728 24.18 27.6157 24.6127 28.4366 25.1271C30.9659 23.2846 34.0136 22.2899 37.1429 22.2857C45.3254 22.2857 52 28.9603 52 37.1429C52 45.3254 45.3254 52 37.1429 52C28.9603 52 22.2857 45.3254 22.2857 37.1429C22.2862 33.7425 23.453 30.4452 25.5914 27.8014C23.5003 26.6649 21.1269 26 18.5714 26C10.3443 26 3.71429 32.63 3.71429 40.8571H0C0 33.2057 4.693 26.637 11.3174 23.7956C7.85571 21.4537 5.57143 17.4757 5.57143 13ZM27.8571 13C27.8571 7.85014 23.7213 3.71429 18.5714 3.71429C13.4216 3.71429 9.28571 7.85014 9.28571 13C9.28571 18.1499 13.4216 22.2857 18.5714 22.2857C23.7213 22.2857 27.8571 18.1499 27.8571 13ZM48.2857 37.1429C48.2857 30.966 43.3197 26 37.1429 26C30.966 26 26 30.966 26 37.1429C26 43.3197 30.966 48.2857 37.1429 48.2857C43.3197 48.2857 48.2857 43.3197 48.2857 37.1429Z" fill="black"/>
<path d="M35.2857 29.7143V35.2857H29.7143V39H35.2857V44.5714H39V39H44.5714V35.2857H39V29.7143H35.2857Z" fill="#2863F1"/>
</svg>
