<svg width="105" height="104" viewBox="0 0 105 104" fill="none" xmlns="http://www.w3.org/2000/svg">
<path d="M80.8168 28.4407L73.4668 8.06323H31.5324L24.1824 28.4407H19.9824V40.7257H25.5605L31.6309 89.1182V95.9432H73.3684V89.1182L79.4387 40.7257H85.0168V28.4407H80.8168ZM34.0262 11.5732H70.973L77.0434 28.4407H69.8902L65.5262 16.2857H39.473L35.109 28.4407H27.9559L34.0262 11.5732ZM66.1496 28.4407H38.8496L41.9668 19.7632H63.0324L66.1496 28.4407ZM69.8902 92H35.9995L29.1371 40.7257H75.8621L69.8902 92ZM81.473 37.2157H23.5262V31.9507H81.473V37.2157Z" fill="black"/>
<path d="M46.5617 82.8133L47.8086 67.6358H42.3945L46.857 46.7058H57.9477L54.2398 58.2758H62.607L46.5617 82.8133Z" fill="black"/>
</svg>
