<svg width="113" height="113" viewBox="0 0 113 113" fill="none" xmlns="http://www.w3.org/2000/svg">
<g clip-path="url(#clip0_18282_16919)">
<path d="M24.9666 84.3086C24.737 84.3086 24.5075 84.2733 24.2956 84.1673C23.66 83.9025 23.2539 83.2845 23.2539 82.5959V82.1722C23.2539 70.1483 29.7867 59.0248 40.2745 53.1453C40.5217 53.004 40.8219 52.9334 41.1044 52.9334C42.0578 52.9334 42.817 53.6926 42.817 54.6461C42.817 55.3523 42.4109 55.9526 41.8106 56.2175C33.4945 60.9317 27.9858 69.3184 26.8734 78.6762C31.7995 74.8272 37.8203 72.0198 44.4944 70.4661C45.4125 70.2542 46.3306 70.8192 46.5425 71.7373C46.7544 72.6554 46.1894 73.5736 45.2712 73.8031C37.7144 75.5687 31.1109 79.047 26.1495 83.8495C25.8317 84.132 25.408 84.3086 24.9666 84.3086ZM88.0347 84.3439C87.5933 84.3439 87.1695 84.1673 86.8341 83.8495C81.908 79.0294 75.3045 75.5511 67.6947 73.7678C66.7766 73.5559 66.1939 72.6378 66.4234 71.7197C66.6353 70.8015 67.5534 70.2189 68.4716 70.4484C75.1809 72.0198 81.2017 74.8272 86.1101 78.6762C84.9978 69.2478 79.4184 60.8081 70.9964 56.1115C70.1666 55.6525 69.8841 54.6108 70.3431 53.7809C70.8022 52.9511 71.8439 52.6509 72.6737 53.1276C83.2145 59.0072 89.7473 70.1483 89.7473 82.1898V82.6489C89.7473 83.3375 89.3412 83.9554 88.7056 84.2203C88.4761 84.2909 88.2466 84.3439 88.0347 84.3439ZM63.5102 86.2684H49.4558C48.5553 86.2684 47.6902 85.88 47.1075 85.1914C46.5248 84.5028 46.2777 83.6023 46.4189 82.7019L47.4959 76.3633C47.6548 75.4275 48.5377 74.8095 49.4734 74.9684C50.4092 75.1273 51.0272 76.0101 50.8683 76.9459L49.8619 82.8608H63.0864L62.0976 76.9459C61.9387 76.0101 62.5744 75.1273 63.5102 74.9684C64.4283 74.8272 65.3287 75.4451 65.4877 76.3809L66.547 82.7019C66.6883 83.62 66.4411 84.5204 65.8584 85.209C65.2581 85.88 64.4106 86.2684 63.5102 86.2684Z" fill="black"/>
<path d="M66.7222 78.3585H46.2586C45.5171 78.3585 44.8461 77.8818 44.6343 77.1579C36.5477 51.5916 36.583 31.2869 44.7402 15.1138C47.371 9.9052 50.8139 5.12035 55.2633 0.494414C55.8989 -0.176523 57.0819 -0.176523 57.7352 0.494414C62.2729 5.20863 65.7688 10.0994 68.3996 15.4316C76.3979 31.5164 76.3802 51.7152 68.3643 77.1579C68.1171 77.8818 67.4638 78.3585 66.7222 78.3585ZM47.5122 74.9332H65.451C72.8313 50.956 72.7783 31.9755 65.3274 16.9677C63.085 12.4477 60.1894 8.24551 56.4993 4.20223C52.8797 8.17488 50.0371 12.2711 47.7947 16.6852C40.1672 31.7636 40.0789 50.8324 47.5122 74.9332Z" fill="black"/>
<path d="M57.4355 19.0864C53.6748 19.0864 49.7727 18.5743 45.7648 17.5679C44.8466 17.3384 44.2993 16.4026 44.5288 15.4845C44.7583 14.5664 45.6941 14.019 46.6123 14.2485C53.7454 16.0495 60.2076 16.1554 66.3519 14.5487C67.2701 14.3192 68.2058 14.8665 68.4354 15.767C68.6826 16.6851 68.1176 17.6209 67.2171 17.8504C64.0743 18.6803 60.8079 19.0864 57.4355 19.0864Z" fill="black"/>
<path d="M56.4993 78.3585C55.9343 78.3585 55.4046 78.076 55.0868 77.6169C47.1768 66.0697 47.2298 53.7986 55.2104 44.7763C55.8637 44.0347 57.1173 44.0347 57.7706 44.7763C65.7335 53.781 65.7865 66.0697 57.8942 77.6169C57.594 78.076 57.0643 78.3585 56.4993 78.3585ZM56.4993 48.643C51.379 55.6525 51.379 64.6572 56.4993 73.45C61.602 64.6395 61.6196 55.6349 56.4993 48.643Z" fill="black"/>
<path d="M56.5004 40.0796C51.8215 40.0796 48.0254 36.2835 48.0254 31.6046C48.0254 26.9257 51.8215 23.1296 56.5004 23.1296C61.1793 23.1296 64.9754 26.9257 64.9754 31.6046C64.9754 36.2835 61.1793 40.0796 56.5004 40.0796ZM56.5004 26.5373C53.7107 26.5373 51.4507 28.8149 51.4507 31.587C51.4507 34.359 53.7107 36.6367 56.5004 36.6367C59.2901 36.6367 61.5501 34.359 61.5501 31.587C61.5501 28.8149 59.2901 26.5373 56.5004 26.5373Z" fill="black"/>
<path d="M71.5785 104.048C70.6251 104.048 69.8659 103.289 69.8659 102.336V86.2684C69.8659 85.315 70.6251 84.5558 71.5785 84.5558C72.532 84.5558 73.2912 85.315 73.2912 86.2684V102.336C73.2912 103.271 72.5143 104.048 71.5785 104.048ZM64.0393 107.844C63.0859 107.844 62.3266 107.085 62.3266 106.132V90.0469C62.3266 89.0934 63.0859 88.3342 64.0393 88.3342C64.9927 88.3342 65.752 89.0934 65.752 90.0469V106.114C65.752 107.068 64.9927 107.844 64.0393 107.844ZM56.5001 113C55.5466 113 54.7874 112.241 54.7874 111.287V93.1544C54.7874 92.2009 55.5466 91.4417 56.5001 91.4417C57.4535 91.4417 58.2127 92.2009 58.2127 93.1544V111.287C58.2127 112.241 57.4535 113 56.5001 113ZM48.9609 107.844C48.0074 107.844 47.2482 107.085 47.2482 106.132V90.0469C47.2482 89.0934 48.0074 88.3342 48.9609 88.3342C49.9143 88.3342 50.6735 89.0934 50.6735 90.0469V106.114C50.6735 107.068 49.9143 107.844 48.9609 107.844ZM41.4216 104.048C40.4682 104.048 39.709 103.289 39.709 102.336V86.2684C39.709 85.315 40.4682 84.5558 41.4216 84.5558C42.3751 84.5558 43.1343 85.315 43.1343 86.2684V102.336C43.1343 103.271 42.3751 104.048 41.4216 104.048Z" fill="black"/>
</g>
<defs>
<clipPath id="clip0_18282_16919">
<rect width="113" height="113" fill="white"/>
</clipPath>
</defs>
</svg>
