<?xml version="1.0" encoding="UTF-8"?>
<svg version="1.1" xmlns="http://www.w3.org/2000/svg" width="576" height="172">
<path d="M0 0 C1.61655991 0.03185898 1.61655991 0.03185898 3.26577759 0.06436157 C6.35315391 0.12761365 9.44022394 0.19879039 12.52734375 0.2734375 C13.94764389 0.30329491 13.94764389 0.30329491 15.39663696 0.33375549 C16.26082245 0.35687302 17.12500793 0.37999054 18.01538086 0.40380859 C19.15589149 0.43164932 19.15589149 0.43164932 20.31944275 0.46005249 C22.0625 0.625 22.0625 0.625 23.0625 1.625 C22.77599106 10.36352257 19.91656034 18.34390949 15.0625 25.625 C12.92138672 25.98144531 12.92138672 25.98144531 10.2421875 25.953125 C9.24243896 25.94861328 8.24269043 25.94410156 7.21264648 25.93945312 C6.13184814 25.91818359 5.0510498 25.89691406 3.9375 25.875 C2.2824646 25.85856445 2.2824646 25.85856445 0.59399414 25.84179688 C-10.92468276 25.69145024 -22.43355819 25.20960361 -33.9375 24.625 C-34.4178318 26.20798026 -34.89671612 27.79139978 -35.375 29.375 C-35.64183594 30.25671875 -35.90867187 31.1384375 -36.18359375 32.046875 C-36.82218494 34.23065835 -37.40525833 36.41335498 -37.9375 38.625 C-35.62871419 39.7793929 -34.34535012 39.74042283 -31.77905273 39.72265625 C-30.92153915 39.71935303 -30.06402557 39.7160498 -29.18052673 39.71264648 C-27.78985741 39.70019897 -27.78985741 39.70019897 -26.37109375 39.6875 C-25.42186539 39.68371338 -24.47263702 39.67992676 -23.49464417 39.67602539 C-20.45471744 39.66377776 -17.41488407 39.6451428 -14.375 39.625 C-10.3737006 39.59853263 -6.37244721 39.57847813 -2.37109375 39.5625 C-0.97738808 39.55005249 -0.97738808 39.55005249 0.44447327 39.53735352 C1.29883469 39.53405029 2.15319611 39.53074707 3.03344727 39.52734375 C3.78908463 39.52210693 4.54472198 39.51687012 5.32325745 39.51147461 C7.0625 39.625 7.0625 39.625 8.0625 40.625 C7.65416732 46.45012089 6.33309387 51.21268096 4.0625 56.5625 C3.65257812 57.56893555 3.65257812 57.56893555 3.234375 58.59570312 C1.22778614 63.45971386 1.22778614 63.45971386 0.0625 64.625 C-1.4723297 64.71819449 -3.01142082 64.742458 -4.54907227 64.73852539 C-5.53001358 64.73844986 -6.5109549 64.73837433 -7.5216217 64.73829651 C-8.5882756 64.73313522 -9.6549295 64.72797394 -10.75390625 64.72265625 C-12.38319313 64.72053383 -12.38319313 64.72053383 -14.0453949 64.71836853 C-17.53029075 64.71275048 -21.01512342 64.70019492 -24.5 64.6875 C-26.85611887 64.68248733 -29.21223874 64.67792402 -31.56835938 64.67382812 C-37.35809464 64.66277519 -43.14779281 64.64601951 -48.9375 64.625 C-49.12732452 65.19760056 -49.31714905 65.77020111 -49.51272583 66.3601532 C-51.85813196 73.41851189 -54.29672606 80.43790674 -56.8125 87.4375 C-57.23402344 88.65115234 -57.65554687 89.86480469 -58.08984375 91.11523438 C-58.51136719 92.27990234 -58.93289062 93.44457031 -59.3671875 94.64453125 C-59.74085449 95.69745361 -60.11452148 96.75037598 -60.49951172 97.83520508 C-62.4727728 101.66346558 -65.12011911 103.71630956 -68.9375 105.625 C-92.78627396 107.85617428 -117.03992191 106.26810921 -140.9375 105.625 C-141.82571195 102.44373104 -141.94691564 100.79250707 -140.828125 97.65625 C-140.56773437 96.92019531 -140.30734375 96.18414062 -140.0390625 95.42578125 C-139.75804687 94.66652344 -139.47703125 93.90726562 -139.1875 93.125 C-138.92195313 92.36574219 -138.65640625 91.60648437 -138.3828125 90.82421875 C-136.98912864 86.96114359 -135.73443875 83.71035358 -132.9375 80.625 C-130.85058594 80.16416931 -130.85058594 80.16416931 -128.421875 80.21850586 C-127.51083008 80.22849106 -126.59978516 80.23847626 -125.66113281 80.24876404 C-124.67983398 80.27882034 -123.69853516 80.30887665 -122.6875 80.33984375 C-121.6778418 80.35261856 -120.66818359 80.36539337 -119.62792969 80.3785553 C-116.39715305 80.42085937 -113.16771399 80.48928246 -109.9375 80.5625 C-106.70735722 80.63043478 -103.47764118 80.69240181 -100.24707031 80.73573303 C-98.2357462 80.76308741 -96.22455707 80.80485146 -94.21386719 80.86228943 C-92.8472998 80.88199547 -92.8472998 80.88199547 -91.453125 80.90209961 C-90.65165039 80.92082626 -89.85017578 80.93955292 -89.02441406 80.95884705 C-86.37476931 80.53497905 -85.56824702 79.71761204 -83.9375 77.625 C-82.95377371 75.42788647 -82.06361591 73.18820274 -81.23046875 70.9296875 C-80.98444916 70.26923431 -80.73842957 69.60878113 -80.48495483 68.92831421 C-79.69027031 66.7884173 -78.90751538 64.64437332 -78.125 62.5 C-77.58192056 61.03069453 -77.03821834 59.5616191 -76.49389648 58.09277344 C-73.5242026 50.05817715 -70.62473837 42.00063212 -67.81762695 33.90771484 C-65.76840007 28.03803904 -63.41398863 22.32512129 -60.9375 16.625 C-60.58816406 15.78066406 -60.23882812 14.93632813 -59.87890625 14.06640625 C-57.40622023 8.20700629 -55.06986311 3.22073536 -48.9375 0.625 C-45.861702 0.08637194 -42.74271365 0.05394375 -39.625 -0.0625 C-38.14181274 -0.12219971 -38.14181274 -0.12219971 -36.62866211 -0.18310547 C-24.41973165 -0.55272471 -12.20871219 -0.25175792 0 0 Z " fill="#CA3D2B" transform="translate(170.9375,39.375)"/>
<path d="M0 0 C2.92825936 3.00146584 4.37587544 4.92405587 4.6953125 9.140625 C4.63020833 11.61458333 4.56510417 14.08854167 4.5 16.5625 C0.21 16.5625 -4.08 16.5625 -8.5 16.5625 C-8.8403125 14.9228125 -8.8403125 14.9228125 -9.1875 13.25 C-10.18268461 9.56482175 -10.18268461 9.56482175 -12.5625 7.625 C-17.9275567 5.68444758 -22.625386 5.84673829 -27.9375 7.875 C-30.71821686 9.46751564 -30.71821686 9.46751564 -32.5 12.5625 C-33.08333333 15.0625 -33.08333333 15.0625 -32.5 17.5625 C-27.56631503 21.33004125 -21.3389063 22.52224084 -15.44921875 24.13671875 C-9.40708363 25.91605618 -5.88134758 28.16057488 -2.1875 33.4375 C-0.26611461 39.37632756 -1.72430875 44.59041082 -4.1015625 50.12890625 C-7.50306208 56.04827563 -13.23374179 60.05599672 -19.5 62.5625 C-28.65117764 64.91235032 -42.05576719 65.33864978 -50.5 60.5625 C-54.40115329 57.42461583 -56.75125874 54.25648969 -58.5 49.5625 C-58.72651736 46.83936734 -58.64178087 44.3035969 -58.5 41.5625 C-53.88 41.5625 -49.26 41.5625 -44.5 41.5625 C-44.314375 42.820625 -44.12875 44.07875 -43.9375 45.375 C-43.01416543 49.02314009 -42.75331839 49.40037623 -39.375 51.5625 C-34.01893148 53.273775 -28.95340195 53.3301719 -23.6875 51.3125 C-20.55412675 49.59221665 -19.04693478 48.74736573 -17.5 45.5625 C-16.83319632 42.51970628 -16.83319632 42.51970628 -17.5 39.5625 C-21.30524181 36.68711051 -25.14803348 35.78686283 -29.75 34.75 C-36.14072742 33.17005933 -41.68818669 31.21120099 -46.5 26.5625 C-49.24686389 21.8083125 -48.86321711 16.7603149 -47.5 11.5625 C-44.08906189 4.09531117 -38.97505094 -0.16985951 -31.5 -3.4375 C-28.60246696 -4.12434088 -25.70927375 -4.49951182 -22.75 -4.8125 C-21.95303711 -4.89701416 -21.15607422 -4.98152832 -20.33496094 -5.06860352 C-12.56490062 -5.74512099 -6.31235111 -4.83946918 0 0 Z " fill="#010101" transform="translate(439.5,70.4375)"/>
<path d="M0 0 C1.4572655 1.4436143 2.82197921 2.97945578 4.16796875 4.52734375 C5.15796875 2.21734375 6.14796875 -0.09265625 7.16796875 -2.47265625 C11.12796875 -2.47265625 15.08796875 -2.47265625 19.16796875 -2.47265625 C18.56176689 2.92913809 17.27492768 7.74176854 15.515625 12.875 C15.25543076 13.64992294 14.99523651 14.42484589 14.72715759 15.22325134 C13.90058945 17.68073446 13.0657055 20.13529507 12.23046875 22.58984375 C11.67327025 24.24134834 11.11662446 25.89303952 10.56054688 27.54492188 C9.33124025 31.19376578 8.09668879 34.84078497 6.85731506 38.48622131 C5.95297105 41.16394196 5.06172632 43.84607104 4.16796875 46.52734375 C-0.12203125 46.52734375 -4.41203125 46.52734375 -8.83203125 46.52734375 C-8.83203125 45.20734375 -8.83203125 43.88734375 -8.83203125 42.52734375 C-10.22421875 43.48640625 -10.22421875 43.48640625 -11.64453125 44.46484375 C-17.70451388 48.38600898 -23.79581875 48.15047696 -30.83203125 47.52734375 C-36.02242338 45.11112673 -38.50951438 42.01397913 -40.51953125 36.71484375 C-41.89903787 27.05829744 -39.75470091 17.10063032 -34.01953125 9.08984375 C-28.50314455 2.5008263 -23.14003193 -1.91116127 -14.51953125 -3.22265625 C-9.1727489 -3.69338626 -4.31371687 -3.46752934 0 0 Z M-23.83203125 15.52734375 C-26.21620058 20.12538459 -27.64318379 24.33403854 -27.83203125 29.52734375 C-26.67765381 32.74744925 -25.92127354 34.84109808 -22.984375 36.69140625 C-19.12279937 38.19118335 -15.74661144 37.70364617 -11.83203125 36.52734375 C-5.45606139 32.95276662 -2.49854076 27.97558459 -0.39453125 21.109375 C0.3281215 17.79219815 0.45201395 15.6996907 -0.83203125 12.52734375 C-2.83863655 9.73025757 -4.29699819 7.8560579 -7.765625 7.11328125 C-14.96473394 6.81388542 -19.22395374 10.19167506 -23.83203125 15.52734375 Z " fill="#010101" transform="translate(282.83203125,86.47265625)"/>
<path d="M0 0 C16.17 0 32.34 0 49 0 C47 9 47 9 46 11 C34.12 11.33 22.24 11.66 10 12 C8.35 16.95 6.7 21.9 5 27 C19.85 27.495 19.85 27.495 35 28 C36 31 36 31 33 39 C22.11 39 11.22 39 0 39 C-0.66 41.97 -1.32 44.94 -2 48 C-2.46987221 49.61535165 -2.9652176 51.22400817 -3.5078125 52.81640625 C-3.77207031 53.59951172 -4.03632813 54.38261719 -4.30859375 55.18945312 C-4.57800781 55.97255859 -4.84742188 56.75566406 -5.125 57.5625 C-5.40214844 58.38041016 -5.67929688 59.19832031 -5.96484375 60.04101562 C-6.63905137 62.02876568 -7.31892204 64.01459349 -8 66 C-12.62 66 -17.24 66 -22 66 C-18.50477378 54.72628873 -14.92838359 43.48022689 -11.28833008 32.25244141 C-10.71779146 30.49056575 -10.14879829 28.72818894 -9.58129883 26.96533203 C-8.74377452 24.36380362 -7.90168053 21.76379285 -7.05859375 19.1640625 C-6.81056503 18.39091705 -6.56253632 17.61777161 -6.30699158 16.82119751 C-4.43592156 11.0779635 -2.25673847 5.64184618 0 0 Z " fill="#010101" transform="translate(206,67)"/>
<path d="M0 0 C4.15438521 4.60350793 4.60112428 7.58020068 4.5 13.5625 C4.49935547 14.28695312 4.49871094 15.01140625 4.49804688 15.7578125 C4.47157756 18.94589447 4.3269479 21.51915629 3.3125 24.5625 C-8.8975 24.5625 -21.1075 24.5625 -33.6875 24.5625 C-33.44204464 31.90098142 -33.44204464 31.90098142 -31.1875 34.5625 C-26.09524079 36.59940368 -21.30798671 36.18123129 -16.25 34.25 C-13.46928314 32.65748436 -13.46928314 32.65748436 -11.6875 29.5625 C-8.8671875 29.26953125 -8.8671875 29.26953125 -5.5625 29.375 C-3.91894531 29.41560547 -3.91894531 29.41560547 -2.2421875 29.45703125 C-0.97761719 29.50923828 -0.97761719 29.50923828 0.3125 29.5625 C0.39793625 32.97995017 -0.23117475 35.02283696 -2.44140625 37.63671875 C-11.04014534 45.72701066 -18.46147851 47.13320409 -30.1328125 46.93359375 C-34.85990717 46.44010584 -37.73773999 45.14193511 -41.6875 42.5625 C-41.6875 41.9025 -41.6875 41.2425 -41.6875 40.5625 C-42.3475 40.5625 -43.0075 40.5625 -43.6875 40.5625 C-47.59972047 31.27097638 -47.22227649 24.01071836 -43.6875 14.5625 C-39.21874555 5.90936637 -32.98934067 -0.28151834 -23.6875 -3.4375 C-16.39936784 -5.33241436 -6.06717887 -4.9463946 0 0 Z M-28.5625 11.6875 C-30.78656518 14.10068145 -30.78656518 14.10068145 -30.6875 15.5625 C-23.0975 15.5625 -15.5075 15.5625 -7.6875 15.5625 C-6.30616305 12.58539033 -6.30616305 12.58539033 -7.9375 10 C-9.62184824 7.35176447 -9.62184824 7.35176447 -12.6875 5.5625 C-19.52208735 4.91772761 -24.10047256 6.47344546 -28.5625 11.6875 Z " fill="#010101" transform="translate(544.6875,87.4375)"/>
<path d="M0 0 C1.91619141 0.08314453 1.91619141 0.08314453 3.87109375 0.16796875 C8.79337406 1.02741452 11.83306933 3.19836471 15.4375 6.5625 C17.16139287 10.01028573 16.75374549 12.98759018 16.5625 16.8125 C12.6025 16.8125 8.6425 16.8125 4.5625 16.8125 C3.9025 15.1625 3.2425 13.5125 2.5625 11.8125 C-0.63198211 10.3092143 -2.95507772 9.40454658 -6.453125 10.3671875 C-8.15519595 11.0936812 -9.80274608 11.94507955 -11.4375 12.8125 C-11.4375 14.4625 -11.4375 16.1125 -11.4375 17.8125 C-10.19613281 18.10382813 -8.95476562 18.39515625 -7.67578125 18.6953125 C-6.03356168 19.10821342 -4.39165017 19.52234097 -2.75 19.9375 C-1.52506836 20.21980469 -1.52506836 20.21980469 -0.27539062 20.5078125 C5.5538436 22.01822137 8.29710694 23.69236368 11.5625 28.8125 C12.35033249 34.23979052 11.62189798 38.18087482 8.96484375 42.984375 C5.36394911 47.67857749 0.31409952 50.0002199 -5.4375 50.8125 C-8.07688206 50.955765 -10.67325097 51.0427673 -13.3125 51.0625 C-13.99441406 51.083125 -14.67632812 51.10375 -15.37890625 51.125 C-21.88658294 51.1745823 -26.47045964 49.61213267 -31.375 45.125 C-34.02177094 40.87412546 -33.86054771 38.71985344 -33.4375 33.8125 C-29.4775 33.8125 -25.5175 33.8125 -21.4375 33.8125 C-20.98375 34.781875 -20.53 35.75125 -20.0625 36.75 C-18.77963779 39.88329582 -18.77963779 39.88329582 -16.4375 40.8125 C-14.36185324 41.01008231 -14.36185324 41.01008231 -12.0625 41 C-11.29164063 41.01417969 -10.52078125 41.02835938 -9.7265625 41.04296875 C-7.16604893 40.7851696 -5.58603055 40.22098114 -3.4375 38.8125 C-2.62578772 36.25730079 -2.62578772 36.25730079 -2.4375 33.8125 C-6.62246357 31.859517 -10.56285647 30.50304481 -15.0625 29.4375 C-19.97536068 28.16204579 -22.35347532 26.82173208 -25.4375 22.8125 C-27.20599276 19.27551447 -26.31676651 15.56321727 -25.4375 11.8125 C-23.08651439 6.58130259 -19.61571194 3.91126763 -14.5 1.5390625 C-9.57916171 -0.19441462 -5.20014219 -0.27755039 0 0 Z " fill="#010101" transform="translate(329.4375,83.1875)"/>
<path d="M0 0 C1.40639488 0.02530289 1.40639488 0.02530289 2.84120178 0.05111694 C3.85580978 0.07501495 4.87041779 0.09891296 5.91577148 0.12353516 C6.95378403 0.14477448 7.99179657 0.16601379 9.06126404 0.18789673 C11.25785763 0.23420252 13.45439718 0.28313425 15.65087891 0.33447266 C19.02617033 0.41235089 22.40155643 0.47945947 25.77709961 0.54541016 C27.90667104 0.59163838 30.036229 0.63849209 32.16577148 0.68603516 C33.69071983 0.71580948 33.69071983 0.71580948 35.24647522 0.7461853 C36.18091965 0.76935822 37.11536407 0.79253113 38.078125 0.81640625 C38.90482193 0.83496674 39.73151886 0.85352722 40.58326721 0.87265015 C42.47436523 1.03759766 42.47436523 1.03759766 43.47436523 2.03759766 C43.1878563 10.77612023 40.32842557 18.75650715 35.47436523 26.03759766 C33.33325195 26.39404297 33.33325195 26.39404297 30.65405273 26.36572266 C29.6543042 26.36121094 28.65455566 26.35669922 27.62451172 26.35205078 C26.54371338 26.33078125 25.46291504 26.30951172 24.34936523 26.28759766 C23.2460083 26.27664062 22.14265137 26.26568359 21.00585938 26.25439453 C9.48718247 26.10404789 -2.02169296 25.62220127 -13.52563477 25.03759766 C-12.99529152 20.22834865 -12.00537767 16.32097867 -10.02563477 11.91259766 C-8.71260261 8.97354313 -7.59404446 6.39876059 -6.99438477 3.23291016 C-6.83969727 2.50845703 -6.68500977 1.78400391 -6.52563477 1.03759766 C-4.11514379 -0.16764783 -2.68833845 -0.05512946 0 0 Z " fill="#37A754" transform="translate(150.525634765625,38.96240234375)"/>
<path d="M0 0 C1.26907951 0.01332367 1.26907951 0.01332367 2.563797 0.0269165 C3.5245665 0.02721863 4.485336 0.02752075 5.47521973 0.02783203 C6.50967728 0.04847717 7.54413483 0.06912231 8.60993958 0.09039307 C10.20168755 0.09888275 10.20168755 0.09888275 11.82559204 0.10754395 C15.21900817 0.12995664 18.61137318 0.18016358 22.00447083 0.23101807 C24.30328372 0.25107667 26.60211313 0.26932855 28.9009552 0.28570557 C34.53998646 0.32983736 40.17840356 0.39679835 45.81697083 0.48101807 C45.91740424 4.96285929 45.41996565 8.27315665 43.81697083 12.48101807 C43.15697083 12.48101807 42.49697083 12.48101807 41.81697083 12.48101807 C41.63134583 13.47101807 41.63134583 13.47101807 41.44197083 14.48101807 C40.67313986 18.17140672 39.73123908 21.82394506 38.81697083 25.48101807 C22.64697083 25.48101807 6.47697083 25.48101807 -10.18302917 25.48101807 C-11.15457228 21.59484564 -11.30617891 20.96735097 -10.07365417 17.51226807 C-9.81326355 16.77621338 -9.55287292 16.04015869 -9.28459167 15.28179932 C-9.00357605 14.5225415 -8.72256042 13.76328369 -8.43302917 12.98101807 C-8.1674823 12.22176025 -7.90193542 11.46250244 -7.62834167 10.68023682 C-4.10125021 0.90368716 -4.10125021 0.90368716 0 0 Z " fill="#4583EE" transform="translate(40.18302917480469,119.51898193359375)"/>
<path d="M0 0 C0.99 0.33 1.98 0.66 3 1 C4.42204259 1.08126832 5.84764409 1.10754597 7.27197266 1.09765625 C8.12941071 1.09435303 8.98684875 1.0910498 9.87026978 1.08764648 C11.25319717 1.07519897 11.25319717 1.07519897 12.6640625 1.0625 C14.08578262 1.05682007 14.08578262 1.05682007 15.53622437 1.05102539 C18.56586209 1.03879666 21.59540527 1.0201589 24.625 1 C28.61718477 0.9735283 32.60932355 0.95348171 36.6015625 0.9375 C37.52756256 0.92920166 38.45356262 0.92090332 39.40762329 0.91235352 C40.25875702 0.90905029 41.10989075 0.90574707 41.98681641 0.90234375 C43.11574814 0.89448853 43.11574814 0.89448853 44.26748657 0.88647461 C46 1 46 1 47 2 C46.59166732 7.82512089 45.27059387 12.58768096 43 17.9375 C42.72671875 18.60845703 42.4534375 19.27941406 42.171875 19.97070312 C40.16528614 24.83471386 40.16528614 24.83471386 39 26 C37.4651703 26.09319449 35.92607918 26.117458 34.38842773 26.11352539 C33.40748642 26.11344986 32.4265451 26.11337433 31.4158783 26.11329651 C30.3492244 26.10813522 29.2825705 26.10297394 28.18359375 26.09765625 C26.55430687 26.09553383 26.55430687 26.09553383 24.8921051 26.09336853 C21.40720925 26.08775048 17.92237658 26.07519492 14.4375 26.0625 C12.08138113 26.05748733 9.72526126 26.05292402 7.36914062 26.04882812 C1.57940536 26.03777519 -4.21029281 26.02101951 -10 26 C-10.1399571 21.12815985 -9.5799085 19.10874317 -7 15 C-6.49195756 13.5305009 -6.01521041 12.04997706 -5.5625 10.5625 C-4.27202454 6.45768976 -2.5606671 3.44365575 0 0 Z " fill="#4583EF" transform="translate(132,78)"/>
<path d="M0 0 C1.46953125 0.00966797 1.46953125 0.00966797 2.96875 0.01953125 C3.98453125 0.03628906 5.0003125 0.05304687 6.046875 0.0703125 C7.078125 0.07933594 8.109375 0.08835938 9.171875 0.09765625 C11.71377787 0.12119239 14.2552078 0.15407227 16.796875 0.1953125 C16.30264983 5.35413482 15.5535995 9.38625564 13.359375 14.1328125 C11.81030705 17.65903841 10.5047126 20.90872493 9.796875 24.6953125 C8.70317308 30.51766682 6.18632649 35.80536658 3.796875 41.1953125 C2.7910437 41.2250415 2.7910437 41.2250415 1.76489258 41.25537109 C-1.28732661 41.35090965 -4.33888841 41.46047195 -7.390625 41.5703125 C-8.44572266 41.60125 -9.50082031 41.6321875 -10.58789062 41.6640625 C-12.12026367 41.72207031 -12.12026367 41.72207031 -13.68359375 41.78125 C-14.62098389 41.8126709 -15.55837402 41.8440918 -16.52416992 41.87646484 C-21.72994662 42.49605332 -24.72659579 44.33250227 -28.203125 48.1953125 C-26.27552443 37.15351357 -21.66243105 26.41944511 -17.203125 16.1953125 C-16.8525 15.34839844 -16.501875 14.50148438 -16.140625 13.62890625 C-12.06829143 3.97302157 -12.06829143 3.97302157 -7.40332031 1.07861328 C-4.78483582 0.02738415 -2.81712515 -0.03275727 0 0 Z " fill="#DEA912" transform="translate(127.203125,39.8046875)"/>
<path d="M0 0 C0.89203125 0.01804687 1.7840625 0.03609375 2.703125 0.0546875 C3.71632813 0.08949219 3.71632813 0.08949219 4.75 0.125 C4.27188823 1.89611844 3.7924722 3.66688483 3.3125 5.4375 C3.04566406 6.42363281 2.77882813 7.40976563 2.50390625 8.42578125 C1.96920575 10.34017526 1.37855462 12.23933615 0.75 14.125 C4.05 14.125 7.35 14.125 10.75 14.125 C8.875 22.875 8.875 22.875 7.75 25.125 C4.12 25.455 0.49 25.785 -3.25 26.125 C-5.89 34.375 -8.53 42.625 -11.25 51.125 C-8.28 51.785 -5.31 52.445 -2.25 53.125 C-4.125 62 -4.125 62 -5.25 63.125 C-7.87051074 63.30562277 -10.43960526 63.40307881 -13.0625 63.4375 C-13.78759766 63.46650391 -14.51269531 63.49550781 -15.25976562 63.52539062 C-18.57616745 63.56483548 -20.87269515 63.34387202 -23.76171875 61.66796875 C-26.55724096 56.89136781 -25.80500092 52.28306161 -24.484375 47.14794922 C-23.47736189 43.92360912 -22.38524339 40.74386619 -21.25 37.5625 C-20.8684375 36.45841797 -20.486875 35.35433594 -20.09375 34.21679688 C-19.15805963 31.51499094 -18.20998277 28.81824953 -17.25 26.125 C-18.384375 26.00125 -19.51875 25.8775 -20.6875 25.75 C-21.863125 25.54375 -23.03875 25.3375 -24.25 25.125 C-24.58 24.465 -24.91 23.805 -25.25 23.125 C-24.47265625 20.9609375 -24.47265625 20.9609375 -23.3125 18.5 C-22.93222656 17.68273437 -22.55195313 16.86546875 -22.16015625 16.0234375 C-21.85980469 15.39695312 -21.55945313 14.77046875 -21.25 14.125 C-18.28 14.125 -15.31 14.125 -12.25 14.125 C-12.07984375 13.28195313 -11.9096875 12.43890625 -11.734375 11.5703125 C-11.49203125 10.47460938 -11.2496875 9.37890625 -11 8.25 C-10.76796875 7.15945312 -10.5359375 6.06890625 -10.296875 4.9453125 C-9.25 2.125 -9.25 2.125 -7.46875 0.75 C-4.87869292 0.02040646 -2.68816109 -0.07074108 0 0 Z " fill="#010101" transform="translate(492.25,69.875)"/>
<path d="M0 0 C0.79921875 0.00902344 1.5984375 0.01804687 2.421875 0.02734375 C3.02515625 0.03894531 3.6284375 0.05054687 4.25 0.0625 C3.25956295 4.89878305 2.29301154 9.53868873 0.25 14.0625 C3.55 14.0625 6.85 14.0625 10.25 14.0625 C9.75639991 18.34036748 9.20216435 21.15817131 7.25 25.0625 C3.62 25.0625 -0.01 25.0625 -3.75 25.0625 C-4.141875 26.5475 -4.53375 28.0325 -4.9375 29.5625 C-6.99468857 37.12860218 -9.37810967 44.5905767 -11.75 52.0625 C-8.45 52.3925 -5.15 52.7225 -1.75 53.0625 C-2.74 56.3625 -3.73 59.6625 -4.75 63.0625 C-7.50164432 63.19767903 -10.24664521 63.29665251 -13 63.375 C-13.77730469 63.41689453 -14.55460937 63.45878906 -15.35546875 63.50195312 C-19.23541619 63.58485798 -21.15097389 63.49742165 -24.359375 61.16796875 C-28.01391131 53.00685535 -23.58164485 43.79517825 -20.6875 35.9375 C-20.31044922 34.885625 -19.93339844 33.83375 -19.54492188 32.75 C-18.62337049 30.18365436 -17.691638 27.62152845 -16.75 25.0625 C-19.39 25.0625 -22.03 25.0625 -24.75 25.0625 C-24.25639991 20.78463252 -23.70216435 17.96682869 -21.75 14.0625 C-18.78 14.0625 -15.81 14.0625 -12.75 14.0625 C-12.54503906 13.29164062 -12.34007812 12.52078125 -12.12890625 11.7265625 C-11.85949219 10.72367188 -11.59007812 9.72078125 -11.3125 8.6875 C-11.04566406 7.68976563 -10.77882813 6.69203125 -10.50390625 5.6640625 C-9.75 3.0625 -9.75 3.0625 -8.75 1.0625 C-5.81699331 0.0307565 -3.08787164 -0.04540988 0 0 Z " fill="#010101" transform="translate(375.75,69.9375)"/>
<path d="M0 0 C1.10844919 3.32534757 0.84454356 5.62182575 0 9 C-0.66 9 -1.32 9 -2 9 C-2 9.99 -2 10.98 -2 12 C6.91 12 15.82 12 25 12 C25.33 10.68 25.66 9.36 26 8 C27 10 27 10 26.55029297 11.90771484 C25.67474384 14.40316211 24.78585221 16.89219317 23.875 19.375 C23.57851562 20.23867187 23.28203125 21.10234375 22.9765625 21.9921875 C20.84394971 27.84783618 18.73792805 31.13103597 13 34 C11.18828902 34.15306901 9.3716206 34.24946661 7.5546875 34.31640625 C6.47832031 34.35830078 5.40195313 34.40019531 4.29296875 34.44335938 C3.16503906 34.48267578 2.03710938 34.52199219 0.875 34.5625 C-0.26066406 34.60568359 -1.39632812 34.64886719 -2.56640625 34.69335938 C-5.37747768 34.7996604 -8.18863945 34.90169405 -11 35 C-10.69277982 33.56322735 -10.38224074 32.12716412 -10.0703125 30.69140625 C-9.89773926 29.89162354 -9.72516602 29.09184082 -9.54736328 28.26782227 C-8.93386031 25.72597164 -8.07579077 23.38210813 -7 21 C-6.34 21 -5.68 21 -5 21 C-4.814375 19.7934375 -4.814375 19.7934375 -4.625 18.5625 C-3.51274585 12.22265134 -2.17889995 6.06979272 0 0 Z " fill="#C93B2E" transform="translate(89,111)"/>
<path d="M0 0 C4.29 0 8.58 0 13 0 C10.63755109 9.17720538 7.71736549 18.1230303 4.70166016 27.10083008 C3.86659145 29.58753939 3.03647964 32.07586415 2.20703125 34.56445312 C1.67736871 36.14853295 1.14743106 37.73252082 0.6171875 39.31640625 C0.3692746 40.05903214 0.12136169 40.80165802 -0.13406372 41.56678772 C-1.88383622 46.76767243 -1.88383622 46.76767243 -3 49 C-7.29 49 -11.58 49 -16 49 C-13.35611561 38.56763309 -9.82739248 28.4749388 -6.3125 18.3125 C-5.69955011 16.53201106 -5.08691732 14.75141293 -4.47460938 12.97070312 C-2.98672582 8.64586779 -1.4945588 4.32253284 0 0 Z " fill="#010101" transform="translate(452,84)"/>
<path d="M0 0 C8.58 0 17.16 0 26 0 C25.67 1.32 25.34 2.64 25 4 C24.01 4 23.02 4 22 4 C21.34 5.98 20.68 7.96 20 10 C20.99 9.67 21.98 9.34 23 9 C23.79953138 12.28696233 24.09658936 13.71023192 23 17 C22.34 17.33 21.68 17.66 21 18 C20.67 18.99 20.34 19.98 20 21 C11.09 21 2.18 21 -7 21 C-7 20.01 -7 19.02 -7 18 C-6.34 18 -5.68 18 -5 18 C-4.96261719 17.25234375 -4.92523438 16.5046875 -4.88671875 15.734375 C-4.82097656 14.74953125 -4.75523438 13.7646875 -4.6875 12.75 C-4.62949219 11.77546875 -4.57148437 10.8009375 -4.51171875 9.796875 C-3.9456876 6.70314748 -2.98061629 5.38284941 -1 3 C-0.67 2.01 -0.34 1.02 0 0 Z " fill="#E74235" transform="translate(94,102)"/>
<path d="M0 0 C2.52090778 -0.0272367 5.04151457 -0.04695207 7.5625 -0.0625 C8.61920898 -0.07506836 8.61920898 -0.07506836 9.69726562 -0.08789062 C14.24024798 -0.10882603 18.51784892 0.25199318 23 1 C23.33 2.65 23.66 4.3 24 6 C22.68 5.67 21.36 5.34 20 5 C20.185625 5.886875 20.37125 6.77375 20.5625 7.6875 C21 11 21 11 20 16 C12.74 16 5.48 16 -2 16 C-2 16.66 -2 17.32 -2 18 C-3.32 18.33 -4.64 18.66 -6 19 C-6.125 12.375 -6.125 12.375 -5 9 C-4.34 9 -3.68 9 -3 9 C-3 8.01 -3 7.02 -3 6 C-2.34 6 -1.68 6 -1 6 C-0.67 4.02 -0.34 2.04 0 0 Z " fill="#F9BB07" transform="translate(109,63)"/>
<path d="M0 0 C13.86 0.495 13.86 0.495 28 1 C26.56401766 6.74392936 25.53032708 10.04936007 23 15 C22.63411185 16.65982371 22.29537827 18.32618981 22 20 C21.35973877 20.01981934 20.71947754 20.03963867 20.05981445 20.06005859 C17.1436472 20.15563601 14.22816428 20.26518214 11.3125 20.375 C10.30509766 20.4059375 9.29769531 20.436875 8.25976562 20.46875 C7.28330078 20.50742188 6.30683594 20.54609375 5.30078125 20.5859375 C4.40528564 20.6173584 3.50979004 20.6487793 2.5871582 20.68115234 C-2.56697774 21.31636057 -5.55788511 23.1754279 -9 27 C-8.32829194 23.1936543 -7.27253436 19.64793184 -6 16 C-5.67 16 -5.34 16 -5 16 C-5 17.65 -5 19.3 -5 21 C-3.68 20.67 -2.36 20.34 -1 20 C-1 19.34 -1 18.68 -1 18 C6.26 18 13.52 18 21 18 C20.505 13.05 20.505 13.05 20 8 C20.33 7.34 20.66 6.68 21 6 C21.99 6.33 22.98 6.66 24 7 C24 5.68 24 4.36 24 3 C23.401875 3.185625 22.80375 3.37125 22.1875 3.5625 C20 4 20 4 17 3 C14.64625926 2.95522015 12.29134448 2.96105325 9.9375 3 C3.22177822 3.11088911 3.22177822 3.11088911 1 2 C0.67 3.98 0.34 5.96 0 8 C-0.66 8 -1.32 8 -2 8 C-2.33 8.99 -2.66 9.98 -3 11 C-2.31282934 7.10603294 -1.27666659 3.82999978 0 0 Z " fill="#F3B919" transform="translate(108,61)"/>
<path d="M0 0 C1.46953125 0.00966797 1.46953125 0.00966797 2.96875 0.01953125 C3.98453125 0.03628906 5.0003125 0.05304687 6.046875 0.0703125 C7.078125 0.07933594 8.109375 0.08835938 9.171875 0.09765625 C11.71377787 0.12119239 14.2552078 0.15407227 16.796875 0.1953125 C16.30264983 5.35413482 15.5535995 9.38625564 13.359375 14.1328125 C11.81030705 17.65903841 10.5047126 20.90872493 9.796875 24.6953125 C8.70317308 30.51766682 6.18632649 35.80536658 3.796875 41.1953125 C3.466875 41.1953125 3.136875 41.1953125 2.796875 41.1953125 C2.25770966 36.88198979 3.7020088 34.43196705 5.71875 30.7109375 C7.5352796 26.47236844 8.18545642 21.98758987 8.98828125 17.46484375 C9.796875 14.1953125 9.796875 14.1953125 11.32421875 11.70703125 C13.32432509 8.65905119 13.32432509 8.65905119 13.796875 2.1953125 C6.536875 2.5253125 -0.723125 2.8553125 -8.203125 3.1953125 C-8.203125 3.8553125 -8.203125 4.5153125 -8.203125 5.1953125 C-9.193125 5.6903125 -9.193125 5.6903125 -10.203125 6.1953125 C-10.93269883 7.83541745 -11.58929538 9.50847065 -12.203125 11.1953125 C-13.53645833 14.52864583 -14.86979167 17.86197917 -16.203125 21.1953125 C-16.863125 21.1953125 -17.523125 21.1953125 -18.203125 21.1953125 C-17.30589591 14.24178709 -14.07874985 7.22330063 -9.203125 2.1953125 C-6.05335008 0.24101645 -3.6777679 -0.04276474 0 0 Z " fill="#C6AD31" transform="translate(127.203125,39.8046875)"/>
<path d="M0 0 C1.79244141 0.01740234 1.79244141 0.01740234 3.62109375 0.03515625 C5.41740234 0.04869141 5.41740234 0.04869141 7.25 0.0625 C8.17683594 0.07410156 9.10367187 0.08570312 10.05859375 0.09765625 C8.73859375 4.05765625 7.41859375 8.01765625 6.05859375 12.09765625 C1.76859375 12.09765625 -2.52140625 12.09765625 -6.94140625 12.09765625 C-3.77632063 0.12537585 -3.77632063 0.12537585 0 0 Z " fill="#010101" transform="translate(460.94140625,66.90234375)"/>
<path d="M0 0 C0.33 0 0.66 0 1 0 C1 1.65 1 3.3 1 5 C2.32 4.67 3.64 4.34 5 4 C5 3.34 5 2.68 5 2 C12.59 2 20.18 2 28 2 C28 2.66 28 3.32 28 4 C27.03960815 4.029729 27.03960815 4.029729 26.05981445 4.06005859 C23.1436472 4.15563601 20.22816428 4.26518214 17.3125 4.375 C16.30509766 4.4059375 15.29769531 4.436875 14.25976562 4.46875 C12.79506836 4.52675781 12.79506836 4.52675781 11.30078125 4.5859375 C10.40528564 4.6173584 9.50979004 4.6487793 8.5871582 4.68115234 C3.43302226 5.31636057 0.44211489 7.1754279 -3 11 C-2.32829194 7.1936543 -1.27253436 3.64793184 0 0 Z " fill="#FBAA26" transform="translate(102,77)"/>
<path d="M0 0 C0.66 0.33 1.32 0.66 2 1 C0.96232949 7.06732052 -0.33961901 12.4373852 -3 18 C-3.66 17.01 -4.32 16.02 -5 15 C-5.66 15 -6.32 15 -7 15 C-6.34 13.02 -5.68 11.04 -5 9 C-4.01 9 -3.02 9 -2 9 C-1.34 6.03 -0.68 3.06 0 0 Z " fill="#DD453D" transform="translate(121,97)"/>
<path d="M0 0 C0.99435406 3.09354597 0.87840996 4.90279155 0 8 C0.7734375 7.98839844 1.546875 7.97679687 2.34375 7.96484375 C8.33936364 7.91290155 14.07302983 8.08815844 20 9 C20 9.33 20 9.66 20 10 C12.74 10 5.48 10 -2 10 C-1 3 -1 3 0 0 Z " fill="#519D53" transform="translate(139,54)"/>
<path d="M0 0 C0 0.66 0 1.32 0 2 C-0.99 2 -1.98 2 -3 2 C-3 2.66 -3 3.32 -3 4 C-3.99 4.495 -3.99 4.495 -5 5 C-5.72957383 6.64010495 -6.38617038 8.31315815 -7 10 C-8.33333333 13.33333333 -9.66666667 16.66666667 -11 20 C-11.66 20 -12.32 20 -13 20 C-12.09283796 12.96949423 -8.8311384 6.1532143 -4 1 C-2 0 -2 0 0 0 Z " fill="#D5A63A" transform="translate(122,41)"/>
<path d="M0 0 C1 2 1 2 0 7 C5.94 7.99 5.94 7.99 12 9 C12 9.33 12 9.66 12 10 C7.05 10.33 2.1 10.66 -3 11 C-3 5.34185541 -2.99466683 4.24244468 0 0 Z " fill="#5C78C9" transform="translate(125,93)"/>
<path d="M0 0 C0.33 0 0.66 0 1 0 C1 2.31 1 4.62 1 7 C7.93 7 14.86 7 22 7 C22 7.33 22 7.66 22 8 C14.08 8.33 6.16 8.66 -2 9 C-1.34 6.03 -0.68 3.06 0 0 Z " fill="#A34A57" transform="translate(80,137)"/>
<path d="M0 0 C1.32 0 2.64 0 4 0 C2.66958425 8.35010941 2.66958425 8.35010941 -0.125 11.0625 C-0.74375 11.371875 -1.3625 11.68125 -2 12 C-2 10.35 -2 8.7 -2 7 C-1.34 7 -0.68 7 0 7 C0 4.69 0 2.38 0 0 Z " fill="#3D9F5E" transform="translate(187,51)"/>
<path d="M0 0 C1.23925303 3.48738512 0.7983396 5.24703368 -0.75 8.5625 C-1.09546875 9.32691406 -1.4409375 10.09132812 -1.796875 10.87890625 C-2.98522483 12.97395157 -4.21770325 14.39695723 -6 16 C-4.43551329 10.3856009 -2.83604813 5.13189662 0 0 Z " fill="#4C7DD3" transform="translate(37,121)"/>
<path d="M0 0 C0 1.98 0 3.96 0 6 C-0.59808472 5.2733313 -0.59808472 5.2733313 -1.20825195 4.53198242 C-3.4748964 2.59395355 -4.71629823 2.5822835 -7.66796875 2.48828125 C-8.56064453 2.45283203 -9.45332031 2.41738281 -10.37304688 2.38085938 C-11.30181641 2.35830078 -12.23058594 2.33574219 -13.1875 2.3125 C-14.12787109 2.27833984 -15.06824219 2.24417969 -16.03710938 2.20898438 C-18.35795393 2.12651782 -20.67842148 2.05736597 -23 2 C-23 1.67 -23 1.34 -23 1 C-19.54170353 0.83256252 -16.08335707 0.66618079 -12.625 0.5 C-11.64015625 0.45230469 -10.6553125 0.40460938 -9.640625 0.35546875 C-8.69960937 0.31035156 -7.75859375 0.26523438 -6.7890625 0.21875 C-5.91975098 0.17685547 -5.05043945 0.13496094 -4.15478516 0.09179688 C-2.77077412 0.03283606 -1.38526637 0 0 0 Z " fill="#6072AF" transform="translate(86,120)"/>
<path d="M0 0 C1.10844919 3.32534757 0.84454356 5.62182575 0 9 C-0.66 9 -1.32 9 -2 9 C-1.96519531 9.61488281 -1.93039063 10.22976562 -1.89453125 10.86328125 C-1.86746094 11.67152344 -1.84039062 12.47976562 -1.8125 13.3125 C-1.76029297 14.51326172 -1.76029297 14.51326172 -1.70703125 15.73828125 C-2.06198392 18.47851584 -2.89366282 19.29171079 -5 21 C-3.89738719 13.83301676 -2.45348298 6.83470259 0 0 Z " fill="#B8484B" transform="translate(89,111)"/>
<path d="M0 0 C1.67542976 0.28604898 3.34385343 0.61781233 5 1 C5 1.66 5 2.32 5 3 C5.66 3.33 6.32 3.66 7 4 C6.34 4.66 5.68 5.32 5 6 C2.375 5.625 2.375 5.625 0 5 C-0.5625 3.0625 -0.5625 3.0625 -1 1 C-0.67 0.67 -0.34 0.34 0 0 Z " fill="#3F7AE8" transform="translate(58,120)"/>
<path d="M0 0 C0.66 0.99 1.32 1.98 2 3 C1.37352578 5.51180701 0.67490306 7.72799993 -0.25 10.125 C-0.48074219 10.77082031 -0.71148437 11.41664062 -0.94921875 12.08203125 C-2.72267133 16.86133567 -2.72267133 16.86133567 -5 18 C-5.56313991 13.49488076 -4.01732897 10.7814477 -1.95703125 6.9375 C-0.83442379 4.66479266 -0.31378407 2.51027253 0 0 Z " fill="#D2B24B" transform="translate(135,63)"/>
<path d="M0 0 C0 3.71873182 -1.13235183 6.23418837 -2.5 9.6875 C-2.9640625 10.86699219 -3.428125 12.04648438 -3.90625 13.26171875 C-4.2671875 14.16535156 -4.628125 15.06898437 -5 16 C-5.33 16 -5.66 16 -6 16 C-6 14.02 -6 12.04 -6 10 C-5.34 10 -4.68 10 -4 10 C-4 8.02 -4 6.04 -4 4 C-3.34 4 -2.68 4 -2 4 C-1.34 2.68 -0.68 1.36 0 0 Z " fill="#A44D5C" transform="translate(129,81)"/>
<path d="M0 0 C0.66 0.33 1.32 0.66 2 1 C1.71788123 2.6266848 1.42397625 4.25132896 1.125 5.875 C0.96257812 6.77992187 0.80015625 7.68484375 0.6328125 8.6171875 C0 11 0 11 -2 13 C-2.19294408 8.17639811 -1.75747614 4.50353262 0 0 Z " fill="#BD4A4B" transform="translate(121,97)"/>
<path d="M0 0 C0.99 0 1.98 0 3 0 C2.4140625 6.15234375 2.4140625 6.15234375 2 8 C1.01 8.495 1.01 8.495 0 9 C0 6.03 0 3.06 0 0 Z " fill="#3D8C57" transform="translate(191,42)"/>
<path d="M0 0 C1.24546405 2.49092811 0.7767578 3.41080733 0 6 C-0.66 6 -1.32 6 -2 6 C-2.33 6.99 -2.66 7.98 -3 9 C-3.1875 5.625 -3.1875 5.625 -3 2 C-2.01 1.34 -1.02 0.68 0 0 Z " fill="#6774C1" transform="translate(84,126)"/>
<path d="M0 0 C0.99 0 1.98 0 3 0 C2.34 1.65 1.68 3.3 1 5 C-0.32 4.67 -1.64 4.34 -3 4 C-1.6875 2 -1.6875 2 0 0 Z " fill="#C84A21" transform="translate(103,83)"/>
<path d="M0 0 C1.46534385 3.80989402 0.55203911 6.3241179 -1 10 C-1.99 10.495 -1.99 10.495 -3 11 C-2.32829194 7.1936543 -1.27253436 3.64793184 0 0 Z " fill="#D8943E" transform="translate(102,77)"/>
<path d="" fill="#FFFFFF" transform="translate(0,0)"/>
<path d="" fill="#FFFFFF" transform="translate(0,0)"/>
<path d="" fill="#FFFFFF" transform="translate(0,0)"/>
<path d="" fill="#FFFFFF" transform="translate(0,0)"/>
<path d="" fill="#FFFFFF" transform="translate(0,0)"/>
<path d="" fill="#FFFFFF" transform="translate(0,0)"/>
<path d="" fill="#FFFFFF" transform="translate(0,0)"/>
<path d="" fill="#FFFFFF" transform="translate(0,0)"/>
<path d="" fill="#FFFFFF" transform="translate(0,0)"/>
<path d="" fill="#FFFFFF" transform="translate(0,0)"/>
<path d="" fill="#FFFFFF" transform="translate(0,0)"/>
<path d="" fill="#FFFFFF" transform="translate(0,0)"/>
<path d="" fill="#FFFFFF" transform="translate(0,0)"/>
<path d="" fill="#FFFFFF" transform="translate(0,0)"/>
<path d="" fill="#FFFFFF" transform="translate(0,0)"/>
<path d="" fill="#FFFFFF" transform="translate(0,0)"/>
<path d="" fill="#FFFFFF" transform="translate(0,0)"/>
<path d="" fill="#FFFFFF" transform="translate(0,0)"/>
<path d="" fill="#FFFFFF" transform="translate(0,0)"/>
<path d="" fill="#FFFFFF" transform="translate(0,0)"/>
<path d="" fill="#FFFFFF" transform="translate(0,0)"/>
<path d="" fill="#FFFFFF" transform="translate(0,0)"/>
<path d="" fill="#FFFFFF" transform="translate(0,0)"/>
<path d="" fill="#FFFFFF" transform="translate(0,0)"/>
<path d="" fill="#FFFFFF" transform="translate(0,0)"/>
<path d="" fill="#FFFFFF" transform="translate(0,0)"/>
<path d="" fill="#FFFFFF" transform="translate(0,0)"/>
<path d="" fill="#FFFFFF" transform="translate(0,0)"/>
<path d="" fill="#FFFFFF" transform="translate(0,0)"/>
<path d="" fill="#FFFFFF" transform="translate(0,0)"/>
<path d="" fill="#FFFFFF" transform="translate(0,0)"/>
<path d="" fill="#FFFFFF" transform="translate(0,0)"/>
<path d="" fill="#FFFFFF" transform="translate(0,0)"/>
<path d="" fill="#FFFFFF" transform="translate(0,0)"/>
<path d="" fill="#FFFFFF" transform="translate(0,0)"/>
<path d="" fill="#FFFFFF" transform="translate(0,0)"/>
<path d="" fill="#FFFFFF" transform="translate(0,0)"/>
<path d="" fill="#FFFFFF" transform="translate(0,0)"/>
<path d="" fill="#FFFFFF" transform="translate(0,0)"/>
<path d="" fill="#FFFFFF" transform="translate(0,0)"/>
<path d="" fill="#FFFFFF" transform="translate(0,0)"/>
<path d="" fill="#FFFFFF" transform="translate(0,0)"/>
<path d="" fill="#FFFFFF" transform="translate(0,0)"/>
<path d="" fill="#FFFFFF" transform="translate(0,0)"/>
<path d="" fill="#FFFFFF" transform="translate(0,0)"/>
<path d="" fill="#FFFFFF" transform="translate(0,0)"/>
<path d="" fill="#FFFFFF" transform="translate(0,0)"/>
<path d="" fill="#FFFFFF" transform="translate(0,0)"/>
<path d="" fill="#FFFFFF" transform="translate(0,0)"/>
<path d="" fill="#FFFFFF" transform="translate(0,0)"/>
<path d="" fill="#FFFFFF" transform="translate(0,0)"/>
<path d="" fill="#FFFFFF" transform="translate(0,0)"/>
<path d="" fill="#FFFFFF" transform="translate(0,0)"/>
<path d="" fill="#FFFFFF" transform="translate(0,0)"/>
<path d="" fill="#FFFFFF" transform="translate(0,0)"/>
<path d="" fill="#FFFFFF" transform="translate(0,0)"/>
<path d="" fill="#FFFFFF" transform="translate(0,0)"/>
<path d="" fill="#FFFFFF" transform="translate(0,0)"/>
<path d="" fill="#FFFFFF" transform="translate(0,0)"/>
<path d="" fill="#FFFFFF" transform="translate(0,0)"/>
<path d="" fill="#FFFFFF" transform="translate(0,0)"/>
<path d="" fill="#FFFFFF" transform="translate(0,0)"/>
<path d="" fill="#FFFFFF" transform="translate(0,0)"/>
<path d="" fill="#FFFFFF" transform="translate(0,0)"/>
<path d="" fill="#FFFFFF" transform="translate(0,0)"/>
<path d="" fill="#FFFFFF" transform="translate(0,0)"/>
<path d="" fill="#FFFFFF" transform="translate(0,0)"/>
<path d="" fill="#FFFFFF" transform="translate(0,0)"/>
<path d="" fill="#FFFFFF" transform="translate(0,0)"/>
<path d="" fill="#FFFFFF" transform="translate(0,0)"/>
<path d="" fill="#FFFFFF" transform="translate(0,0)"/>
<path d="" fill="#FFFFFF" transform="translate(0,0)"/>
<path d="" fill="#FFFFFF" transform="translate(0,0)"/>
<path d="" fill="#FFFFFF" transform="translate(0,0)"/>
<path d="" fill="#FFFFFF" transform="translate(0,0)"/>
<path d="" fill="#FFFFFF" transform="translate(0,0)"/>
<path d="" fill="#FFFFFF" transform="translate(0,0)"/>
<path d="" fill="#FFFFFF" transform="translate(0,0)"/>
<path d="" fill="#FFFFFF" transform="translate(0,0)"/>
<path d="" fill="#FFFFFF" transform="translate(0,0)"/>
<path d="" fill="#FFFFFF" transform="translate(0,0)"/>
<path d="" fill="#FFFFFF" transform="translate(0,0)"/>
<path d="" fill="#FFFFFF" transform="translate(0,0)"/>
<path d="" fill="#FFFFFF" transform="translate(0,0)"/>
<path d="" fill="#FFFFFF" transform="translate(0,0)"/>
<path d="" fill="#FFFFFF" transform="translate(0,0)"/>
</svg>
