<svg width="27" height="27" viewBox="0 0 27 27" fill="none" xmlns="http://www.w3.org/2000/svg">
<path d="M21.333 -2.09808e-05C24.2785 -2.09808e-05 26.72 2.41106 26.1348 5.29786C25.795 6.97386 25.294 8.61733 24.6365 10.2049C23.2963 13.4402 21.3321 16.3799 18.8559 18.8562C16.3796 21.3324 13.4399 23.2966 10.2046 24.6368C8.61702 25.2943 6.97356 25.7953 5.29755 26.1351C2.41075 26.7203 -0.000328064 24.2788 -0.000326157 21.3333V14.8554C-0.000326157 12.542 1.94434 10.74 4.08163 9.85469C5.37577 9.31865 6.55165 8.53294 7.54214 7.54245C8.53264 6.55196 9.31834 5.37608 9.85439 4.08194C10.7397 1.94464 12.5417 -2.09808e-05 14.8551 -2.09808e-05H21.333Z" fill="#EEEEF0"/>
</svg>
