<svg width="115" height="115" viewBox="0 0 115 115" fill="none" xmlns="http://www.w3.org/2000/svg">
<path fill-rule="evenodd" clip-rule="evenodd" d="M74.0591 71.9162C75.7475 72.3753 77.4159 72.9053 79.0598 73.5046L81.1801 78.6024C78.3679 77.3123 75.4603 76.2412 72.4832 75.3985L73.8776 71.9072L74.0591 71.9162ZM41.0864 72.1067L42.5922 75.4273C39.5913 76.2704 36.6578 77.3371 33.8163 78.6185L35.9204 73.8389C37.5232 73.2297 39.4369 72.5811 41.0864 72.1067ZM90.8886 79.641C97.5496 84.0289 103.625 89.7178 107.817 95.6619C107.97 95.8534 108.082 96.0741 108.146 96.3105C108.21 96.5468 108.226 96.7938 108.191 97.0363C108.156 97.2788 108.072 97.5117 107.945 97.7206C107.817 97.9294 107.647 98.11 107.447 98.2511C107.247 98.3922 107.02 98.4908 106.78 98.541C106.54 98.5912 106.293 98.5918 106.053 98.5429C105.813 98.4939 105.585 98.3964 105.385 98.2563C105.184 98.1162 105.013 97.9366 104.884 97.7283C100.069 92.0196 94.7537 87.0908 89.2445 83.2994L90.8886 79.641ZM24.2569 79.835L25.7052 83.179C20.0432 87.0136 14.8341 91.9963 10.7911 97.7301C10.5164 98.1197 10.0981 98.3842 9.62837 98.4654C9.15862 98.5466 8.67585 98.4379 8.28626 98.1632C7.89667 97.8884 7.63218 97.4702 7.55096 97.0004C7.46976 96.5307 7.57848 96.0479 7.85321 95.6583C12.2825 89.38 18.0091 83.9678 24.2569 79.835Z" fill="#2E3234"/>
<path d="M57.5 30.5468C64.4359 30.5468 70.0781 36.189 70.0781 43.1249C70.0781 50.0609 64.4359 55.7031 57.5 55.7031C50.564 55.7031 44.9219 50.0609 44.9219 43.1249C44.9219 36.189 50.564 30.5468 57.5 30.5468ZM57.5 52.1093C62.4522 52.1093 66.4844 48.0789 66.4844 43.1249C66.4844 38.1709 62.4522 34.1406 57.5 34.1406C52.5478 34.1406 48.5156 38.1709 48.5156 43.1249C48.5156 48.0789 52.5442 52.1093 57.5 52.1093ZM26.2757 37.1341C26.6991 37.3529 27.0183 37.7309 27.163 38.185C27.3078 38.639 27.2662 39.132 27.0474 39.5554C26.8287 39.9789 26.4507 40.298 25.9966 40.4428C25.5425 40.5875 25.0496 40.5459 24.6262 40.3272C23.1598 39.5726 21.9301 38.4279 21.0726 37.0193C20.215 35.6107 19.7627 33.9928 19.7656 32.3437C19.7676 30.982 20.0786 29.6386 20.6754 28.4147C21.2721 27.1908 22.1389 26.1183 23.2104 25.2781C24.2819 24.4379 25.5302 23.852 26.8611 23.5644C28.192 23.2768 29.5709 23.2952 30.8937 23.6181C31.124 23.6733 31.3412 23.7735 31.5327 23.9129C31.7242 24.0524 31.8863 24.2283 32.0095 24.4306C32.1328 24.633 32.2148 24.8577 32.2509 25.0918C32.2869 25.3259 32.2764 25.5649 32.2198 25.7949C32.1631 26.025 32.0616 26.2415 31.921 26.4322C31.7803 26.6228 31.6034 26.7838 31.4003 26.9058C31.1972 27.0278 30.972 27.1084 30.7377 27.143C30.5033 27.1777 30.2644 27.1656 30.0347 27.1076C29.2411 26.9143 28.414 26.9036 27.6156 27.0763C26.8172 27.2491 26.0685 27.6008 25.4258 28.1049C24.7831 28.609 24.2631 29.2525 23.9052 29.9867C23.5473 30.7209 23.3606 31.5268 23.3594 32.3437C23.3577 33.3334 23.6293 34.3044 24.1441 35.1496C24.659 35.9949 25.3955 36.6816 26.2757 37.1341ZM86.25 26.9531C85.8133 26.9531 85.3821 27.0052 84.9634 27.1076C84.5018 27.2182 84.0153 27.1417 83.6099 26.8947C83.2046 26.6478 82.9134 26.2505 82.7999 25.7896C82.6865 25.3287 82.76 24.8417 83.0044 24.4348C83.2489 24.028 83.6443 23.7343 84.1045 23.6181C85.4274 23.2949 86.8065 23.2763 88.1376 23.5637C89.4688 23.8511 90.7173 24.437 91.789 25.2772C92.8608 26.1175 93.7277 27.1901 94.3246 28.4141C94.9214 29.6382 95.2325 30.9819 95.2344 32.3437C95.2373 33.9926 94.7851 35.6103 93.9275 37.0186C93.0699 38.427 91.8401 39.5712 90.3738 40.3254C90.1643 40.4345 89.9354 40.5011 89.7 40.5213C89.4647 40.5415 89.2277 40.5149 89.0027 40.4431C88.7777 40.3713 88.5692 40.2556 88.3891 40.1028C88.209 39.95 88.0609 39.763 87.9534 39.5527C87.735 39.1293 87.6937 38.6365 87.8386 38.1826C87.9835 37.7287 88.3027 37.3509 88.7261 37.1324C89.6049 36.6793 90.3418 35.9925 90.8554 35.1476C91.369 34.3027 91.6394 33.3324 91.637 32.3437C91.637 29.3716 89.2184 26.9531 86.2464 26.9531H86.25Z" fill="#047AED"/>
<path d="M57.5 16.1719C72.3602 16.1719 84.4531 28.263 84.4531 43.125C84.4531 47.3045 83.5223 51.3044 81.7183 54.9574L59.137 104.955C58.9947 105.271 58.7645 105.538 58.474 105.726C58.1835 105.913 57.845 106.013 57.4991 106.013C57.1533 106.013 56.8147 105.913 56.5242 105.726C56.2337 105.538 56.0035 105.271 55.8613 104.955L33.3033 55.0131C31.478 51.3167 30.5345 47.2475 30.5469 43.125C30.5469 28.263 42.6398 16.1719 57.5 16.1719ZM36.5538 53.4786L57.5 99.8523L78.4695 53.4211C80.052 50.2202 80.87 46.6957 80.8594 43.125C80.8594 30.245 70.3782 19.7656 57.5 19.7656C44.6218 19.7656 34.1406 30.245 34.1406 43.125C34.1406 46.7475 34.942 50.2119 36.5538 53.4786Z" fill="#2E3234"/>
<path d="M28.75 8.98448C33.7812 8.98448 38.5717 10.5585 42.6075 13.5378C42.9786 13.8251 43.2226 14.2462 43.2873 14.7111C43.3519 15.1759 43.2321 15.6477 42.9535 16.0253C42.6749 16.403 42.2595 16.6567 41.7963 16.7321C41.333 16.8076 40.8587 16.6987 40.4746 16.4289C37.0824 13.9176 32.9707 12.5672 28.75 12.5782C17.8502 12.5782 8.98438 21.4458 8.98438 32.3439C8.98438 34.6061 9.36172 36.8217 10.0625 38.8126L28.75 81.7489L33.7022 70.3675C33.9055 69.951 34.2617 69.6291 34.6965 69.4688C35.1313 69.3085 35.6113 69.3223 36.0362 69.5072C36.4612 69.6921 36.7984 70.0339 36.9775 70.4613C37.1566 70.8887 37.1638 71.3688 36.9977 71.8014L30.3959 86.967C30.2561 87.2875 30.0258 87.5601 29.7333 87.7516C29.4408 87.9431 29.0987 88.0451 28.7491 88.0451C28.3995 88.0451 28.0575 87.9431 27.7649 87.7516C27.4724 87.5601 27.2421 87.2875 27.1023 86.967L6.72031 40.1351C5.83625 37.6356 5.39062 35.014 5.39062 32.3456C5.39062 19.4656 15.8682 8.98448 28.75 8.98448ZM86.25 88.047C85.8998 88.0468 85.5573 87.9444 85.2646 87.7522C84.9718 87.56 84.7416 87.2865 84.6023 86.9652L78.0005 71.7996C77.8102 71.3626 77.8012 70.8679 77.9756 70.4243C78.1499 69.9806 78.4934 69.6244 78.9304 69.434C79.3674 69.2437 79.8622 69.2347 80.3058 69.4091C80.7494 69.5834 81.1056 69.9269 81.296 70.3639L86.25 81.7471L104.891 38.933C105.637 36.8165 106.018 34.5882 106.016 32.3439C106.016 21.444 97.148 12.5782 86.25 12.5782C81.9914 12.5782 77.9395 13.9097 74.5254 16.4307C74.3356 16.5709 74.12 16.6723 73.8909 16.7291C73.6619 16.786 73.4239 16.7972 73.1906 16.7621C72.9572 16.7269 72.7331 16.6462 72.531 16.5244C72.3288 16.4027 72.1526 16.2423 72.0125 16.0525C71.8723 15.8626 71.7709 15.6471 71.714 15.418C71.6572 15.189 71.646 14.951 71.6811 14.7177C71.7163 14.4843 71.797 14.2602 71.9188 14.058C72.0405 13.8559 72.2009 13.6797 72.3907 13.5396C76.3989 10.5674 81.2601 8.96967 86.25 8.98448C99.1282 8.98448 109.609 19.4621 109.609 32.3439C109.609 35.014 109.16 37.6339 108.231 40.2501L87.8977 86.9688C87.7578 87.2894 87.5274 87.5622 87.2347 87.7537C86.942 87.9452 86.5998 88.0471 86.25 88.047Z" fill="#2E3234"/>
</svg>
