<svg width="98" height="88" viewBox="0 0 98 88" fill="none" xmlns="http://www.w3.org/2000/svg">
<path d="M1.73381 50.6259H3.46819C7.29421 50.6259 10.4057 53.6532 10.4057 57.3759V67.5009H26.0151C32.708 67.5009 38.1557 62.2021 38.1557 55.6884V46.6383C38.1331 46.6332 38.1123 46.6316 38.0898 46.6248C32.7548 45.1786 29.1577 40.3811 29.2185 35.1144L11.6718 30.3134C11.2372 30.1944 10.8675 29.9153 10.6411 29.5353C10.4147 29.1552 10.3496 28.7043 10.4594 28.2783L17.3969 1.27831C17.4529 1.05976 17.5533 0.854343 17.6922 0.674179C17.8311 0.494015 18.0057 0.34276 18.2057 0.229345C18.4057 0.11593 18.627 0.0426546 18.8566 0.013847C19.0862 -0.0149605 19.3194 0.00128313 19.5424 0.0616191L95.8549 20.6154C96.1627 20.6982 96.4411 20.8621 96.6592 21.0891C96.8774 21.316 97.0269 21.5972 97.0913 21.9016C97.1557 22.206 97.1325 22.5217 97.0242 22.8141C96.9159 23.1064 96.7267 23.364 96.4775 23.5584L87.0616 30.899L83.135 44.7466C83.0748 44.9607 82.9718 45.1611 82.8318 45.3362C82.6917 45.5114 82.5175 45.6579 82.3191 45.7674C82.1207 45.8769 81.902 45.9471 81.6757 45.974C81.4493 46.001 81.2196 45.9842 81 45.9245L71.1834 43.2768L68.7258 45.1921C68.5107 45.3602 68.2575 45.476 67.9872 45.5297C67.7169 45.5834 67.4374 45.5736 67.1718 45.5009L51.7653 41.2856C50.7088 42.9967 49.2255 44.4208 47.4528 45.4258C45.6801 46.4308 43.6754 46.9842 41.6244 47.0349V55.6884C41.6244 64.0617 34.6228 70.8759 26.0151 70.8759H10.4057V81.0009C10.4057 84.7235 7.29421 87.7509 3.46819 87.7509H1.73381C1.27382 87.7509 0.83268 87.5731 0.507416 87.2566C0.182159 86.9402 -0.000564575 86.5109 -0.000564575 86.0634V52.3134C-0.000564575 51.8658 0.182159 51.4366 0.507416 51.1201C0.83268 50.8037 1.27382 50.6259 1.73381 50.6259ZM80.2507 42.2204L82.4395 34.5001L74.5186 40.6747L80.2507 42.2204ZM67.2498 42.0162L91.6577 22.988L20.328 3.77581L14.23 27.5071L67.2498 42.0162ZM48.2428 40.322L32.7462 36.0813C33.0983 39.4631 35.5281 42.428 39.0211 43.3747C42.4986 44.3214 46.139 43.0169 48.2428 40.322ZM3.46819 84.3759C5.3812 84.3759 6.93694 82.8622 6.93694 81.0009V57.3759C6.93694 55.5146 5.3812 54.0009 3.46819 54.0009V84.3759Z" fill="#2E3234"/>
</svg>
