<svg width="53" height="53" viewBox="0 0 53 53" fill="none" xmlns="http://www.w3.org/2000/svg">
<path d="M40.9752 0.274876C40.8882 0.18774 40.7849 0.118611 40.6711 0.0714442C40.5574 0.0242779 40.4355 0 40.3124 0C40.1892 0 40.0673 0.0242779 39.9536 0.0714442C39.8398 0.118611 39.7365 0.18774 39.6495 0.274876L28.1249 11.7996L27.8502 11.5249C27.7632 11.4377 27.6599 11.3686 27.5461 11.3214C27.4324 11.2743 27.3105 11.25 27.1874 11.25C27.0642 11.25 26.9423 11.2743 26.8286 11.3214C26.7148 11.3686 26.6115 11.4377 26.5245 11.5249L11.5245 26.5249C11.4374 26.6119 11.3683 26.7152 11.3211 26.8289C11.2739 26.9426 11.2497 27.0646 11.2497 27.1877C11.2497 27.3108 11.2739 27.4327 11.3211 27.5465C11.3683 27.6602 11.4374 27.7635 11.5245 27.8505L15.5492 31.8752L14.0624 33.3621L11.9127 31.2124C11.8256 31.1253 11.7223 31.0563 11.6086 31.0092C11.4948 30.9621 11.373 30.9378 11.2499 30.9378C11.1268 30.9378 11.0049 30.9621 10.8911 31.0092C10.7774 31.0563 10.6741 31.1253 10.587 31.2124C10.5 31.2994 10.431 31.4028 10.3839 31.5165C10.3367 31.6302 10.3125 31.7521 10.3125 31.8752C10.3125 31.9983 10.3367 32.1202 10.3839 32.2339C10.431 32.3476 10.5 32.451 10.587 32.538L12.7367 34.6877L11.2499 36.1746L10.0377 34.9624C9.95063 34.8753 9.8473 34.8063 9.73357 34.7592C9.61984 34.7121 9.49795 34.6878 9.37486 34.6878C9.25176 34.6878 9.12987 34.7121 9.01615 34.7592C8.90242 34.8063 8.79909 34.8753 8.71205 34.9624C8.625 35.0494 8.55596 35.1528 8.50885 35.2665C8.46175 35.3802 8.4375 35.5021 8.4375 35.6252C8.4375 35.7483 8.46175 35.8702 8.50885 35.9839C8.55596 36.0976 8.625 36.201 8.71205 36.288L9.92423 37.5002L8.43736 38.9871L8.16267 38.7124C8.07563 38.6253 7.9723 38.5563 7.85857 38.5092C7.74484 38.4621 7.62295 38.4378 7.49986 38.4378C7.37676 38.4378 7.25487 38.4621 7.14115 38.5092C7.02742 38.5563 6.92409 38.6253 6.83705 38.7124C6.75 38.7994 6.68096 38.9028 6.63385 39.0165C6.58674 39.1302 6.5625 39.2521 6.5625 39.3752C6.5625 39.4983 6.58674 39.6202 6.63385 39.7339C6.68096 39.8476 6.75 39.951 6.83705 40.038L7.11173 40.3127L0.274546 47.1499C0.187504 47.2369 0.118459 47.3403 0.0713521 47.454C0.0242455 47.5677 0 47.6896 0 47.8127C0 47.9358 0.0242455 48.0577 0.0713521 48.1714C0.118459 48.2851 0.187504 48.3885 0.274546 48.4755C0.361588 48.5625 0.464921 48.6316 0.578647 48.6787C0.692372 48.7258 0.814263 48.75 0.937358 48.75C1.06045 48.75 1.18234 48.7258 1.29607 48.6787C1.4098 48.6316 1.51313 48.5625 1.60017 48.4755L8.43736 41.6383L10.8617 44.0627L4.02455 50.8999C3.9375 50.9869 3.86846 51.0903 3.82135 51.204C3.77425 51.3177 3.75 51.4396 3.75 51.5627C3.75 51.6858 3.77425 51.8077 3.82135 51.9214C3.86846 52.0351 3.9375 52.1385 4.02455 52.2255C4.11159 52.3125 4.21492 52.3816 4.32865 52.4287C4.44237 52.4758 4.56426 52.5 4.68736 52.5C4.81045 52.5 4.93234 52.4758 5.04607 52.4287C5.1598 52.3816 5.26313 52.3125 5.35017 52.2255L12.1874 45.3883L12.462 45.663C12.5489 45.7504 12.6522 45.8197 12.7659 45.867C12.8797 45.9143 13.0017 45.9387 13.1249 45.9387C13.2481 45.9387 13.37 45.9143 13.4838 45.867C13.5975 45.8197 13.7008 45.7504 13.7877 45.663C13.8748 45.576 13.9439 45.4727 13.9911 45.359C14.0383 45.2452 14.0625 45.1233 14.0625 45.0002C14.0625 44.8771 14.0383 44.7551 13.9911 44.6414C13.9439 44.5277 13.8748 44.4244 13.7877 44.3374L13.513 44.0627L14.9999 42.5758L16.212 43.788C16.2989 43.8754 16.4022 43.9447 16.5159 43.992C16.6297 44.0393 16.7517 44.0637 16.8749 44.0637C16.9981 44.0637 17.12 44.0393 17.2338 43.992C17.3475 43.9447 17.4508 43.8754 17.5377 43.788C17.6248 43.701 17.6939 43.5977 17.7411 43.484C17.7883 43.3702 17.8125 43.2483 17.8125 43.1252C17.8125 43.0021 17.7883 42.8801 17.7411 42.7664C17.6939 42.6527 17.6248 42.5494 17.5377 42.4624L16.3255 41.2502L17.8124 39.7633L19.962 41.913C20.0489 42.0004 20.1522 42.0697 20.2659 42.117C20.3797 42.1643 20.5017 42.1887 20.6249 42.1887C20.7481 42.1887 20.87 42.1643 20.9838 42.117C21.0975 42.0697 21.2008 42.0004 21.2877 41.913C21.3748 41.826 21.4439 41.7227 21.4911 41.609C21.5383 41.4952 21.5625 41.3733 21.5625 41.2502C21.5625 41.1271 21.5383 41.0051 21.4911 40.8914C21.4439 40.7777 21.3748 40.6744 21.2877 40.5874L19.138 38.4377L20.6249 36.9508L24.6495 40.9755C24.8324 41.1583 25.0724 41.2502 25.3124 41.2502C25.5524 41.2502 25.7952 41.1611 25.9752 40.9755L40.7624 25.7843C41.1336 25.3118 41.3061 25.3436 40.9067 24.6789C40.8427 24.5745 40.7739 24.4732 40.7005 24.3752L52.2261 12.8505C52.3132 12.7635 52.3824 12.6602 52.4295 12.5465C52.4767 12.4327 52.501 12.3108 52.501 12.1877C52.501 12.0646 52.4767 11.9426 52.4295 11.8289C52.3824 11.7152 52.3132 11.6119 52.2261 11.5249L40.9752 0.274876ZM43.4549 5.40581L32.593 16.2677L31.7595 15.4342L42.5858 4.53769L43.4549 5.40581ZM44.7805 6.73144L45.6814 7.63238L34.8195 18.4942L33.9195 17.5942L44.7805 6.73144ZM36.1461 19.8199L47.0061 8.958L47.9633 9.91519L37.0658 20.7414L36.1461 19.8199ZM40.3124 2.26331L41.2592 3.21019L30.433 14.1077L29.4505 13.1252L40.3124 2.26331ZM12.1874 42.7371L9.76298 40.3127L11.2499 38.8258L13.6742 41.2502L12.1874 42.7371ZM14.9999 39.9246L12.5755 37.5002L14.0624 36.0133L16.4867 38.4377L14.9999 39.9246ZM17.8124 37.1121L15.388 34.6877L16.8749 33.2008L19.2992 35.6252L17.8124 37.1121ZM25.3124 38.9871L13.513 27.1877L27.1874 13.5133L38.9867 25.3127L25.3124 38.9871ZM39.3749 23.0496L38.3924 22.0671L49.2899 11.2408L50.2367 12.1877L39.3749 23.0496Z" fill="#2E3234"/>
</svg>
