<svg width="192" height="183" viewBox="0 0 192 183" fill="none" xmlns="http://www.w3.org/2000/svg">
<path opacity="0.8" d="M96.4776 69.7143H77.3731V43.5714H48.7164V26.1429H77.3731V0H96.4776V26.1429H125.134V43.5714H96.4776M134.687 148.143C145.194 148.143 153.791 155.986 153.791 165.571C153.791 175.157 145.194 183 134.687 183C124.179 183 115.582 175.157 115.582 165.571C115.582 155.986 124.179 148.143 134.687 148.143ZM39.1642 148.143C49.6716 148.143 58.2687 155.986 58.2687 165.571C58.2687 175.157 49.6716 183 39.1642 183C28.6567 183 20.0597 175.157 20.0597 165.571C20.0597 155.986 28.6567 148.143 39.1642 148.143ZM132.776 120.257V119.386L124.179 104.571H53.4925C46.806 104.571 40.1194 101.086 37.2537 95.8571L0 34.8571L16.2388 26.1429L53.4925 87.1429H120.358L160.478 8.71429H192V26.1429H172.896L138.507 92.3714L151.881 113.286C152.836 115.9 153.791 118.514 153.791 122C153.791 131.586 145.194 139.429 134.687 139.429H20.0597V122H130.866C131.821 122 132.776 121.129 132.776 120.257Z" fill="white"/>
</svg>
