<svg width="93" height="93" viewBox="0 0 93 93" fill="none" xmlns="http://www.w3.org/2000/svg">
<path d="M84.2812 27.7271H77.0156V43.7114C77.0156 44.0968 76.8625 44.4664 76.59 44.7389C76.3175 45.0115 75.9479 45.1646 75.5625 45.1646H47.9531V59.6958H45.0469V45.1646H17.4375C17.0521 45.1646 16.6825 45.0115 16.41 44.7389C16.1375 44.4664 15.9844 44.0968 15.9844 43.7114V27.7271H8.71875C8.33336 27.7271 7.96375 27.574 7.69123 27.3014C7.41872 27.0289 7.26562 26.6593 7.26562 26.2739V8.83643C7.26562 8.45103 7.41872 8.08143 7.69123 7.80891C7.96375 7.5364 8.33336 7.3833 8.71875 7.3833H26.1562C26.5416 7.3833 26.9113 7.5364 27.1838 7.80891C27.4563 8.08143 27.6094 8.45103 27.6094 8.83643V26.2739C27.6094 26.6593 27.4563 27.0289 27.1838 27.3014C26.9113 27.574 26.5416 27.7271 26.1562 27.7271H18.8906V42.2583H45.0469V27.7271H37.7812C37.3959 27.7271 37.0262 27.574 36.7537 27.3014C36.4812 27.0289 36.3281 26.6593 36.3281 26.2739V8.83643C36.3281 8.45103 36.4812 8.08143 36.7537 7.80891C37.0262 7.5364 37.3959 7.3833 37.7812 7.3833H55.2188C55.6041 7.3833 55.9738 7.5364 56.2463 7.80891C56.5188 8.08143 56.6719 8.45103 56.6719 8.83643V26.2739C56.6719 26.6593 56.5188 27.0289 56.2463 27.3014C55.9738 27.574 55.6041 27.7271 55.2188 27.7271H47.9531V42.2583H74.1094V27.7271H66.8438C66.4584 27.7271 66.0887 27.574 65.8162 27.3014C65.5437 27.0289 65.3906 26.6593 65.3906 26.2739V8.83643C65.3906 8.45103 65.5437 8.08143 65.8162 7.80891C66.0887 7.5364 66.4584 7.3833 66.8438 7.3833H84.2812C84.6666 7.3833 85.0363 7.5364 85.3088 7.80891C85.5813 8.08143 85.7344 8.45103 85.7344 8.83643V26.2739C85.7344 26.6593 85.5813 27.0289 85.3088 27.3014C85.0363 27.574 84.6666 27.7271 84.2812 27.7271ZM24.7031 10.2896H10.1719V24.8208H24.7031V10.2896ZM53.7656 10.2896H39.2344V24.8208H53.7656V10.2896ZM82.8281 10.2896H68.2969V24.8208H82.8281V10.2896Z" fill="#2E3234"/>
<path d="M27.6094 85.6167H65.3906V59.4604H27.6094V85.6167ZM62.4844 82.7104H30.5156V62.3667H62.4844V82.7104Z" fill="#2E3234"/>
<path d="M56.6719 76.8979H59.5781V79.8042H56.6719V76.8979ZM50.8594 76.8979H53.7656V79.8042H50.8594V76.8979ZM45.0469 76.8979H47.9531V79.8042H45.0469V76.8979Z" fill="#047AED"/>
<path d="M63.9375 71.0854H39.2344V73.9917H63.9375V71.0854ZM34.875 71.0854H29.0625V73.9917H34.875V71.0854Z" fill="#2E3234"/>
<path d="M56.6719 65.2729H59.5781V68.1792H56.6719V65.2729ZM50.8594 65.2729H53.7656V68.1792H50.8594V65.2729ZM45.0469 65.2729H47.9531V68.1792H45.0469V65.2729Z" fill="#047AED"/>
</svg>
