<svg width="67" height="67" viewBox="0 0 67 67" fill="none" xmlns="http://www.w3.org/2000/svg">
<path d="M10.5703 22.8115H41.9766C46.0175 22.8115 49.3047 19.5233 49.3047 15.4834C49.3047 11.4435 46.0175 8.15527 41.9766 8.15527H10.5703C6.52938 8.15527 3.24219 11.4425 3.24219 15.4834C3.24219 19.5243 6.52938 22.8115 10.5703 22.8115ZM10.5703 10.249H41.9766C44.8628 10.249 47.2109 12.5972 47.2109 15.4834C47.2109 18.3696 44.8628 20.7178 41.9766 20.7178H10.5703C7.68408 20.7178 5.33594 18.3696 5.33594 15.4834C5.33594 12.5972 7.68408 10.249 10.5703 10.249Z" fill="#2E3234"/>
<path d="M12.6641 18.624C14.3956 18.624 15.8047 17.2149 15.8047 15.4834C15.8047 13.7519 14.3956 12.3428 12.6641 12.3428C10.9325 12.3428 9.52344 13.7519 9.52344 15.4834C9.52344 17.2149 10.9325 18.624 12.6641 18.624ZM12.6641 14.4365C12.8714 14.4363 13.0742 14.4976 13.2467 14.6127C13.4191 14.7278 13.5536 14.8914 13.6331 15.0829C13.7125 15.2745 13.7333 15.4853 13.6929 15.6886C13.6525 15.892 13.5527 16.0788 13.4061 16.2254C13.2595 16.3721 13.0727 16.4719 12.8693 16.5123C12.6659 16.5527 12.4551 16.5318 12.2636 16.4524C12.0721 16.373 11.9084 16.2385 11.7934 16.066C11.6783 15.8935 11.617 15.6907 11.6172 15.4834C11.6172 14.9055 12.0872 14.4365 12.6641 14.4365ZM31.5078 16.5303H41.9766C42.2542 16.5303 42.5205 16.42 42.7168 16.2237C42.9131 16.0273 43.0234 15.761 43.0234 15.4834C43.0234 15.2058 42.9131 14.9395 42.7168 14.7431C42.5205 14.5468 42.2542 14.4365 41.9766 14.4365H31.5078C31.2302 14.4365 30.9639 14.5468 30.7676 14.7431C30.5712 14.9395 30.4609 15.2058 30.4609 15.4834C30.4609 15.761 30.5712 16.0273 30.7676 16.2237C30.9639 16.42 31.2302 16.5303 31.5078 16.5303Z" fill="#047AED"/>
<path d="M10.5703 39.5615H41.9766C46.0175 39.5615 49.3047 36.2733 49.3047 32.2334C49.3047 28.1935 46.0175 24.9053 41.9766 24.9053H10.5703C6.52938 24.9053 3.24219 28.1925 3.24219 32.2334C3.24219 36.2743 6.52938 39.5615 10.5703 39.5615ZM10.5703 26.999H41.9766C44.8628 26.999 47.2109 29.3472 47.2109 32.2334C47.2109 35.1196 44.8628 37.4678 41.9766 37.4678H10.5703C7.68408 37.4678 5.33594 35.1196 5.33594 32.2334C5.33594 29.3472 7.68408 26.999 10.5703 26.999Z" fill="#2E3234"/>
<path d="M12.6641 35.374C14.3956 35.374 15.8047 33.9649 15.8047 32.2334C15.8047 30.5019 14.3956 29.0928 12.6641 29.0928C10.9325 29.0928 9.52344 30.5019 9.52344 32.2334C9.52344 33.9649 10.9325 35.374 12.6641 35.374ZM12.6641 31.1865C12.8714 31.1863 13.0742 31.2476 13.2467 31.3627C13.4191 31.4778 13.5536 31.6414 13.6331 31.8329C13.7125 32.0245 13.7333 32.2353 13.6929 32.4386C13.6525 32.642 13.5527 32.8288 13.4061 32.9754C13.2595 33.1221 13.0727 33.2219 12.8693 33.2623C12.6659 33.3027 12.4551 33.2818 12.2636 33.2024C12.0721 33.123 11.9084 32.9885 11.7934 32.816C11.6783 32.6435 11.617 32.4407 11.6172 32.2334C11.6172 31.6555 12.0872 31.1865 12.6641 31.1865ZM31.5078 33.2803H41.9766C42.2542 33.2803 42.5205 33.17 42.7168 32.9736C42.9131 32.7773 43.0234 32.511 43.0234 32.2334C43.0234 31.9557 42.9131 31.6895 42.7168 31.4931C42.5205 31.2968 42.2542 31.1865 41.9766 31.1865H31.5078C31.2302 31.1865 30.9639 31.2968 30.7676 31.4931C30.5712 31.6895 30.4609 31.9557 30.4609 32.2334C30.4609 32.511 30.5712 32.7773 30.7676 32.9736C30.9639 33.17 31.2302 33.2803 31.5078 33.2803Z" fill="#047AED"/>
<path d="M55.4455 43.8535C53.3141 43.8535 52.0505 44.8637 51.0026 45.9567C50.9942 45.9654 50.9862 45.9745 50.9785 45.9839L42.5826 54.7462L42.5617 54.7693C41.5315 55.8381 40.5014 56.549 38.8452 56.549C35.7329 56.549 33.4748 54.0846 33.4748 50.6896C33.4748 47.2946 35.7329 44.8303 38.8452 44.8303C40.4972 44.8303 41.5273 45.5379 42.5564 46.6037C42.563 46.6123 42.57 46.6207 42.5774 46.6288L46.3629 50.5232L47.059 50.0123L43.3175 45.9902C43.3082 45.978 43.298 45.9665 43.2871 45.9556C42.2403 44.8637 40.9756 43.8546 38.8452 43.8546C35.2262 43.8546 32.498 46.7931 32.498 50.6896C32.498 54.5861 35.2262 57.5257 38.8452 57.5257C40.9767 57.5257 42.2403 56.5155 43.2882 55.4225C43.2953 55.415 43.3023 55.4073 43.3091 55.3995L51.7082 46.633C51.7166 46.6246 51.7247 46.6159 51.7323 46.6068C52.7614 45.539 53.7915 44.8303 55.4455 44.8303C58.5579 44.8303 60.816 47.2946 60.816 50.6896C60.816 54.0846 58.5579 56.549 55.4455 56.549C53.7915 56.549 52.7614 55.8402 51.7323 54.7724C51.7256 54.7649 51.7186 54.7575 51.7113 54.7504L47.059 50.0123C46.5628 50.4624 47.0747 49.8553 46.3629 50.5232L50.9743 55.3901L51.0016 55.4215C52.0495 56.5144 53.3131 57.5257 55.4455 57.5257C59.0646 57.5257 61.7927 54.5861 61.7927 50.6896C61.7927 46.7931 59.0646 43.8535 55.4455 43.8535Z" fill="#2E3234"/>
<path d="M46.3629 50.5232L42.5774 46.6288C42.57 46.6207 42.563 46.6123 42.5564 46.6037C41.5273 45.5379 40.4972 44.8303 38.8452 44.8303C35.7329 44.8303 33.4748 47.2946 33.4748 50.6896C33.4748 54.0846 35.7329 56.549 38.8452 56.549C40.5014 56.549 41.5315 55.8381 42.5617 54.7693L42.5826 54.7462L50.9785 45.9839C50.9862 45.9745 50.9942 45.9654 51.0026 45.9567C52.0505 44.8637 53.3141 43.8535 55.4455 43.8535C59.0646 43.8535 61.7927 46.7931 61.7927 50.6896C61.7927 54.5861 59.0646 57.5257 55.4455 57.5257C53.3131 57.5257 52.0495 56.5144 51.0016 55.4215L50.9743 55.3901L46.3629 50.5232ZM46.3629 50.5232L47.059 50.0123M46.3629 50.5232C47.0747 49.8553 46.5628 50.4624 47.059 50.0123M47.059 50.0123L43.3175 45.9902C43.3082 45.978 43.298 45.9665 43.2871 45.9556C42.2403 44.8637 40.9756 43.8546 38.8452 43.8546C35.2262 43.8546 32.498 46.7931 32.498 50.6896C32.498 54.5861 35.2262 57.5257 38.8452 57.5257C40.9767 57.5257 42.2403 56.5155 43.2882 55.4225C43.2953 55.415 43.3023 55.4073 43.3091 55.3995L51.7082 46.633C51.7166 46.6246 51.7247 46.6159 51.7323 46.6068C52.7614 45.539 53.7915 44.8303 55.4455 44.8303C58.5579 44.8303 60.816 47.2946 60.816 50.6896C60.816 54.0846 58.5579 56.549 55.4455 56.549C53.7915 56.549 52.7614 55.8402 51.7323 54.7724C51.7256 54.7649 51.7186 54.7575 51.7113 54.7504L47.059 50.0123Z" stroke="#2E3234" stroke-width="1.99126"/>
<path d="M29.8579 54.2178H10.5703C7.68408 54.2178 5.33594 51.8696 5.33594 48.9834C5.33594 46.0972 7.68408 43.749 10.5703 43.749H32.7641C33.0417 43.749 33.308 43.6387 33.5043 43.4424C33.7006 43.2461 33.8109 42.9798 33.8109 42.7021C33.8109 42.4245 33.7006 42.1582 33.5043 41.9619C33.308 41.7656 33.0417 41.6553 32.7641 41.6553H10.5703C6.52938 41.6553 3.24219 44.9435 3.24219 48.9834C3.24219 53.0233 6.52938 56.3115 10.5703 56.3115H29.8579C30.1356 56.3115 30.4019 56.2012 30.5982 56.0049C30.7945 55.8086 30.9048 55.5423 30.9048 55.2646C30.9048 54.987 30.7945 54.7207 30.5982 54.5244C30.4019 54.3281 30.1356 54.2178 29.8579 54.2178Z" fill="#2E3234"/>
<path d="M9.52344 48.9834C9.52344 50.7149 10.9325 52.124 12.6641 52.124C14.3956 52.124 15.8047 50.7149 15.8047 48.9834C15.8047 47.2519 14.3956 45.8428 12.6641 45.8428C10.9325 45.8428 9.52344 47.2519 9.52344 48.9834ZM13.7109 48.9834C13.6989 49.2529 13.5833 49.5075 13.3883 49.6939C13.1933 49.8804 12.9339 49.9845 12.6641 49.9845C12.3942 49.9845 12.1348 49.8804 11.9398 49.6939C11.7448 49.5075 11.6292 49.2529 11.6172 48.9834C11.6292 48.7138 11.7448 48.4593 11.9398 48.2729C12.1348 48.0864 12.3942 47.9823 12.6641 47.9823C12.9339 47.9823 13.1933 48.0864 13.3883 48.2729C13.5833 48.4593 13.6989 48.7138 13.7109 48.9834Z" fill="#047AED"/>
</svg>
