<svg width="32" height="31" viewBox="0 0 32 31" fill="none" xmlns="http://www.w3.org/2000/svg">
<path d="M18.667 -4.19617e-05C21.2443 -4.19617e-05 23.3806 2.10965 22.8685 4.6356C22.5713 6.10211 22.1329 7.54014 21.5575 8.92924C20.3849 11.7602 18.6662 14.3324 16.4995 16.4991C14.3328 18.6658 11.7605 20.3845 8.9296 21.5571C7.5405 22.1325 6.10247 22.5709 4.63597 22.8682C2.11002 23.3802 0.000324249 21.2439 0.000324249 18.6666V12.9985C0.000324249 10.9742 1.7019 9.39747 3.57204 8.62283C4.70441 8.15379 5.73331 7.4663 6.59999 6.59962C7.46667 5.73294 8.15416 4.70404 8.6232 3.57167C9.39783 1.70154 10.9746 -4.19617e-05 12.9988 -4.19617e-05H18.667Z" fill="#E7E7EA"/>
<path fill-rule="evenodd" clip-rule="evenodd" d="M19.3667 21.5181C18.9183 22.1605 18.4747 22.7792 18.0603 23.3565L18.0117 23.4242C17.6956 23.8649 17.3977 24.2801 17.1305 24.6602C16.8498 24.2607 16.535 23.8212 16.2008 23.3565L16.1414 23.2739C15.744 22.7203 15.3203 22.13 14.8943 21.5181C14.8761 21.4868 14.8542 21.4567 14.8311 21.4279C12.996 18.7905 11.1293 15.7962 11.1293 13.8601C11.1293 12.1532 11.8014 10.6067 12.8867 9.48681C13.972 8.36695 15.4729 7.67593 17.1308 7.67593C18.7886 7.67593 20.2881 8.36849 21.3748 9.48681C22.4614 10.6052 23.1322 12.1518 23.1322 13.8601C23.1322 15.7963 21.2654 18.7907 19.4304 21.4279C19.4073 21.4567 19.3862 21.4855 19.3667 21.5181ZM19.0692 10.4022C18.5733 9.89126 17.8879 9.57567 17.1307 9.57567C16.3736 9.57567 15.6881 9.89123 15.1922 10.4022C14.6964 10.9132 14.3901 11.6195 14.3901 12.3997C14.3901 13.1799 14.6964 13.8863 15.1922 14.3972C15.6881 14.9082 16.3736 15.2238 17.1307 15.2238C17.8879 15.2238 18.5733 14.9082 19.0692 14.3972C19.565 13.8862 19.8713 13.1799 19.8713 12.3997C19.8713 11.6195 19.5651 10.9132 19.0692 10.4022Z" fill="#E1442A"/>
<path fill-rule="evenodd" clip-rule="evenodd" d="M17.1319 10.9194C17.5281 10.9194 17.8879 11.0848 18.1479 11.3528C18.408 11.6207 18.5685 11.9902 18.5685 12.3997C18.5685 12.808 18.408 13.1787 18.1479 13.4467C17.8879 13.7147 17.5293 13.88 17.1319 13.88C16.7357 13.88 16.376 13.7147 16.1159 13.4467C15.8558 13.1787 15.6954 12.8092 15.6954 12.3997C15.6954 11.9915 15.8558 11.6208 16.1159 11.3528C16.376 11.0847 16.7345 10.9194 17.1319 10.9194ZM19.0692 10.4022C18.5733 9.89126 17.8879 9.57567 17.1307 9.57567C16.3736 9.57567 15.6881 9.89123 15.1922 10.4022C14.6964 10.9132 14.3901 11.6195 14.3901 12.3997C14.3901 13.1799 14.6964 13.8863 15.1922 14.3972C15.6881 14.9082 16.3736 15.2238 17.1307 15.2238C17.8879 15.2238 18.5733 14.9082 19.0692 14.3972C19.565 13.8862 19.8713 13.1799 19.8713 12.3997C19.8713 11.6195 19.5651 10.9132 19.0692 10.4022ZM14.0037 22.535C14.3999 23.0998 14.7901 23.6433 15.1571 24.1543C15.7088 24.922 16.2059 25.6146 16.5936 26.2006C16.7966 26.5062 17.2013 26.5851 17.4978 26.376C17.5707 26.3246 17.6303 26.2608 17.6752 26.1894C18.0617 25.6058 18.5564 24.917 19.1045 24.1543L19.1861 24.0404C19.5291 23.5617 19.8909 23.057 20.2578 22.535L21.1826 21.1924C22.8853 18.6491 24.4386 15.8938 24.4386 13.8613C24.4386 11.7822 23.6206 9.90119 22.2983 8.53863C20.9761 7.17608 19.1507 6.33325 17.133 6.33325C15.1154 6.33325 13.29 7.17608 11.9677 8.53863C10.6454 9.90119 9.82753 11.7823 9.82753 13.8613C9.82753 15.8926 11.382 18.6489 13.0835 21.1924L14.0037 22.535ZM18.0603 23.3565C18.4747 22.7792 18.9183 22.1605 19.3667 21.5181C19.3862 21.4855 19.4073 21.4567 19.4304 21.4279C21.2654 18.7907 23.1322 15.7963 23.1322 13.8601C23.1322 12.1518 22.4614 10.6052 21.3748 9.48681C20.2881 8.36849 18.7886 7.67593 17.1308 7.67593C15.4729 7.67593 13.972 8.36695 12.8867 9.48681C11.8014 10.6067 11.1293 12.1532 11.1293 13.8601C11.1293 15.7962 12.996 18.7905 14.8311 21.4279C14.8542 21.4567 14.8761 21.4868 14.8943 21.5181C15.3203 22.13 15.744 22.7203 16.1414 23.2739L16.2008 23.3565C16.535 23.8212 16.8498 24.2607 17.1305 24.6602C17.3977 24.2801 17.6956 23.8649 18.0117 23.4242L18.0603 23.3565Z" fill="#E1442A"/>
<path d="M10.2374 22.535L14.0037 22.535L13.0835 21.1924H9.92242V21.1937C9.73039 21.1937 9.53838 21.2826 9.41077 21.4504L3.49441 29.2211C3.39475 29.3389 3.33398 29.4929 3.33398 29.662C3.33398 30.0327 3.6257 30.3333 3.98542 30.3333H30.6828V30.332C30.8238 30.3333 30.966 30.2857 31.0851 30.1892C31.3683 29.9601 31.4169 29.538 31.1945 29.2475L25.2794 21.478C25.1615 21.3052 24.9658 21.1925 24.7458 21.1925L21.1826 21.1924L20.2578 22.535H24.43L29.3436 28.9897H5.32381L10.2374 22.535Z" fill="#396FB6"/>
</svg>
