<svg width="31" height="31" viewBox="0 0 31 31" fill="none" xmlns="http://www.w3.org/2000/svg">
<path d="M18.667 1.90735e-05C21.2443 1.90735e-05 23.3806 2.10971 22.8685 4.63566C22.5713 6.10217 22.1329 7.5402 21.5575 8.9293C20.3849 11.7602 18.6662 14.3325 16.4995 16.4992C14.3328 18.6659 11.7605 20.3846 8.9296 21.5572C7.5405 22.1326 6.10247 22.571 4.63597 22.8682C2.11002 23.3803 0.000324249 21.244 0.000324249 18.6667V12.9985C0.000324249 10.9743 1.7019 9.39753 3.57204 8.62289C4.70441 8.15385 5.73331 7.46636 6.59999 6.59968C7.46667 5.733 8.15416 4.7041 8.6232 3.57173C9.39783 1.7016 10.9746 1.90735e-05 12.9988 1.90735e-05H18.667Z" fill="#E7E7EA"/>
<path d="M22.834 8.33337H7.83398C7.43616 8.33337 7.05463 8.49352 6.77332 8.77857C6.49202 9.06362 6.33398 9.45024 6.33398 9.85337V15.1734C6.33398 20.1817 8.72648 23.217 10.7337 24.8814C12.8955 26.6731 15.0462 27.282 15.1399 27.3067C15.2688 27.3423 15.4048 27.3423 15.5337 27.3067C15.6274 27.282 17.7752 26.6731 19.9399 24.8814C21.9415 23.217 24.334 20.1817 24.334 15.1734V9.85337C24.334 9.45024 24.1759 9.06362 23.8946 8.77857C23.6133 8.49352 23.2318 8.33337 22.834 8.33337ZM14.584 13.6534C14.584 13.4518 14.663 13.2585 14.8037 13.116C14.9443 12.9734 15.1351 12.8934 15.334 12.8934C15.5329 12.8934 15.7237 12.9734 15.8643 13.116C16.005 13.2585 16.084 13.4518 16.084 13.6534V17.4533C16.084 17.6549 16.005 17.8482 15.8643 17.9907C15.7237 18.1333 15.5329 18.2133 15.334 18.2133C15.1351 18.2133 14.9443 18.1333 14.8037 17.9907C14.663 17.8482 14.584 17.6549 14.584 17.4533V13.6534ZM15.334 22.0133C15.1115 22.0133 14.894 21.9465 14.709 21.8212C14.524 21.6959 14.3798 21.5179 14.2946 21.3096C14.2095 21.1013 14.1872 20.8721 14.2306 20.6509C14.274 20.4298 14.3812 20.2267 14.5385 20.0672C14.6958 19.9078 14.8963 19.7992 15.1145 19.7552C15.3327 19.7113 15.5589 19.7338 15.7645 19.8201C15.9701 19.9064 16.1458 20.0525 16.2694 20.24C16.393 20.4275 16.459 20.6479 16.459 20.8733C16.459 21.1757 16.3405 21.4656 16.1295 21.6794C15.9185 21.8932 15.6324 22.0133 15.334 22.0133Z" fill="#E1442A"/>
</svg>
