<svg width="31" height="31" viewBox="0 0 31 31" fill="none" xmlns="http://www.w3.org/2000/svg">
<path d="M18.667 -4.19617e-05C21.2443 -4.19617e-05 23.3806 2.10965 22.8685 4.6356C22.5713 6.10211 22.1329 7.54014 21.5575 8.92924C20.3849 11.7602 18.6662 14.3324 16.4995 16.4991C14.3328 18.6658 11.7605 20.3845 8.9296 21.5571C7.5405 22.1325 6.10247 22.5709 4.63597 22.8682C2.11002 23.3802 0.000324249 21.2439 0.000324249 18.6666V12.9985C0.000324249 10.9742 1.7019 9.39747 3.57204 8.62283C4.70441 8.15379 5.73331 7.4663 6.59999 6.59962C7.46667 5.73294 8.15416 4.70404 8.6232 3.57167C9.39783 1.70154 10.9746 -4.19617e-05 12.9988 -4.19617e-05H18.667Z" fill="#EEEEF0"/>
<path d="M21.2734 7.80051C19.6927 6.20965 17.5933 5.33325 15.3591 5.33325C13.1259 5.33325 11.0274 6.20965 9.44857 7.80051C7.86883 9.39138 6.99902 11.5069 7 13.7581C7 16.0084 7.86877 18.1238 9.44857 19.7147C11.0274 21.3065 13.1268 22.182 15.3601 22.182C17.5933 22.182 19.6928 21.3066 21.2735 19.7147C24.5326 16.4295 24.5326 11.0848 21.2735 7.80045L21.2734 7.80051ZM15.361 20.7165C13.5166 20.7165 11.7828 19.9933 10.4785 18.6781C9.17331 17.3638 8.45557 15.6169 8.45557 13.7583C8.45557 11.8998 9.17325 10.1519 10.4785 8.83765C11.7828 7.5234 13.5165 6.79925 15.36 6.79925C17.2044 6.79925 18.9404 7.5234 20.2456 8.83765C22.9366 11.5512 22.9366 15.9656 20.2456 18.6784C18.9401 19.9934 17.2054 20.7165 15.3609 20.7165L15.361 20.7165Z" fill="#396FB6"/>
<path d="M10.9395 13.1721C10.9929 12.7716 10.7126 12.403 10.3129 12.3492C9.92318 12.2954 9.54975 12.5778 9.49733 12.9805C9.25481 14.8313 9.86785 16.6505 11.1789 17.9728C11.3204 18.1153 11.5066 18.1878 11.6928 18.1878C11.8781 18.1878 12.0652 18.1165 12.2067 17.9737C12.4909 17.6874 12.4909 17.2234 12.2067 16.9371C11.2198 15.9392 10.758 14.5672 10.9395 13.1721Z" fill="#FDB415"/>
<path d="M29.1118 23.0372C27.6475 21.8412 24.9884 19.6339 23.4262 18.3333C23.1062 18.8043 22.7455 19.2548 22.3305 19.6729C21.9174 20.0882 21.4714 20.4555 21.001 20.7821C22.2908 22.3553 24.4812 25.0327 25.6674 26.5072C26.2997 27.2958 27.0251 27.7334 27.7649 27.7724C27.7989 27.7744 27.8347 27.7753 27.8715 27.7753C28.3205 27.7753 28.9508 27.6267 29.587 26.9857C30.2746 26.2928 30.3909 25.6061 30.3678 25.1517C30.3269 24.4062 29.8933 23.6743 29.1118 23.0372Z" fill="#FDB415"/>
</svg>
