<svg width="31" height="32" viewBox="0 0 31 32" fill="none" xmlns="http://www.w3.org/2000/svg">
<path d="M18.667 -4.19617e-05C21.2443 -4.19617e-05 23.3806 2.10965 22.8685 4.6356C22.5713 6.10211 22.1329 7.54014 21.5575 8.92924C20.3849 11.7602 18.6662 14.3324 16.4995 16.4991C14.3328 18.6658 11.7605 20.3845 8.9296 21.5571C7.5405 22.1325 6.10247 22.5709 4.63597 22.8682C2.11002 23.3802 0.000324249 21.2439 0.000324249 18.6666V12.9985C0.000324249 10.9742 1.7019 9.39747 3.57204 8.62283C4.70441 8.15379 5.73331 7.4663 6.59999 6.59962C7.46667 5.73294 8.15416 4.70404 8.6232 3.57167C9.39783 1.70154 10.9746 -4.19617e-05 12.9988 -4.19617e-05H18.667Z" fill="#E7E7EA"/>
<path d="M17.0891 12.3818V7.97876C15.3109 8.24815 13.741 9.91049 12.6914 12.3818H17.0891Z" fill="#396FB6"/>
<path d="M17.0906 19.1489V13.4011H12.3053C11.7368 15.0785 11.3891 17.0417 11.3408 19.1486L17.0906 19.1489Z" fill="#069857"/>
<path d="M18.1094 26.9347H22.5063C21.4575 29.4025 19.884 31.0648 18.1094 31.3317V26.9347Z" fill="#E1442A"/>
<path d="M18.1094 20.1683H23.8597C23.8129 22.2755 23.4617 24.2375 22.8949 25.9138L18.1094 25.9141V20.1683Z" fill="#FDB415"/>
<path d="M23.8597 19.1475H18.1094V13.4019H22.8949C23.4617 15.0782 23.8129 17.0402 23.8597 19.1475Z" fill="#069857"/>
<path d="M22.5063 12.3811H18.1094V7.97937C19.8889 8.24648 21.4575 9.90882 22.5063 12.3811Z" fill="#396FB6"/>
<path d="M23.6156 12.3818H26.7784C25.3468 10.5794 23.3985 9.20603 21.1572 8.49036C22.1438 9.43628 22.9838 10.7695 23.6156 12.3818Z" fill="#396FB6"/>
<path d="M24.8777 20.1676C24.8324 22.2635 24.5107 24.2141 23.9727 25.9151H27.4999C28.564 24.2378 29.2146 22.2747 29.3057 20.1676H24.8777Z" fill="#FDB415"/>
<path d="M17.0906 20.1676H11.3408C11.3894 22.2747 11.7373 24.238 12.3063 25.9151L17.0906 25.9154V20.1676Z" fill="#FDB415"/>
<path d="M23.6141 26.9341C22.9825 28.5446 22.1431 29.8768 21.1572 30.822C23.3968 30.1069 25.3442 28.7347 26.7756 26.9341H23.6141Z" fill="#E1442A"/>
<path d="M11.5817 12.3812H8.4209C9.85374 10.5783 11.8018 9.20644 14.04 8.48999C13.0568 9.43591 12.214 10.7704 11.5817 12.3812Z" fill="#396FB6"/>
<path d="M10.3223 19.1475H5.89258C5.98153 17.0404 6.63239 15.0784 7.69549 13.4019H11.2264C10.6876 15.1016 10.3646 17.0544 10.3223 19.1475Z" fill="#069857"/>
<path d="M11.226 25.9139H7.70004C6.63694 24.2376 5.98607 22.2756 5.89258 20.1685H10.3223C10.3645 22.2613 10.6875 24.214 11.226 25.9139Z" fill="#FDB415"/>
<path d="M11.5876 26.9347C12.2196 28.5455 13.0578 29.8754 14.0413 30.8213C11.8031 30.1049 9.85504 28.7327 8.42676 26.9347H11.5876Z" fill="#E1442A"/>
<path d="M17.0898 31.3335V26.934H12.6934C13.743 29.4035 15.3126 31.0643 17.0898 31.3335Z" fill="#E1442A"/>
<path d="M23.9746 13.4008C24.5124 15.1018 24.8336 17.0523 24.8786 19.1483H29.3064C29.2159 17.0414 28.566 15.0781 27.5027 13.4008H23.9746Z" fill="#069857"/>
</svg>
