<svg width="36" height="35" viewBox="0 0 36 35" fill="none" xmlns="http://www.w3.org/2000/svg">
<path d="M18.667 -1.14441e-05C21.2443 -1.14441e-05 23.3806 2.10968 22.8685 4.63563C22.5713 6.10214 22.1329 7.54017 21.5575 8.92927C20.3849 11.7602 18.6662 14.3324 16.4995 16.4991C14.3328 18.6658 11.7605 20.3846 8.9296 21.5572C7.5405 22.1326 6.10247 22.5709 4.63597 22.8682C2.11002 23.3802 0.000324249 21.244 0.000324249 18.6667V12.9985C0.000324249 10.9743 1.7019 9.3975 3.57204 8.62286C4.70441 8.15382 5.73331 7.46633 6.59999 6.59965C7.46667 5.73297 8.15416 4.70407 8.6232 3.5717C9.39783 1.70157 10.9746 -1.14441e-05 12.9988 -1.14441e-05H18.667Z" fill="#E7E7EA"/>
<path d="M13.5462 27.0997H15.9294C16.2639 27.0997 16.5346 27.3725 16.5346 27.7096V30.1112C16.5346 30.4483 16.2639 30.7211 15.9294 30.7211H13.5462C13.2117 30.7211 12.941 30.4483 12.941 30.1112V27.7096C12.941 27.3725 13.2117 27.0997 13.5462 27.0997Z" fill="#FDB415"/>
<path d="M17.8386 27.0997H20.2218C20.5564 27.0997 20.8271 27.3725 20.8271 27.7096V30.1112C20.8271 30.4483 20.5563 30.7211 20.2218 30.7211H17.8386C17.5041 30.7211 17.2334 30.4483 17.2334 30.1112V27.7096C17.2334 27.3725 17.5041 27.0997 17.8386 27.0997Z" fill="#FDB415"/>
<path d="M9.25377 27.0997H11.6369C11.9715 27.0997 12.2422 27.3725 12.2422 27.7096V30.1112C12.2422 30.4483 11.9715 30.7211 11.6369 30.7211H9.25377C8.91922 30.7211 8.64852 30.4483 8.64852 30.1112V27.7096C8.64852 27.3725 8.91923 27.0997 9.25377 27.0997Z" fill="#FDB415"/>
<path d="M9.25347 22.7327H11.6366C11.9712 22.7327 12.2419 23.0055 12.2419 23.3426V25.7442C12.2419 26.0813 11.9712 26.3541 11.6366 26.3541H9.25347C8.91892 26.3541 8.64822 26.0813 8.64822 25.7442V23.3426C8.64822 23.0055 8.91892 22.7327 9.25347 22.7327Z" fill="#069857"/>
<path d="M13.5459 22.7327H15.9291C16.2636 22.7327 16.5343 23.0055 16.5343 23.3426V25.7442C16.5343 26.0813 16.2636 26.3541 15.9291 26.3541H13.5459C13.2113 26.3541 12.9406 26.0813 12.9406 25.7442V23.3426C12.9406 23.0055 13.2114 22.7327 13.5459 22.7327Z" fill="#069857"/>
<path d="M17.8383 22.7327H20.2215C20.5561 22.7327 20.8268 23.0055 20.8268 23.3426V25.7442C20.8268 26.0813 20.556 26.3541 20.2215 26.3541H17.8383C17.5038 26.3541 17.2331 26.0813 17.2331 25.7442V23.3426C17.2331 23.0055 17.5038 22.7327 17.8383 22.7327Z" fill="#069857"/>
<path d="M24.6831 22.7562C24.6287 22.7407 24.572 22.7311 24.5129 22.7311H22.1297C21.7952 22.7311 21.5245 23.0039 21.5245 23.3411V25.7426C21.5245 26.0798 21.7952 26.3526 22.1297 26.3526H22.5009C22.774 25.1208 23.3922 24.0189 24.2469 23.1566C24.3861 23.0163 24.5321 22.8834 24.6831 22.7562Z" fill="#069857"/>
<path d="M29.4104 21.2659V18.9751C29.4104 18.638 29.1397 18.3652 28.8052 18.3652H26.422C26.0874 18.3652 25.8167 18.638 25.8167 18.9751V21.3767C25.8167 21.578 25.9137 21.7567 26.0626 21.8675C26.9043 21.4661 27.8453 21.2409 28.8383 21.2409C29.031 21.2409 29.2213 21.2492 29.4092 21.2659L29.4104 21.2659Z" fill="#E1442A"/>
<path d="M22.1305 18.3656H24.5136C24.8482 18.3656 25.1189 18.6384 25.1189 18.9756V21.3771C25.1189 21.7143 24.8482 21.9871 24.5136 21.9871H22.1305C21.7959 21.9871 21.5252 21.7143 21.5252 21.3771V18.9756C21.5252 18.6384 21.7959 18.3656 22.1305 18.3656Z" fill="#E1442A"/>
<path d="M17.838 18.3656H20.2212C20.5558 18.3656 20.8265 18.6384 20.8265 18.9756V21.3771C20.8265 21.7143 20.5557 21.9871 20.2212 21.9871H17.838C17.5035 21.9871 17.2328 21.7143 17.2328 21.3771V18.9756C17.2328 18.6384 17.5035 18.3656 17.838 18.3656Z" fill="#E1442A"/>
<path d="M13.5462 18.3653H15.9294C16.2639 18.3653 16.5346 18.6381 16.5346 18.9753V21.3768C16.5346 21.714 16.2639 21.9867 15.9294 21.9867H13.5462C13.2117 21.9867 12.941 21.7139 12.941 21.3768V18.9753C12.941 18.6381 13.2117 18.3653 13.5462 18.3653Z" fill="#E1442A"/>
<path fill-rule="evenodd" clip-rule="evenodd" d="M25.0354 33.0905L8.84129 33.0928C8.15212 33.0928 7.52439 32.8081 7.07045 32.3507C6.61652 31.8933 6.33398 31.2607 6.33398 30.5662V14.3307C6.33398 13.5885 6.63543 12.9119 7.12129 12.4235L7.15794 12.3901C7.64026 11.9208 8.29632 11.6313 9.01388 11.6313H9.28104V11.2084C9.28104 10.6926 9.49027 10.2232 9.82718 9.88371C10.1641 9.54419 10.6298 9.33334 11.1417 9.33334C11.6512 9.33334 12.117 9.5442 12.4539 9.88371C12.7932 10.2256 13.0024 10.695 13.0024 11.2084V11.6313H14.5391V11.2084C14.5391 10.6938 14.7484 10.2256 15.0853 9.88612C15.4222 9.54422 15.8879 9.33337 16.3998 9.33337C16.9093 9.33337 17.3751 9.54423 17.712 9.88374C18.0513 10.2256 18.2605 10.695 18.2605 11.2084V11.6313H19.7973V11.2084C19.7973 10.6938 20.0065 10.2256 20.3434 9.88615C20.6803 9.54425 21.1461 9.3334 21.6579 9.3334C22.1674 9.3334 22.6332 9.54426 22.9701 9.88377C23.3094 10.2257 23.5186 10.695 23.5186 11.2085V11.6313H25.0554V11.2085C25.0554 10.695 25.2646 10.2257 25.6015 9.88618C25.9408 9.54429 26.4053 9.33344 26.9161 9.33344C27.4256 9.33344 27.8913 9.54429 28.2282 9.8838C28.5675 10.2257 28.7767 10.6951 28.7767 11.2085V11.6314H29.0439C29.7803 11.6314 30.4518 11.9351 30.9365 12.4248L30.9696 12.4617C31.4365 12.9489 31.7238 13.6101 31.7238 14.3331V21.9227C32.3586 22.2408 32.9354 22.6601 33.4319 23.1604C34.607 24.3445 35.334 25.9813 35.334 27.7885C35.334 29.5957 34.607 31.2324 33.4319 32.4166C32.2569 33.6007 30.6326 34.3333 28.8393 34.3333C27.4184 34.3333 26.105 33.8735 25.0353 33.0932L25.0354 33.0905ZM29.4104 18.9751V21.2659L29.4092 21.2659C29.2213 21.2492 29.031 21.2409 28.8383 21.2409C27.8453 21.2409 26.9043 21.4661 26.0626 21.8675C25.9137 21.7567 25.8167 21.578 25.8167 21.3767V18.9751C25.8167 18.638 26.0874 18.3652 26.422 18.3652H28.8052C29.1397 18.3652 29.4104 18.638 29.4104 18.9751ZM24.5129 22.7311C24.572 22.7311 24.6287 22.7407 24.6831 22.7562C24.5321 22.8834 24.3861 23.0163 24.2469 23.1566C23.3922 24.0189 22.774 25.1208 22.5009 26.3526H22.1297C21.7952 26.3526 21.5245 26.0798 21.5245 25.7426V23.3411C21.5245 23.0039 21.7952 22.7311 22.1297 22.7311H24.5129ZM28.8396 33.1106C27.3795 33.1106 26.0591 32.515 25.1028 31.5512C24.1464 30.5874 23.5553 29.2568 23.5553 27.7856C23.5553 26.3143 24.1464 24.9837 25.1028 24.0199C26.0592 23.0562 27.3795 22.4606 28.8396 22.4606C30.2996 22.4606 31.62 23.0562 32.5764 24.0199C33.5327 24.9838 34.1238 26.3144 34.1238 27.7856C34.1238 29.2569 33.5327 30.5875 32.5764 31.5512C31.6199 32.515 30.2996 33.1106 28.8396 33.1106ZM27.5652 11.63H26.266H26.2648V11.2071C26.2648 11.026 26.3381 10.8616 26.4552 10.7437C26.5734 10.6258 26.7365 10.5519 26.915 10.5519C27.0947 10.5519 27.2578 10.6258 27.3748 10.7437C27.4919 10.8628 27.5652 11.0272 27.5652 11.2071V11.63ZM27.5202 14.5378C27.5202 14.2007 27.2495 13.9279 26.915 13.9279L26.9161 13.9242C26.7376 13.9242 26.5733 13.8504 26.4562 13.7324C26.3392 13.6133 26.2659 13.4489 26.2659 13.2691V12.8462H29.0439C29.447 12.8462 29.8147 13.0129 30.0806 13.281L30.1067 13.306C30.3573 13.5705 30.5121 13.9302 30.5121 14.3257V16.3568C30.1338 16.1233 29.6894 15.9887 29.2165 15.9887H8.84138C8.36856 15.9887 7.92525 16.1233 7.54578 16.3544V14.3258C7.54578 13.9195 7.71129 13.549 7.97727 13.281L8.00209 13.2548C8.26453 13.0023 8.62153 12.8462 9.01401 12.8462H9.28117V13.2691C9.28117 13.785 9.4904 14.2543 9.82732 14.5938C10.1642 14.9333 10.63 15.1442 11.1419 15.1442C11.4764 15.1442 11.7471 14.8714 11.7471 14.5342C11.7471 14.1971 11.4764 13.9243 11.1419 13.9243C10.9634 13.9243 10.8002 13.8505 10.6832 13.7325C10.565 13.6134 10.4917 13.4502 10.4917 13.2703V12.8474H14.5381V13.2703C14.5381 13.7659 14.7331 14.2185 15.0488 14.5557L15.0842 14.595C15.4212 14.9345 15.8869 15.1454 16.3988 15.1454C16.7333 15.1454 17.004 14.8726 17.004 14.5354C17.004 14.1983 16.7333 13.9255 16.3988 13.9255C16.2203 13.9255 16.0572 13.8517 15.9401 13.7337L15.9188 13.7123C15.8136 13.5967 15.7498 13.4407 15.7498 13.2715V12.8486H19.7962V13.2715C19.7962 13.7671 19.9912 14.2197 20.3069 14.5569L20.3423 14.5962C20.6793 14.9357 21.145 15.1465 21.6569 15.1465C21.9914 15.1465 22.2621 14.8737 22.2621 14.5366C22.2621 14.1995 21.9914 13.9267 21.6569 13.9267C21.4784 13.9267 21.3153 13.8528 21.1982 13.7349L21.1769 13.7135C21.0717 13.5979 21.0079 13.4419 21.0079 13.2727V12.8498H25.0543V13.2727C25.0543 13.7874 25.2635 14.2555 25.6028 14.5974C25.9397 14.9369 26.4043 15.1478 26.915 15.1478C27.2495 15.1478 27.5202 14.875 27.5202 14.5378ZM22.3069 11.63H21.0077L21.0077 11.2059C21.0077 11.026 21.081 10.8616 21.1981 10.7437C21.3151 10.6258 21.4782 10.5519 21.6567 10.5519C21.8364 10.5519 21.9995 10.6258 22.1166 10.7437C22.2336 10.8628 22.3069 11.0272 22.3069 11.2071V11.63ZM17.05 11.63H15.7508L15.7508 11.2059C15.7508 11.026 15.8241 10.8616 15.9412 10.7437C16.0582 10.6258 16.2213 10.5519 16.3998 10.5519C16.5795 10.5519 16.7426 10.6258 16.8597 10.7437C16.9767 10.8628 17.05 11.0272 17.05 11.2071V11.63ZM11.7931 11.63H10.4939L10.4928 11.6288V11.2059C10.4928 11.026 10.5661 10.8628 10.6843 10.7437C10.8013 10.6258 10.9644 10.5519 11.1429 10.5519C11.3226 10.5519 11.4857 10.6258 11.6028 10.7437C11.7198 10.8628 11.7931 11.0272 11.7931 11.2071V11.63ZM15.9294 18.3653H13.5462C13.2117 18.3653 12.941 18.6381 12.941 18.9753V21.3768C12.941 21.7139 13.2117 21.9867 13.5462 21.9867H15.9294C16.2639 21.9867 16.5346 21.714 16.5346 21.3768V18.9753C16.5346 18.6381 16.2639 18.3653 15.9294 18.3653ZM20.2218 27.0997H17.8386C17.5041 27.0997 17.2334 27.3725 17.2334 27.7096V30.1112C17.2334 30.4483 17.5041 30.7211 17.8386 30.7211H20.2218C20.5563 30.7211 20.8271 30.4483 20.8271 30.1112V27.7096C20.8271 27.3725 20.5564 27.0997 20.2218 27.0997ZM15.9294 27.0997H13.5462C13.2117 27.0997 12.941 27.3725 12.941 27.7096V30.1112C12.941 30.4483 13.2117 30.7211 13.5462 30.7211H15.9294C16.2639 30.7211 16.5346 30.4483 16.5346 30.1112V27.7096C16.5346 27.3725 16.2639 27.0997 15.9294 27.0997ZM11.6369 27.0997H9.25377C8.91923 27.0997 8.64852 27.3725 8.64852 27.7096V30.1112C8.64852 30.4483 8.91922 30.7211 9.25377 30.7211H11.6369C11.9715 30.7211 12.2422 30.4483 12.2422 30.1112V27.7096C12.2422 27.3725 11.9715 27.0997 11.6369 27.0997ZM20.2215 22.7327H17.8383C17.5038 22.7327 17.2331 23.0055 17.2331 23.3426V25.7442C17.2331 26.0813 17.5038 26.3541 17.8383 26.3541H20.2215C20.556 26.3541 20.8268 26.0813 20.8268 25.7442V23.3426C20.8268 23.0055 20.5561 22.7327 20.2215 22.7327ZM15.9291 22.7327H13.5459C13.2114 22.7327 12.9406 23.0055 12.9406 23.3426V25.7442C12.9406 26.0813 13.2113 26.3541 13.5459 26.3541H15.9291C16.2636 26.3541 16.5343 26.0813 16.5343 25.7442V23.3426C16.5343 23.0055 16.2636 22.7327 15.9291 22.7327ZM11.6366 22.7327H9.25347C8.91892 22.7327 8.64822 23.0055 8.64822 23.3426V25.7442C8.64822 26.0813 8.91892 26.3541 9.25347 26.3541H11.6366C11.9712 26.3541 12.2419 26.0813 12.2419 25.7442V23.3426C12.2419 23.0055 11.9712 22.7327 11.6366 22.7327ZM24.5136 18.3656H22.1305C21.7959 18.3656 21.5252 18.6384 21.5252 18.9756V21.3771C21.5252 21.7143 21.7959 21.9871 22.1305 21.9871H24.5136C24.8482 21.9871 25.1189 21.7143 25.1189 21.3771V18.9756C25.1189 18.6384 24.8482 18.3656 24.5136 18.3656ZM20.2212 18.3656H17.838C17.5035 18.3656 17.2328 18.6384 17.2328 18.9756V21.3771C17.2328 21.7143 17.5035 21.9871 17.838 21.9871H20.2212C20.5557 21.9871 20.8265 21.7143 20.8265 21.3771V18.9756C20.8265 18.6384 20.5558 18.3656 20.2212 18.3656Z" fill="black"/>
<path d="M26.6289 25.1459C26.4622 24.8553 26.5603 24.4824 26.8487 24.3144C27.1372 24.1465 27.5072 24.2453 27.6739 24.536L29.187 27.1758H31.5217C31.8562 27.1758 32.1269 27.4486 32.1269 27.7857C32.1269 28.1229 31.8562 28.3956 31.5217 28.3956H28.8394C28.6314 28.3933 28.428 28.2849 28.3169 28.0907L26.63 25.1459L26.6289 25.1459Z" fill="#396FB6"/>
</svg>
