<svg width="35" height="35" viewBox="0 0 35 35" fill="none" xmlns="http://www.w3.org/2000/svg">
<path d="M21.333 4.00543e-05C24.2785 4.00543e-05 26.72 2.41112 26.1348 5.29792C25.795 6.97392 25.294 8.61739 24.6365 10.2049C23.2963 13.4403 21.3321 16.38 18.8559 18.8562C16.3796 21.3325 13.4399 23.2967 10.2046 24.6368C8.61702 25.2944 6.97356 25.7954 5.29755 26.1351C2.41075 26.7203 -0.000328064 24.2789 -0.000326157 21.3334V14.8555C-0.000326157 12.5421 1.94434 10.7401 4.08163 9.85476C5.37577 9.31871 6.55165 8.533 7.54214 7.54251C8.53264 6.55202 9.31834 5.37614 9.85439 4.082C10.7397 1.9447 12.5417 4.00543e-05 14.8551 4.00543e-05H21.333Z" fill="#EEEEF0"/>
<path d="M20.2803 12.0105V16.698H24.9678V15.9167L21.0615 12.0105H20.2803Z" fill="#396FB6"/>
<path d="M21.0615 20.6042V28.4167M24.1865 28.4167V25.2917M24.1865 25.2917V21.3855M24.1865 25.2917H28.0928V21.3855H24.1865M24.1865 21.3855V20.6042M13.249 21.3855H17.9365V22.1667L14.0303 26.8542V27.6355H18.7178M24.9678 30.7605V32.323H10.9053V12.0105H20.2803M20.2803 12.0105V16.698H24.9678M20.2803 12.0105H21.0615L24.9678 15.9167V16.698M24.9678 16.698V19.0417" stroke="#396FB6" stroke-width="1.75" stroke-linejoin="round"/>
</svg>
