<svg width="31" height="31" viewBox="0 0 31 31" fill="none" xmlns="http://www.w3.org/2000/svg">
<path d="M18.667 -4.19617e-05C21.2443 -4.19617e-05 23.3806 2.10965 22.8685 4.6356C22.5713 6.10211 22.1329 7.54014 21.5575 8.92924C20.3849 11.7602 18.6662 14.3324 16.4995 16.4991C14.3328 18.6658 11.7605 20.3845 8.9296 21.5571C7.5405 22.1325 6.10247 22.5709 4.63597 22.8682C2.11002 23.3802 0.000324249 21.2439 0.000324249 18.6666V12.9985C0.000324249 10.9742 1.7019 9.39747 3.57204 8.62283C4.70441 8.15379 5.73331 7.4663 6.59999 6.59962C7.46667 5.73294 8.15416 4.70404 8.6232 3.57167C9.39783 1.70154 10.9746 -4.19617e-05 12.9988 -4.19617e-05H18.667Z" fill="#EEEEF0"/>
<path fill-rule="evenodd" clip-rule="evenodd" d="M14.0161 6.45393C14.0778 6.22776 14.0483 5.98601 13.9343 5.78185C13.8203 5.57769 13.6309 5.42784 13.408 5.36528C13.185 5.30272 12.9466 5.33256 12.7454 5.44824C12.5441 5.56393 12.3964 5.75598 12.3347 5.98214L10.5742 12.4102H6.19865C5.96736 12.4102 5.74554 12.5034 5.58199 12.6693C5.41844 12.8352 5.32656 13.0602 5.32656 13.2948C5.32656 13.5295 5.41844 13.7545 5.58199 13.9204C5.74554 14.0862 5.96736 14.1794 6.19865 14.1794H10.0905L8.31377 20.6665H3.87307C3.64178 20.6665 3.41996 20.7597 3.25641 20.9256C3.09286 21.0915 3.00098 21.3165 3.00098 21.5511C3.00098 21.7857 3.09286 22.0107 3.25641 22.1766C3.41996 22.3425 3.64178 22.4357 3.87307 22.4357H7.82888L6.52074 27.2126C6.45907 27.4387 6.48849 27.6805 6.60254 27.8847C6.71658 28.0888 6.90592 28.2387 7.12888 28.3012C7.35185 28.3638 7.59019 28.3339 7.79146 28.2183C7.99274 28.1026 8.14046 27.9105 8.20214 27.6844L9.63935 22.4357H18.294L16.9859 27.2126C16.9242 27.4387 16.9536 27.6805 17.0677 27.8847C17.1817 28.0888 17.371 28.2387 17.594 28.3012C17.817 28.3638 18.0553 28.3339 18.2566 28.2183C18.4579 28.1026 18.6056 27.9105 18.6673 27.6844L20.1045 22.4357H24.8033C25.0346 22.4357 25.2564 22.3425 25.42 22.1766C25.5835 22.0107 25.6754 21.7857 25.6754 21.5511C25.6754 21.3165 25.5835 21.0915 25.42 20.9256C25.2564 20.7597 25.0346 20.6665 24.8033 20.6665H20.5893L22.3649 14.1794H27.1289C27.3602 14.1794 27.582 14.0862 27.7455 13.9204C27.9091 13.7545 28.001 13.5295 28.001 13.2948C28.001 13.0602 27.9091 12.8352 27.7455 12.6693C27.582 12.5034 27.3602 12.4102 27.1289 12.4102H22.8498L24.4812 6.45393C24.5117 6.34194 24.5202 6.22495 24.5062 6.10964C24.4922 5.99432 24.4559 5.88294 24.3994 5.78185C24.3429 5.68076 24.2674 5.59194 24.1771 5.52046C24.0868 5.44899 23.9835 5.39626 23.8731 5.36528C23.7627 5.3343 23.6473 5.32568 23.5336 5.33992C23.42 5.35415 23.3102 5.39096 23.2105 5.44824C23.1108 5.50552 23.0233 5.58216 22.9528 5.67376C22.8823 5.76537 22.8304 5.87016 22.7998 5.98214L21.0393 12.4102H12.3847L14.0161 6.45393ZM18.7789 20.6665L20.5556 14.1794H11.8998L10.1242 20.6665H18.7789Z" fill="#396FB6"/>
</svg>
