<svg width="36" height="40" viewBox="0 0 36 40" fill="none" xmlns="http://www.w3.org/2000/svg">
<path d="M21.333 4.00543e-05C24.2785 4.00543e-05 26.72 2.41112 26.1348 5.29792C25.795 6.97392 25.294 8.61739 24.6365 10.2049C23.2963 13.4403 21.3321 16.38 18.8559 18.8562C16.3796 21.3325 13.4399 23.2967 10.2046 24.6368C8.61702 25.2944 6.97356 25.7954 5.29755 26.1351C2.41075 26.7203 -0.000328064 24.2789 -0.000326157 21.3334V14.8555C-0.000326157 12.5421 1.94434 10.7401 4.08163 9.85476C5.37577 9.31871 6.55165 8.533 7.54214 7.54251C8.53264 6.55202 9.31834 5.37614 9.85439 4.082C10.7397 1.9447 12.5417 4.00543e-05 14.8551 4.00543e-05H21.333Z" fill="#EEEEF0"/>
<g clip-path="url(#clip0_1_11100)">
<mask id="path-2-outside-1_1_11100" maskUnits="userSpaceOnUse" x="8.99902" y="22.667" width="29" height="13" fill="black">
<rect fill="white" x="8.99902" y="22.667" width="29" height="13"/>
<path d="M10.3474 26.9636C10.623 26.4083 11.0552 25.8909 11.622 25.4378C11.6571 25.4095 11.7004 25.386 11.7496 25.3686C11.7987 25.3512 11.8526 25.3403 11.9083 25.3365C11.964 25.3326 12.0203 25.3359 12.074 25.3463C12.1276 25.3566 12.1776 25.3736 12.2211 25.3965C12.308 25.4424 12.3635 25.5086 12.3754 25.5808C12.3873 25.653 12.3548 25.7254 12.2848 25.7821C11.7861 26.1834 11.4059 26.6409 11.1632 27.1316C11.1351 27.1896 11.0782 27.24 11.0014 27.2748C10.9245 27.3097 10.832 27.3271 10.7383 27.3243C10.695 27.324 10.652 27.3194 10.6108 27.3106C10.5568 27.2991 10.5068 27.2807 10.4639 27.2565C10.421 27.2323 10.386 27.2028 10.361 27.1697C10.3361 27.1365 10.3216 27.1005 10.3186 27.0637C10.3155 27.0268 10.3239 26.99 10.3432 26.9553L10.3474 26.9636ZM10.4239 28.3846C10.5366 28.3846 10.6446 28.4137 10.7243 28.4653C10.804 28.517 10.8488 28.587 10.8488 28.66V30.3125C10.8488 30.3855 10.804 30.4556 10.7243 30.5072C10.6446 30.5589 10.5366 30.5879 10.4239 30.5879C10.3112 30.5879 10.2031 30.5589 10.1235 30.5072C10.0438 30.4556 9.99902 30.3855 9.99902 30.3125V28.66C9.99902 28.587 10.0438 28.517 10.1235 28.4653C10.2031 28.4137 10.3112 28.3846 10.4239 28.3846ZM28.5616 34.9778C28.5616 34.9048 28.6064 34.8347 28.686 34.7831C28.7657 34.7314 28.8738 34.7024 28.9865 34.7024H31.5357C31.6484 34.7024 31.7564 34.7314 31.8361 34.7831C31.9158 34.8347 31.9606 34.9048 31.9606 34.9778C31.9606 35.0508 31.9158 35.1209 31.8361 35.1725C31.7564 35.2242 31.6484 35.2532 31.5357 35.2532H28.9865C28.8738 35.2532 28.7657 35.2242 28.686 35.1725C28.6064 35.1209 28.5616 35.0508 28.5616 34.9778ZM13.5 24.675C13.4446 24.6117 13.43 24.5369 13.4595 24.4667C13.4889 24.3965 13.56 24.3368 13.6572 24.3004C14.4342 24.0077 15.2886 23.8116 16.1766 23.7221C16.2893 23.7108 16.4043 23.7289 16.4964 23.7726C16.5884 23.8162 16.6499 23.8817 16.6674 23.9548C16.6848 24.0278 16.6568 24.1024 16.5895 24.162C16.5222 24.2217 16.421 24.2616 16.3083 24.2729C15.5221 24.3504 14.7654 24.5233 14.0778 24.7824C14.0293 24.8006 13.9757 24.8124 13.9201 24.8171C13.8646 24.8219 13.8081 24.8194 13.754 24.8099C13.6999 24.8005 13.6492 24.7842 13.6049 24.7619C13.5606 24.7397 13.5235 24.712 13.4957 24.6805L13.5 24.675ZM18.7683 24.2178C18.6557 24.2178 18.5476 24.1888 18.4679 24.1371C18.3882 24.0855 18.3435 24.0154 18.3435 23.9424C18.3435 23.8694 18.3882 23.7993 18.4679 23.7477C18.5476 23.696 18.6557 23.667 18.7683 23.667H21.3176C21.4302 23.667 21.5383 23.696 21.618 23.7477C21.6977 23.7993 21.7424 23.8694 21.7424 23.9424C21.7424 24.0154 21.6977 24.0855 21.618 24.1371C21.5383 24.1888 21.4302 24.2178 21.3176 24.2178H18.7683ZM18.4199 34.9778C18.4199 34.9048 18.4647 34.8347 18.5444 34.7831C18.6241 34.7314 18.7321 34.7024 18.8448 34.7024H21.394C21.5067 34.7024 21.6148 34.7314 21.6945 34.7831C21.7741 34.8347 21.8189 34.9048 21.8189 34.9778C21.8189 35.0508 21.7741 35.1209 21.6945 35.1725C21.6148 35.2242 21.5067 35.2532 21.394 35.2532H18.8448C18.7321 35.2532 18.6241 35.2242 18.5444 35.1725C18.4647 35.1209 18.4199 35.0508 18.4199 34.9778ZM13.5552 34.27C13.6112 34.207 13.7034 34.1609 13.8117 34.1419C13.9199 34.1228 14.0355 34.1322 14.133 34.1681C14.8254 34.4215 15.5848 34.5887 16.3721 34.6611C16.4848 34.6662 16.5897 34.7001 16.6638 34.7554C16.7379 34.8106 16.7751 34.8827 16.7672 34.9558C16.7593 35.0288 16.707 35.0968 16.6217 35.1449C16.5365 35.1929 16.4253 35.217 16.3126 35.2119H16.2489C15.3531 35.1342 14.4882 34.9473 13.6996 34.6611C13.6491 34.6424 13.605 34.6173 13.5701 34.5871C13.5351 34.557 13.5101 34.5225 13.4966 34.4859C13.483 34.4492 13.4813 34.4111 13.4913 34.374C13.5014 34.3369 13.5231 34.3015 13.5552 34.27ZM33.6345 34.9778C33.6345 34.9048 33.6793 34.8347 33.759 34.7831C33.8387 34.7314 33.9467 34.7024 34.0594 34.7024H36.6086C36.7213 34.7024 36.8294 34.7314 36.9091 34.7831C36.9887 34.8347 37.0335 34.9048 37.0335 34.9778C37.0335 35.0508 36.9887 35.1209 36.9091 35.1725C36.8294 35.2242 36.7213 35.2532 36.6086 35.2532H34.0594C33.9467 35.2532 33.8387 35.2242 33.759 35.1725C33.6793 35.1209 33.6345 35.0508 33.6345 34.9778ZM23.8243 24.2178C23.7116 24.2178 23.6035 24.1888 23.5239 24.1371C23.4442 24.0855 23.3994 24.0154 23.3994 23.9424C23.3994 23.8694 23.4442 23.7993 23.5239 23.7477C23.6035 23.696 23.7116 23.667 23.8243 23.667H26.3735C26.4862 23.667 26.5943 23.696 26.6739 23.7477C26.7536 23.7993 26.7984 23.8694 26.7984 23.9424C26.7984 24.0154 26.7536 24.0855 26.6739 24.1371C26.5943 24.1888 26.4862 24.2178 26.3735 24.2178H23.8243ZM23.4929 34.9778C23.4929 34.9048 23.5377 34.8347 23.6173 34.7831C23.697 34.7314 23.8051 34.7024 23.9178 34.7024H26.467C26.5797 34.7024 26.6877 34.7314 26.7674 34.7831C26.8471 34.8347 26.8919 34.9048 26.8919 34.9778C26.8919 35.0508 26.8471 35.1209 26.7674 35.1725C26.6877 35.2242 26.5797 35.2532 26.467 35.2532H23.9178C23.8051 35.2532 23.697 35.2242 23.6173 35.1725C23.5377 35.1209 23.4929 35.0508 23.4929 34.9778ZM10.3687 32.0117C10.3517 31.9768 10.3456 31.9401 10.3507 31.9036C10.3559 31.8672 10.3722 31.8318 10.3987 31.7995C10.4252 31.7672 10.4614 31.7386 10.5051 31.7155C10.5488 31.6923 10.5992 31.6751 10.6533 31.6647C10.7063 31.653 10.7624 31.6483 10.8182 31.6507C10.874 31.6531 10.9286 31.6626 10.9787 31.6788C11.0289 31.6949 11.0736 31.7173 11.1104 31.7446C11.1471 31.772 11.1752 31.8038 11.1929 31.8382C11.4415 32.3276 11.8291 32.7825 12.3358 33.1794C12.3716 33.2072 12.3985 33.2394 12.4151 33.274C12.4317 33.3086 12.4376 33.3449 12.4325 33.381C12.4274 33.4171 12.4113 33.4521 12.3852 33.4842C12.3592 33.5162 12.3236 33.5446 12.2806 33.5677C12.2041 33.6088 12.1079 33.6312 12.0087 33.6311C11.9459 33.6308 11.884 33.6215 11.8275 33.6039C11.7709 33.5863 11.721 33.5608 11.6815 33.5292C11.1015 33.081 10.6562 32.5663 10.3687 32.0117Z"/>
</mask>
<path d="M10.3474 26.9636C10.623 26.4083 11.0552 25.8909 11.622 25.4378C11.6571 25.4095 11.7004 25.386 11.7496 25.3686C11.7987 25.3512 11.8526 25.3403 11.9083 25.3365C11.964 25.3326 12.0203 25.3359 12.074 25.3463C12.1276 25.3566 12.1776 25.3736 12.2211 25.3965C12.308 25.4424 12.3635 25.5086 12.3754 25.5808C12.3873 25.653 12.3548 25.7254 12.2848 25.7821C11.7861 26.1834 11.4059 26.6409 11.1632 27.1316C11.1351 27.1896 11.0782 27.24 11.0014 27.2748C10.9245 27.3097 10.832 27.3271 10.7383 27.3243C10.695 27.324 10.652 27.3194 10.6108 27.3106C10.5568 27.2991 10.5068 27.2807 10.4639 27.2565C10.421 27.2323 10.386 27.2028 10.361 27.1697C10.3361 27.1365 10.3216 27.1005 10.3186 27.0637C10.3155 27.0268 10.3239 26.99 10.3432 26.9553L10.3474 26.9636ZM10.4239 28.3846C10.5366 28.3846 10.6446 28.4137 10.7243 28.4653C10.804 28.517 10.8488 28.587 10.8488 28.66V30.3125C10.8488 30.3855 10.804 30.4556 10.7243 30.5072C10.6446 30.5589 10.5366 30.5879 10.4239 30.5879C10.3112 30.5879 10.2031 30.5589 10.1235 30.5072C10.0438 30.4556 9.99902 30.3855 9.99902 30.3125V28.66C9.99902 28.587 10.0438 28.517 10.1235 28.4653C10.2031 28.4137 10.3112 28.3846 10.4239 28.3846ZM28.5616 34.9778C28.5616 34.9048 28.6064 34.8347 28.686 34.7831C28.7657 34.7314 28.8738 34.7024 28.9865 34.7024H31.5357C31.6484 34.7024 31.7564 34.7314 31.8361 34.7831C31.9158 34.8347 31.9606 34.9048 31.9606 34.9778C31.9606 35.0508 31.9158 35.1209 31.8361 35.1725C31.7564 35.2242 31.6484 35.2532 31.5357 35.2532H28.9865C28.8738 35.2532 28.7657 35.2242 28.686 35.1725C28.6064 35.1209 28.5616 35.0508 28.5616 34.9778ZM13.5 24.675C13.4446 24.6117 13.43 24.5369 13.4595 24.4667C13.4889 24.3965 13.56 24.3368 13.6572 24.3004C14.4342 24.0077 15.2886 23.8116 16.1766 23.7221C16.2893 23.7108 16.4043 23.7289 16.4964 23.7726C16.5884 23.8162 16.6499 23.8817 16.6674 23.9548C16.6848 24.0278 16.6568 24.1024 16.5895 24.162C16.5222 24.2217 16.421 24.2616 16.3083 24.2729C15.5221 24.3504 14.7654 24.5233 14.0778 24.7824C14.0293 24.8006 13.9757 24.8124 13.9201 24.8171C13.8646 24.8219 13.8081 24.8194 13.754 24.8099C13.6999 24.8005 13.6492 24.7842 13.6049 24.7619C13.5606 24.7397 13.5235 24.712 13.4957 24.6805L13.5 24.675ZM18.7683 24.2178C18.6557 24.2178 18.5476 24.1888 18.4679 24.1371C18.3882 24.0855 18.3435 24.0154 18.3435 23.9424C18.3435 23.8694 18.3882 23.7993 18.4679 23.7477C18.5476 23.696 18.6557 23.667 18.7683 23.667H21.3176C21.4302 23.667 21.5383 23.696 21.618 23.7477C21.6977 23.7993 21.7424 23.8694 21.7424 23.9424C21.7424 24.0154 21.6977 24.0855 21.618 24.1371C21.5383 24.1888 21.4302 24.2178 21.3176 24.2178H18.7683ZM18.4199 34.9778C18.4199 34.9048 18.4647 34.8347 18.5444 34.7831C18.6241 34.7314 18.7321 34.7024 18.8448 34.7024H21.394C21.5067 34.7024 21.6148 34.7314 21.6945 34.7831C21.7741 34.8347 21.8189 34.9048 21.8189 34.9778C21.8189 35.0508 21.7741 35.1209 21.6945 35.1725C21.6148 35.2242 21.5067 35.2532 21.394 35.2532H18.8448C18.7321 35.2532 18.6241 35.2242 18.5444 35.1725C18.4647 35.1209 18.4199 35.0508 18.4199 34.9778ZM13.5552 34.27C13.6112 34.207 13.7034 34.1609 13.8117 34.1419C13.9199 34.1228 14.0355 34.1322 14.133 34.1681C14.8254 34.4215 15.5848 34.5887 16.3721 34.6611C16.4848 34.6662 16.5897 34.7001 16.6638 34.7554C16.7379 34.8106 16.7751 34.8827 16.7672 34.9558C16.7593 35.0288 16.707 35.0968 16.6217 35.1449C16.5365 35.1929 16.4253 35.217 16.3126 35.2119H16.2489C15.3531 35.1342 14.4882 34.9473 13.6996 34.6611C13.6491 34.6424 13.605 34.6173 13.5701 34.5871C13.5351 34.557 13.5101 34.5225 13.4966 34.4859C13.483 34.4492 13.4813 34.4111 13.4913 34.374C13.5014 34.3369 13.5231 34.3015 13.5552 34.27ZM33.6345 34.9778C33.6345 34.9048 33.6793 34.8347 33.759 34.7831C33.8387 34.7314 33.9467 34.7024 34.0594 34.7024H36.6086C36.7213 34.7024 36.8294 34.7314 36.9091 34.7831C36.9887 34.8347 37.0335 34.9048 37.0335 34.9778C37.0335 35.0508 36.9887 35.1209 36.9091 35.1725C36.8294 35.2242 36.7213 35.2532 36.6086 35.2532H34.0594C33.9467 35.2532 33.8387 35.2242 33.759 35.1725C33.6793 35.1209 33.6345 35.0508 33.6345 34.9778ZM23.8243 24.2178C23.7116 24.2178 23.6035 24.1888 23.5239 24.1371C23.4442 24.0855 23.3994 24.0154 23.3994 23.9424C23.3994 23.8694 23.4442 23.7993 23.5239 23.7477C23.6035 23.696 23.7116 23.667 23.8243 23.667H26.3735C26.4862 23.667 26.5943 23.696 26.6739 23.7477C26.7536 23.7993 26.7984 23.8694 26.7984 23.9424C26.7984 24.0154 26.7536 24.0855 26.6739 24.1371C26.5943 24.1888 26.4862 24.2178 26.3735 24.2178H23.8243ZM23.4929 34.9778C23.4929 34.9048 23.5377 34.8347 23.6173 34.7831C23.697 34.7314 23.8051 34.7024 23.9178 34.7024H26.467C26.5797 34.7024 26.6877 34.7314 26.7674 34.7831C26.8471 34.8347 26.8919 34.9048 26.8919 34.9778C26.8919 35.0508 26.8471 35.1209 26.7674 35.1725C26.6877 35.2242 26.5797 35.2532 26.467 35.2532H23.9178C23.8051 35.2532 23.697 35.2242 23.6173 35.1725C23.5377 35.1209 23.4929 35.0508 23.4929 34.9778ZM10.3687 32.0117C10.3517 31.9768 10.3456 31.9401 10.3507 31.9036C10.3559 31.8672 10.3722 31.8318 10.3987 31.7995C10.4252 31.7672 10.4614 31.7386 10.5051 31.7155C10.5488 31.6923 10.5992 31.6751 10.6533 31.6647C10.7063 31.653 10.7624 31.6483 10.8182 31.6507C10.874 31.6531 10.9286 31.6626 10.9787 31.6788C11.0289 31.6949 11.0736 31.7173 11.1104 31.7446C11.1471 31.772 11.1752 31.8038 11.1929 31.8382C11.4415 32.3276 11.8291 32.7825 12.3358 33.1794C12.3716 33.2072 12.3985 33.2394 12.4151 33.274C12.4317 33.3086 12.4376 33.3449 12.4325 33.381C12.4274 33.4171 12.4113 33.4521 12.3852 33.4842C12.3592 33.5162 12.3236 33.5446 12.2806 33.5677C12.2041 33.6088 12.1079 33.6312 12.0087 33.6311C11.9459 33.6308 11.884 33.6215 11.8275 33.6039C11.7709 33.5863 11.721 33.5608 11.6815 33.5292C11.1015 33.081 10.6562 32.5663 10.3687 32.0117Z" fill="#FDB415"/>
<path d="M10.3474 26.9636C10.623 26.4083 11.0552 25.8909 11.622 25.4378C11.6571 25.4095 11.7004 25.386 11.7496 25.3686C11.7987 25.3512 11.8526 25.3403 11.9083 25.3365C11.964 25.3326 12.0203 25.3359 12.074 25.3463C12.1276 25.3566 12.1776 25.3736 12.2211 25.3965C12.308 25.4424 12.3635 25.5086 12.3754 25.5808C12.3873 25.653 12.3548 25.7254 12.2848 25.7821C11.7861 26.1834 11.4059 26.6409 11.1632 27.1316C11.1351 27.1896 11.0782 27.24 11.0014 27.2748C10.9245 27.3097 10.832 27.3271 10.7383 27.3243C10.695 27.324 10.652 27.3194 10.6108 27.3106C10.5568 27.2991 10.5068 27.2807 10.4639 27.2565C10.421 27.2323 10.386 27.2028 10.361 27.1697C10.3361 27.1365 10.3216 27.1005 10.3186 27.0637C10.3155 27.0268 10.3239 26.99 10.3432 26.9553L10.3474 26.9636ZM10.4239 28.3846C10.5366 28.3846 10.6446 28.4137 10.7243 28.4653C10.804 28.517 10.8488 28.587 10.8488 28.66V30.3125C10.8488 30.3855 10.804 30.4556 10.7243 30.5072C10.6446 30.5589 10.5366 30.5879 10.4239 30.5879C10.3112 30.5879 10.2031 30.5589 10.1235 30.5072C10.0438 30.4556 9.99902 30.3855 9.99902 30.3125V28.66C9.99902 28.587 10.0438 28.517 10.1235 28.4653C10.2031 28.4137 10.3112 28.3846 10.4239 28.3846ZM28.5616 34.9778C28.5616 34.9048 28.6064 34.8347 28.686 34.7831C28.7657 34.7314 28.8738 34.7024 28.9865 34.7024H31.5357C31.6484 34.7024 31.7564 34.7314 31.8361 34.7831C31.9158 34.8347 31.9606 34.9048 31.9606 34.9778C31.9606 35.0508 31.9158 35.1209 31.8361 35.1725C31.7564 35.2242 31.6484 35.2532 31.5357 35.2532H28.9865C28.8738 35.2532 28.7657 35.2242 28.686 35.1725C28.6064 35.1209 28.5616 35.0508 28.5616 34.9778ZM13.5 24.675C13.4446 24.6117 13.43 24.5369 13.4595 24.4667C13.4889 24.3965 13.56 24.3368 13.6572 24.3004C14.4342 24.0077 15.2886 23.8116 16.1766 23.7221C16.2893 23.7108 16.4043 23.7289 16.4964 23.7726C16.5884 23.8162 16.6499 23.8817 16.6674 23.9548C16.6848 24.0278 16.6568 24.1024 16.5895 24.162C16.5222 24.2217 16.421 24.2616 16.3083 24.2729C15.5221 24.3504 14.7654 24.5233 14.0778 24.7824C14.0293 24.8006 13.9757 24.8124 13.9201 24.8171C13.8646 24.8219 13.8081 24.8194 13.754 24.8099C13.6999 24.8005 13.6492 24.7842 13.6049 24.7619C13.5606 24.7397 13.5235 24.712 13.4957 24.6805L13.5 24.675ZM18.7683 24.2178C18.6557 24.2178 18.5476 24.1888 18.4679 24.1371C18.3882 24.0855 18.3435 24.0154 18.3435 23.9424C18.3435 23.8694 18.3882 23.7993 18.4679 23.7477C18.5476 23.696 18.6557 23.667 18.7683 23.667H21.3176C21.4302 23.667 21.5383 23.696 21.618 23.7477C21.6977 23.7993 21.7424 23.8694 21.7424 23.9424C21.7424 24.0154 21.6977 24.0855 21.618 24.1371C21.5383 24.1888 21.4302 24.2178 21.3176 24.2178H18.7683ZM18.4199 34.9778C18.4199 34.9048 18.4647 34.8347 18.5444 34.7831C18.6241 34.7314 18.7321 34.7024 18.8448 34.7024H21.394C21.5067 34.7024 21.6148 34.7314 21.6945 34.7831C21.7741 34.8347 21.8189 34.9048 21.8189 34.9778C21.8189 35.0508 21.7741 35.1209 21.6945 35.1725C21.6148 35.2242 21.5067 35.2532 21.394 35.2532H18.8448C18.7321 35.2532 18.6241 35.2242 18.5444 35.1725C18.4647 35.1209 18.4199 35.0508 18.4199 34.9778ZM13.5552 34.27C13.6112 34.207 13.7034 34.1609 13.8117 34.1419C13.9199 34.1228 14.0355 34.1322 14.133 34.1681C14.8254 34.4215 15.5848 34.5887 16.3721 34.6611C16.4848 34.6662 16.5897 34.7001 16.6638 34.7554C16.7379 34.8106 16.7751 34.8827 16.7672 34.9558C16.7593 35.0288 16.707 35.0968 16.6217 35.1449C16.5365 35.1929 16.4253 35.217 16.3126 35.2119H16.2489C15.3531 35.1342 14.4882 34.9473 13.6996 34.6611C13.6491 34.6424 13.605 34.6173 13.5701 34.5871C13.5351 34.557 13.5101 34.5225 13.4966 34.4859C13.483 34.4492 13.4813 34.4111 13.4913 34.374C13.5014 34.3369 13.5231 34.3015 13.5552 34.27ZM33.6345 34.9778C33.6345 34.9048 33.6793 34.8347 33.759 34.7831C33.8387 34.7314 33.9467 34.7024 34.0594 34.7024H36.6086C36.7213 34.7024 36.8294 34.7314 36.9091 34.7831C36.9887 34.8347 37.0335 34.9048 37.0335 34.9778C37.0335 35.0508 36.9887 35.1209 36.9091 35.1725C36.8294 35.2242 36.7213 35.2532 36.6086 35.2532H34.0594C33.9467 35.2532 33.8387 35.2242 33.759 35.1725C33.6793 35.1209 33.6345 35.0508 33.6345 34.9778ZM23.8243 24.2178C23.7116 24.2178 23.6035 24.1888 23.5239 24.1371C23.4442 24.0855 23.3994 24.0154 23.3994 23.9424C23.3994 23.8694 23.4442 23.7993 23.5239 23.7477C23.6035 23.696 23.7116 23.667 23.8243 23.667H26.3735C26.4862 23.667 26.5943 23.696 26.6739 23.7477C26.7536 23.7993 26.7984 23.8694 26.7984 23.9424C26.7984 24.0154 26.7536 24.0855 26.6739 24.1371C26.5943 24.1888 26.4862 24.2178 26.3735 24.2178H23.8243ZM23.4929 34.9778C23.4929 34.9048 23.5377 34.8347 23.6173 34.7831C23.697 34.7314 23.8051 34.7024 23.9178 34.7024H26.467C26.5797 34.7024 26.6877 34.7314 26.7674 34.7831C26.8471 34.8347 26.8919 34.9048 26.8919 34.9778C26.8919 35.0508 26.8471 35.1209 26.7674 35.1725C26.6877 35.2242 26.5797 35.2532 26.467 35.2532H23.9178C23.8051 35.2532 23.697 35.2242 23.6173 35.1725C23.5377 35.1209 23.4929 35.0508 23.4929 34.9778ZM10.3687 32.0117C10.3517 31.9768 10.3456 31.9401 10.3507 31.9036C10.3559 31.8672 10.3722 31.8318 10.3987 31.7995C10.4252 31.7672 10.4614 31.7386 10.5051 31.7155C10.5488 31.6923 10.5992 31.6751 10.6533 31.6647C10.7063 31.653 10.7624 31.6483 10.8182 31.6507C10.874 31.6531 10.9286 31.6626 10.9787 31.6788C11.0289 31.6949 11.0736 31.7173 11.1104 31.7446C11.1471 31.772 11.1752 31.8038 11.1929 31.8382C11.4415 32.3276 11.8291 32.7825 12.3358 33.1794C12.3716 33.2072 12.3985 33.2394 12.4151 33.274C12.4317 33.3086 12.4376 33.3449 12.4325 33.381C12.4274 33.4171 12.4113 33.4521 12.3852 33.4842C12.3592 33.5162 12.3236 33.5446 12.2806 33.5677C12.2041 33.6088 12.1079 33.6312 12.0087 33.6311C11.9459 33.6308 11.884 33.6215 11.8275 33.6039C11.7709 33.5863 11.721 33.5608 11.6815 33.5292C11.1015 33.081 10.6562 32.5663 10.3687 32.0117Z" stroke="#FDB415" stroke-width="0.482759" mask="url(#path-2-outside-1_1_11100)"/>
<path d="M30.8548 17.0003H20.4002H9.88274C9.25484 17.0003 7.99902 16.767 7.99902 15.8337C7.99902 14.9003 9.25484 14.667 9.88274 14.667H20.4002H30.8548C33.1153 14.667 34.999 16.8837 34.999 19.8003V19.917C34.999 22.8337 33.1153 25.167 30.8548 25.167H19.7409L21.2479 27.0337L19.9293 28.667L16.1618 24.0003L19.9293 19.3337L21.2479 20.8503L19.7409 22.717H30.8548C32.0793 22.717 33.1153 21.4337 33.1153 19.917V19.8003C33.1153 18.2837 32.0793 17.0003 30.8548 17.0003Z" fill="#1F62FF"/>
</g>
<defs>
<clipPath id="clip0_1_11100">
<rect width="28" height="30" fill="white" transform="translate(7.66602 9.66675)"/>
</clipPath>
</defs>
</svg>
