<svg width="33" height="31" viewBox="0 0 33 31" fill="none" xmlns="http://www.w3.org/2000/svg">
<path d="M18.667 -4.19617e-05C21.2443 -4.19617e-05 23.3806 2.10965 22.8685 4.6356C22.5713 6.10211 22.1329 7.54014 21.5575 8.92924C20.3849 11.7602 18.6662 14.3324 16.4995 16.4991C14.3328 18.6658 11.7605 20.3845 8.9296 21.5571C7.5405 22.1325 6.10247 22.5709 4.63597 22.8682C2.11002 23.3802 0.000324249 21.2439 0.000324249 18.6666V12.9985C0.000324249 10.9742 1.7019 9.39747 3.57204 8.62283C4.70441 8.15379 5.73331 7.4663 6.59999 6.59962C7.46667 5.73294 8.15416 4.70404 8.6232 3.57167C9.39783 1.70154 10.9746 -4.19617e-05 12.9988 -4.19617e-05H18.667Z" fill="#E7E7EA"/>
<path d="M30.9531 7.14429C31.7694 7.14429 32.4336 7.80846 32.4336 8.62476V25.9509C32.4336 26.386 32.2942 26.7998 32.0381 27.1179V27.1189C31.7611 27.4621 31.3666 27.6619 30.9531 27.6619H29.2812C28.9906 27.6619 28.7559 27.4281 28.7559 27.1375C28.7559 26.8468 28.9906 26.613 29.2812 26.613H30.9531C31.0545 26.613 31.1605 26.5509 31.2451 26.4294C31.329 26.309 31.3847 26.1393 31.3848 25.9519V8.62476C31.3848 8.38794 31.1899 8.19409 30.9531 8.19409L9.15918 8.19312C8.9224 8.19316 8.72852 8.38797 8.72852 8.62476V9.57593H7.67871V8.62476C7.67871 7.80849 8.34293 7.14434 9.15918 7.14429H30.9531Z" fill="black" stroke="black" stroke-width="0.2"/>
<path d="M28.3232 9.77466C29.1395 9.77475 29.8037 10.4389 29.8037 11.2551V14.0735L29.7939 14.1799C29.7462 14.4199 29.5335 14.5988 29.2812 14.5989C28.9907 14.5989 28.7561 14.365 28.7559 14.0745V11.2551C28.7559 11.0183 28.562 10.8235 28.3252 10.8235H6.5293C6.29249 10.8235 6.09863 11.0183 6.09863 11.2551V14.0745C6.09841 14.365 5.86379 14.5989 5.57324 14.5989C5.28277 14.5988 5.04905 14.3649 5.04883 14.0745V11.2551C5.04883 10.4388 5.713 9.77466 6.5293 9.77466H28.3232Z" fill="#396FB6" stroke="#396FB6" stroke-width="0.2"/>
<path d="M29.2812 13.5497C29.5717 13.5499 29.8057 13.7836 29.8057 14.0741V28.8114C29.8057 29.6278 29.1414 30.2919 28.3232 30.2919H6.5293C5.713 30.2919 5.04883 29.6277 5.04883 28.8114V14.0741C5.04883 13.7834 5.28255 13.5497 5.57324 13.5497H29.2812ZM6.09863 28.8124C6.09885 29.049 6.29262 29.243 6.5293 29.243H28.3232C28.5599 29.243 28.7537 29.049 28.7539 28.8124V14.5985H6.09863V28.8124Z" fill="#396FB6" stroke="#396FB6" stroke-width="0.2"/>
<path d="M8.55078 11.5287C8.91392 11.5288 9.20801 11.8228 9.20801 12.1859C9.20793 12.549 8.91387 12.8431 8.55078 12.8431C8.18761 12.8431 7.89363 12.5491 7.89355 12.1859C7.89355 11.8227 8.18758 11.5287 8.55078 11.5287Z" fill="#E1442A" stroke="#E1442A" stroke-width="0.2"/>
<path d="M10.7529 11.5287C11.1161 11.5288 11.4102 11.8228 11.4102 12.1859C11.4101 12.549 11.116 12.8431 10.7529 12.8431C10.3898 12.8431 10.0958 12.5491 10.0957 12.1859C10.0957 11.8227 10.3897 11.5287 10.7529 11.5287Z" fill="#069857" stroke="#069857" stroke-width="0.2"/>
<path d="M12.9502 11.5287C13.3133 11.5288 13.6074 11.8228 13.6074 12.1859C13.6073 12.549 13.3133 12.8431 12.9502 12.8431C12.587 12.8431 12.293 12.5491 12.293 12.1859C12.293 11.8227 12.587 11.5287 12.9502 11.5287Z" fill="#FDB415" stroke="#FDB415" stroke-width="0.2"/>
</svg>
