<svg width="36" height="40" viewBox="0 0 36 40" fill="none" xmlns="http://www.w3.org/2000/svg">
<path d="M21.333 -2.09808e-05C24.2785 -2.09808e-05 26.72 2.41106 26.1348 5.29786C25.795 6.97386 25.294 8.61733 24.6365 10.2049C23.2963 13.4402 21.3321 16.3799 18.8559 18.8562C16.3796 21.3324 13.4399 23.2966 10.2046 24.6368C8.61702 25.2943 6.97356 25.7953 5.29755 26.1351C2.41075 26.7203 -0.000328064 24.2788 -0.000326157 21.3333V14.8554C-0.000326157 12.542 1.94434 10.74 4.08163 9.85469C5.37577 9.31865 6.55165 8.53294 7.54214 7.54245C8.53264 6.55196 9.31834 5.37608 9.85439 4.08194C10.7397 1.94464 12.5417 -2.09808e-05 14.8551 -2.09808e-05H21.333Z" fill="#EEEEF0"/>
<g clip-path="url(#clip0_1_11169)">
<path d="M25.7204 19.2089V16.4825C25.7204 12.6656 22.7214 9.66663 18.9045 9.66663C15.0876 9.66663 12.0886 12.6656 12.0886 16.4825V19.2089C9.77116 19.2089 7.99902 20.981 7.99902 23.2984V32.8407C7.99902 35.1581 9.77116 36.9303 12.0886 36.9303H25.7204C28.0378 36.9303 29.8099 35.1581 29.8099 32.8407V23.2984C29.8099 20.981 28.0378 19.2089 25.7204 19.2089ZM14.8149 16.4825C14.8149 14.1651 16.5871 12.393 18.9045 12.393C21.2219 12.393 22.994 14.1651 22.994 16.4825V19.2089H14.8149V16.4825Z" fill="#396FB6"/>
<path d="M25.3779 26.9506C25.8993 26.0501 27.1994 26.0501 27.7207 26.9506L33.7607 37.3852C34.282 38.2856 33.6313 39.4164 32.5889 39.4164H20.5098C19.4674 39.4164 18.8166 38.2856 19.3379 37.3852L25.3779 26.9506ZM25.4971 37.5102H27.6016V35.4057H25.4971V37.5102ZM27.1016 35.9057V37.0102H25.9971V35.9057H27.1016ZM27.1016 33.2495C27.1016 33.5524 26.8527 33.802 26.5498 33.8022C26.2467 33.8022 25.9971 33.5525 25.9971 33.2495V31.6459C25.9971 31.3428 26.2467 31.0932 26.5498 31.0932C26.8527 31.0934 27.1016 31.343 27.1016 31.6459V33.2495ZM27.6016 31.6459C27.6016 31.0668 27.1289 30.5934 26.5498 30.5932C25.9706 30.5932 25.4971 31.0667 25.4971 31.6459V33.2495C25.4971 33.8287 25.9706 34.3022 26.5498 34.3022C27.1289 34.302 27.6016 33.8286 27.6016 33.2495V31.6459Z" fill="#E1442A" stroke="white" stroke-width="0.5"/>
</g>
<defs>
<clipPath id="clip0_1_11169">
<rect width="28" height="30" fill="white" transform="translate(7.66602 9.66663)"/>
</clipPath>
</defs>
</svg>
