<svg width="35" height="37" viewBox="0 0 35 37" fill="none" xmlns="http://www.w3.org/2000/svg">
<path d="M21.333 -8.2016e-05C24.2785 -8.2016e-05 26.72 2.411 26.1348 5.2978C25.795 6.9738 25.294 8.61727 24.6365 10.2048C23.2963 13.4402 21.3321 16.3799 18.8559 18.8561C16.3796 21.3323 13.4399 23.2966 10.2046 24.6367C8.61702 25.2943 6.97356 25.7953 5.29755 26.135C2.41075 26.7202 -0.000328064 24.2788 -0.000326157 21.3333V14.8554C-0.000326157 12.542 1.94434 10.7399 4.08163 9.85463C5.37577 9.31858 6.55165 8.53288 7.54214 7.54239C8.53264 6.5519 9.31834 5.37601 9.85439 4.08187C10.7397 1.94458 12.5417 -8.2016e-05 14.8551 -8.2016e-05H21.333Z" fill="#EEEEF0"/>
<path d="M10.999 25.6511C11.5295 25.6511 12.0382 25.8621 12.4132 26.2377C12.7883 26.6133 12.999 27.1227 12.999 27.6539V35.6651C12.999 35.9307 12.8937 36.1854 12.7061 36.3732C12.5186 36.561 12.2642 36.6665 11.999 36.6665H6.99902C6.73381 36.6665 6.47945 36.561 6.29192 36.3732C6.10438 36.1854 5.99902 35.9307 5.99902 35.6651V27.6539C5.99902 27.1227 6.20974 26.6133 6.58481 26.2377C6.95988 25.8621 7.46859 25.6511 7.99902 25.6511H10.999Z" fill="#E1442A"/>
<path d="M22.413 23.2317C22.0377 22.8569 21.5291 22.6465 20.999 22.6469H17.999C17.4686 22.6469 16.9599 22.8579 16.5848 23.2335C16.2097 23.6091 15.999 24.1186 15.999 24.6497V35.6651C15.999 35.9307 16.1044 36.1854 16.2919 36.3732C16.4795 36.561 16.7338 36.6665 16.999 36.6665H21.999C22.2642 36.6665 22.5186 36.561 22.7061 36.3732C22.8937 36.1854 22.999 35.9307 22.999 35.6651V24.6497C22.9992 24.3864 22.9476 24.1256 22.847 23.8823C22.7465 23.639 22.599 23.4179 22.413 23.2317Z" fill="#FDB415"/>
<path d="M30.999 19.6427C31.5295 19.6427 32.0382 19.8537 32.4132 20.2293C32.7883 20.6049 32.999 21.1144 32.999 21.6455V35.6651C32.999 35.9307 32.8937 36.1854 32.7061 36.3732C32.5186 36.561 32.2642 36.6665 31.999 36.6665H26.999C26.7338 36.6665 26.4795 36.561 26.2919 36.3732C26.1044 36.1854 25.999 35.9307 25.999 35.6651V21.6455C25.999 21.1144 26.2097 20.6049 26.5848 20.2293C26.9599 19.8537 27.4686 19.6427 27.999 19.6427H30.999Z" fill="#069857"/>
<path d="M25.493 9.10803C25.703 8.89715 25.9708 8.75352 26.2625 8.6954C26.5541 8.63727 26.8564 8.66727 27.131 8.78157L31.385 10.548C31.7519 10.6997 32.0437 10.9908 32.1967 11.3576C32.3496 11.7244 32.3512 12.1369 32.201 12.5048L30.463 16.7647C30.3507 17.0398 30.1595 17.2753 29.9135 17.4416C29.6675 17.6078 29.3778 17.6972 29.081 17.6985C28.7843 17.6997 28.4938 17.6129 28.2464 17.4488C27.999 17.2847 27.8057 17.0508 27.691 16.7767L27.005 15.1344L9.72902 22.5268C9.5478 22.6044 9.35309 22.6454 9.15601 22.6477C8.95893 22.6499 8.76334 22.6132 8.58041 22.5398C8.39748 22.4663 8.23079 22.3575 8.08985 22.2195C7.94892 22.0816 7.8365 21.9171 7.75902 21.7357C7.68154 21.5542 7.64052 21.3592 7.63829 21.1618C7.63606 20.9645 7.67266 20.7686 7.74602 20.5854C7.81938 20.4023 7.92805 20.2353 8.06583 20.0942C8.20361 19.9531 8.3678 19.8405 8.54902 19.7629L25.845 12.3626L25.173 10.7503C25.0577 10.4757 25.0265 10.1729 25.0835 9.88042C25.1405 9.58799 25.283 9.31912 25.493 9.10803Z" fill="#396FB6"/>
</svg>
