<svg width="35" height="35" viewBox="0 0 35 35" fill="none" xmlns="http://www.w3.org/2000/svg">
<path d="M21.333 9.53674e-06C24.2785 9.53674e-06 26.72 2.41109 26.1348 5.29789C25.795 6.97389 25.294 8.61736 24.6365 10.2049C23.2963 13.4403 21.3321 16.38 18.8559 18.8562C16.3796 21.3324 13.4399 23.2967 10.2046 24.6368C8.61702 25.2944 6.97356 25.7954 5.29755 26.1351C2.41075 26.7203 -0.000328064 24.2789 -0.000326157 21.3333V14.8554C-0.000326157 12.542 1.94434 10.74 4.08163 9.85472C5.37577 9.31868 6.55165 8.53297 7.54214 7.54248C8.53264 6.55199 9.31834 5.37611 9.85439 4.08197C10.7397 1.94467 12.5417 9.53674e-06 14.8551 9.53674e-06H21.333Z" fill="#EEEEF0"/>
<g clip-path="url(#clip0_1_11196)">
<mask id="mask0_1_11196" style="mask-type:luminance" maskUnits="userSpaceOnUse" x="9" y="8" width="17" height="27">
<path d="M9.62598 8.61566H25.9907V34.6667H9.62598V8.61566Z" fill="white"/>
</mask>
<g mask="url(#mask0_1_11196)">
<path d="M24.2512 8.61566H11.3691C10.9135 8.61566 10.4766 8.79866 10.1546 9.12426C9.83235 9.45006 9.65137 9.89181 9.65137 10.3523V32.9301C9.65137 33.3906 9.83236 33.8323 10.1546 34.1582C10.4766 34.4838 10.9135 34.6667 11.3691 34.6667H24.2512C24.7069 34.6667 25.1438 34.4837 25.4658 34.1582C25.788 33.8324 25.969 33.3906 25.969 32.9301V10.3523C25.969 9.8918 25.788 9.45007 25.4658 9.12426C25.1438 8.79866 24.7069 8.61566 24.2512 8.61566ZM25.11 32.9298H25.1102C25.1102 33.16 25.0197 33.381 24.8585 33.5438C24.6975 33.7066 24.4792 33.7981 24.2512 33.7981H11.3691C11.1414 33.7981 10.9229 33.7066 10.7619 33.5438C10.6008 33.381 10.5104 33.16 10.5104 32.9298V10.352C10.5104 10.1218 10.6008 9.90098 10.7619 9.73798C10.9229 9.57519 11.1414 9.48368 11.3691 9.48368H24.2512C24.4792 9.48368 24.6975 9.57518 24.8585 9.73798C25.0197 9.90098 25.1102 10.1218 25.1102 10.352L25.11 32.9298Z" fill="black"/>
<path d="M23.3908 10.3525H12.226C11.9982 10.3525 11.7797 10.444 11.6187 10.607C11.4577 10.7698 11.3672 10.9906 11.3672 11.221V14.6946V14.6944C11.3672 14.9246 11.4577 15.1456 11.6187 15.3084C11.7797 15.4712 11.9982 15.5627 12.226 15.5627H23.3908C23.6185 15.5627 23.8371 15.4712 23.9981 15.3084C24.1591 15.1456 24.2496 14.9246 24.2496 14.6944V11.221C24.2496 10.9906 24.1591 10.7698 23.9981 10.607C23.8371 10.444 23.6185 10.3525 23.3908 10.3525ZM12.226 14.6944V11.221H23.3908V14.6946L12.226 14.6944Z" fill="black"/>
<path d="M13.0848 19.9044H12.226C11.9982 19.9044 11.7797 19.9959 11.6187 20.1587C11.4577 20.3217 11.3672 20.5425 11.3672 20.7728V21.6413C11.3672 21.8716 11.4577 22.0924 11.6187 22.2554C11.7797 22.4181 11.9982 22.5097 12.226 22.5097H13.0848C13.3125 22.5097 13.531 22.4182 13.6921 22.2554C13.8531 22.0924 13.9436 21.8716 13.9436 21.6413V20.7728C13.9436 20.5425 13.8531 20.3217 13.6921 20.1587C13.531 19.996 13.3125 19.9044 13.0848 19.9044ZM12.226 21.6411V20.7728H13.0848V21.6411H12.226Z" fill="#396FB6"/>
<path d="M16.5203 19.9044H15.6615C15.4336 19.9044 15.2152 19.9959 15.0542 20.1587C14.893 20.3217 14.8027 20.5425 14.8027 20.7728V21.6413C14.8027 21.8716 14.893 22.0924 15.0542 22.2554C15.2152 22.4181 15.4336 22.5097 15.6615 22.5097H16.5203C16.748 22.5097 16.9666 22.4182 17.1276 22.2554C17.2886 22.0924 17.3791 21.8716 17.3791 21.6413V20.7728C17.3791 20.5425 17.2886 20.3217 17.1276 20.1587C16.9666 19.996 16.748 19.9044 16.5203 19.9044ZM15.6615 21.6411V20.7728H16.5203V21.6411H15.6615Z" fill="#396FB6"/>
<path d="M19.9551 19.9044H19.0961C18.8684 19.9044 18.65 19.9959 18.4888 20.1587C18.3278 20.3217 18.2373 20.5425 18.2373 20.7728V21.6413C18.2373 21.8716 18.3278 22.0924 18.4888 22.2554C18.65 22.4181 18.8684 22.5097 19.0961 22.5097H19.9551C20.1828 22.5097 20.4012 22.4182 20.5624 22.2554C20.7234 22.0924 20.8139 21.8716 20.8139 21.6413V20.7728C20.8139 20.5425 20.7234 20.3217 20.5624 20.1587C20.4012 19.996 20.1828 19.9044 19.9551 19.9044ZM19.0963 21.6411L19.0961 20.7728H19.9549V21.6411H19.0963Z" fill="#396FB6"/>
<path d="M23.3904 19.9044H22.5316C22.3039 19.9044 22.0854 19.9959 21.9244 20.1587C21.7633 20.3217 21.6729 20.5425 21.6729 20.7728V21.6413C21.6729 21.8716 21.7633 22.0924 21.9244 22.2554C22.0854 22.4181 22.3039 22.5097 22.5316 22.5097H23.3904C23.6182 22.5097 23.8367 22.4182 23.9977 22.2554C24.1587 22.0924 24.2492 21.8716 24.2492 21.6413V20.7728C24.2492 20.5425 24.1587 20.3217 23.9977 20.1587C23.8367 19.996 23.6182 19.9044 23.3904 19.9044ZM22.5316 21.6411V20.7728H23.3904V21.6411H22.5316Z" fill="#396FB6"/>
<path d="M13.0848 23.3784H12.226C11.9982 23.3784 11.7797 23.4699 11.6187 23.6327C11.4577 23.7955 11.3672 24.0164 11.3672 24.2467V25.115C11.3672 25.3455 11.4577 25.5663 11.6187 25.7291C11.7797 25.8921 11.9982 25.9834 12.226 25.9834H13.0848C13.3125 25.9834 13.531 25.8921 13.6921 25.7291C13.8531 25.5663 13.9436 25.3455 13.9436 25.115V24.2467C13.9436 24.0164 13.8531 23.7955 13.6921 23.6327C13.531 23.4699 13.3125 23.3784 13.0848 23.3784ZM12.226 25.115V24.2467H13.0848V25.115H12.226Z" fill="#069857"/>
<path d="M16.5203 23.3784H15.6615C15.4336 23.3784 15.2152 23.4699 15.0542 23.6327C14.893 23.7955 14.8027 24.0164 14.8027 24.2467V25.115C14.8027 25.3455 14.893 25.5663 15.0542 25.7291C15.2152 25.8921 15.4336 25.9834 15.6615 25.9834H16.5203C16.748 25.9834 16.9666 25.8921 17.1276 25.7291C17.2886 25.5663 17.3791 25.3455 17.3791 25.115V24.2467C17.3791 24.0164 17.2886 23.7955 17.1276 23.6327C16.9666 23.4699 16.748 23.3784 16.5203 23.3784ZM15.6615 25.115V24.2467H16.5203V25.115H15.6615Z" fill="#069857"/>
<path d="M19.9551 23.3784H19.0961C18.8684 23.3784 18.65 23.4699 18.4888 23.6327C18.3278 23.7955 18.2373 24.0164 18.2373 24.2467V25.115C18.2373 25.3455 18.3278 25.5663 18.4888 25.7291C18.65 25.8921 18.8684 25.9834 19.0961 25.9834H19.9551C20.1828 25.9834 20.4012 25.8921 20.5624 25.7291C20.7234 25.5663 20.8139 25.3455 20.8139 25.115V24.2467C20.8139 24.0164 20.7234 23.7955 20.5624 23.6327C20.4012 23.4699 20.1828 23.3784 19.9551 23.3784ZM19.0963 25.115L19.0961 24.2467H19.9549V25.115H19.0963Z" fill="#069857"/>
<path d="M23.3904 23.3784H22.5316C22.3039 23.3784 22.0854 23.4699 21.9244 23.6327C21.7633 23.7955 21.6729 24.0164 21.6729 24.2467V25.115C21.6729 25.3455 21.7633 25.5663 21.9244 25.7291C22.0854 25.8921 22.3039 25.9834 22.5316 25.9834H23.3904C23.6182 25.9834 23.8367 25.8921 23.9977 25.7291C24.1587 25.5663 24.2492 25.3455 24.2492 25.115V24.2467C24.2492 24.0164 24.1587 23.7955 23.9977 23.6327C23.8367 23.4699 23.6182 23.3784 23.3904 23.3784ZM22.5316 25.115V24.2467H23.3904V25.115H22.5316Z" fill="#069857"/>
<path d="M13.0848 26.8515H12.226C11.9982 26.8515 11.7797 26.943 11.6187 27.1058C11.4577 27.2686 11.3672 27.4896 11.3672 27.7199V28.5882C11.3672 28.8185 11.4577 29.0394 11.6187 29.2022C11.7797 29.365 11.9982 29.4565 12.226 29.4565H13.0848C13.3125 29.4565 13.531 29.365 13.6921 29.2022C13.8531 29.0394 13.9436 28.8185 13.9436 28.5882V27.7199C13.9436 27.4896 13.8531 27.2686 13.6921 27.1058C13.531 26.943 13.3125 26.8515 13.0848 26.8515ZM12.226 28.5882V27.7199H13.0848V28.5882H12.226Z" fill="#FDB415"/>
<path d="M16.5203 26.8515H15.6615C15.4336 26.8515 15.2152 26.943 15.0542 27.1058C14.893 27.2686 14.8027 27.4896 14.8027 27.7199V28.5882C14.8027 28.8185 14.893 29.0394 15.0542 29.2022C15.2152 29.365 15.4336 29.4565 15.6615 29.4565H16.5203C16.748 29.4565 16.9666 29.365 17.1276 29.2022C17.2886 29.0394 17.3791 28.8185 17.3791 28.5882V27.7199C17.3791 27.4896 17.2886 27.2686 17.1276 27.1058C16.9666 26.943 16.748 26.8515 16.5203 26.8515ZM15.6615 28.5882V27.7199H16.5203V28.5882H15.6615Z" fill="#FDB415"/>
<path d="M19.9551 26.8515H19.0961C18.8684 26.8515 18.65 26.943 18.4888 27.1058C18.3278 27.2686 18.2373 27.4896 18.2373 27.7199V28.5882C18.2373 28.8185 18.3278 29.0394 18.4888 29.2022C18.65 29.365 18.8684 29.4565 19.0961 29.4565H19.9551C20.1828 29.4565 20.4012 29.365 20.5624 29.2022C20.7234 29.0394 20.8139 28.8185 20.8139 28.5882V27.7199C20.8139 27.4896 20.7234 27.2686 20.5624 27.1058C20.4012 26.943 20.1828 26.8515 19.9551 26.8515ZM19.0963 28.5882L19.0961 27.7199H19.9549V28.5882H19.0963Z" fill="#FDB415"/>
<path d="M23.3904 26.8515H22.5316C22.3039 26.8515 22.0854 26.943 21.9244 27.1058C21.7633 27.2686 21.6729 27.4896 21.6729 27.7199V28.5882C21.6729 28.8185 21.7633 29.0394 21.9244 29.2022C22.0854 29.365 22.3039 29.4565 22.5316 29.4565H23.3904C23.6182 29.4565 23.8367 29.365 23.9977 29.2022C24.1587 29.0394 24.2492 28.8185 24.2492 28.5882V27.7199C24.2492 27.4896 24.1587 27.2686 23.9977 27.1058C23.8367 26.943 23.6182 26.8515 23.3904 26.8515ZM22.5316 28.5882V27.7199H23.3904V28.5882H22.5316Z" fill="#FDB415"/>
<path d="M13.0848 30.3247H12.226C11.9982 30.3247 11.7797 30.4162 11.6187 30.5792C11.4577 30.742 11.3672 30.9628 11.3672 31.1933V32.0616C11.3672 32.2919 11.4577 32.5126 11.6187 32.6756C11.7797 32.8384 11.9982 32.9299 12.226 32.9299H13.0848C13.3125 32.9299 13.531 32.8384 13.6921 32.6756C13.8531 32.5126 13.9436 32.2919 13.9436 32.0616V31.1933C13.9436 30.9628 13.8531 30.742 13.6921 30.5792C13.531 30.4162 13.3125 30.3247 13.0848 30.3247ZM12.226 32.0614V31.1933H13.0848V32.0616L12.226 32.0614Z" fill="#E1442A"/>
<path d="M16.5203 30.3247H15.6615C15.4336 30.3247 15.2152 30.4162 15.0542 30.5792C14.893 30.742 14.8027 30.9628 14.8027 31.1933V32.0616C14.8027 32.2919 14.893 32.5126 15.0542 32.6756C15.2152 32.8384 15.4336 32.9299 15.6615 32.9299H16.5203C16.748 32.9299 16.9666 32.8384 17.1276 32.6756C17.2886 32.5126 17.3791 32.2919 17.3791 32.0616V31.1933C17.3791 30.9628 17.2886 30.742 17.1276 30.5792C16.9666 30.4162 16.748 30.3247 16.5203 30.3247ZM15.6615 32.0614V31.1933H16.5203V32.0616L15.6615 32.0614Z" fill="#E1442A"/>
<path d="M19.9551 30.3247H19.0961C18.8684 30.3247 18.65 30.4162 18.4888 30.5792C18.3278 30.742 18.2373 30.9628 18.2373 31.1933V32.0616C18.2373 32.2919 18.3278 32.5126 18.4888 32.6756C18.65 32.8384 18.8684 32.9299 19.0961 32.9299H19.9551C20.1828 32.9299 20.4012 32.8384 20.5624 32.6756C20.7234 32.5126 20.8139 32.2919 20.8139 32.0616V31.1933C20.8139 30.9628 20.7234 30.742 20.5624 30.5792C20.4012 30.4162 20.1828 30.3247 19.9551 30.3247ZM19.0963 32.0614L19.0961 31.1933H19.9549V32.0616L19.0963 32.0614Z" fill="#E1442A"/>
<path d="M23.3904 30.3247H22.5316C22.3039 30.3247 22.0854 30.4162 21.9244 30.5792C21.7633 30.742 21.6729 30.9628 21.6729 31.1933V32.0616C21.6729 32.2919 21.7633 32.5126 21.9244 32.6756C22.0854 32.8384 22.3039 32.9299 22.5316 32.9299H23.3904C23.6182 32.9299 23.8367 32.8384 23.9977 32.6756C24.1587 32.5126 24.2492 32.2919 24.2492 32.0616V31.1933C24.2492 30.9628 24.1587 30.742 23.9977 30.5792C23.8367 30.4162 23.6182 30.3247 23.3904 30.3247ZM22.5316 32.0614V31.1933H23.3904V32.0616L22.5316 32.0614Z" fill="#E1442A"/>
<path d="M12.2264 17.2994H13.0852C13.3223 17.2994 13.5146 17.1049 13.5146 16.8652C13.5146 16.6254 13.3223 16.4311 13.0852 16.4311H12.2264C11.9892 16.4311 11.7969 16.6254 11.7969 16.8652C11.7969 17.1049 11.9892 17.2994 12.2264 17.2994Z" fill="black"/>
<path d="M14.8016 17.2994H15.6604C15.8975 17.2994 16.0896 17.1049 16.0896 16.8652C16.0896 16.6254 15.8975 16.4311 15.6604 16.4311H14.8016C14.5642 16.4311 14.3721 16.6254 14.3721 16.8652C14.3721 17.1049 14.5642 17.2994 14.8016 17.2994Z" fill="black"/>
<path d="M17.3787 17.2994H18.2375C18.4746 17.2994 18.667 17.1049 18.667 16.8652C18.667 16.6254 18.4746 16.4311 18.2375 16.4311H17.3787C17.1416 16.4311 16.9492 16.6254 16.9492 16.8652C16.9492 17.1049 17.1416 17.2994 17.3787 17.2994Z" fill="black"/>
<path d="M20.8146 16.4313H19.9559C19.7185 16.4313 19.5264 16.6256 19.5264 16.8653C19.5264 17.1051 19.7185 17.2996 19.9559 17.2996H20.8146C21.0518 17.2996 21.2439 17.1051 21.2439 16.8653C21.2439 16.6256 21.0518 16.4313 20.8146 16.4313Z" fill="black"/>
<path d="M22.5311 17.2994H23.3898C23.627 17.2994 23.8193 17.1049 23.8193 16.8652C23.8193 16.6254 23.627 16.4311 23.3898 16.4311H22.5311C22.2939 16.4311 22.1016 16.6254 22.1016 16.8652C22.1016 17.1049 22.2939 17.2994 22.5311 17.2994Z" fill="black"/>
<path d="M12.2264 19.0364H13.0852C13.3223 19.0364 13.5146 18.8421 13.5146 18.6024C13.5146 18.3624 13.3223 18.1681 13.0852 18.1681H12.2264C11.9892 18.1681 11.7969 18.3624 11.7969 18.6024C11.7969 18.8421 11.9892 19.0364 12.2264 19.0364Z" fill="black"/>
<path d="M15.6604 19.0364C15.8975 19.0364 16.0896 18.8421 16.0896 18.6024C16.0896 18.3624 15.8975 18.1681 15.6604 18.1681H14.8016C14.5642 18.1681 14.3721 18.3624 14.3721 18.6024C14.3721 18.8421 14.5642 19.0364 14.8016 19.0364H15.6604Z" fill="black"/>
<path d="M18.667 18.6021C18.667 18.4867 18.6216 18.3764 18.5411 18.295C18.4606 18.2134 18.3514 18.1678 18.2375 18.1678H17.3787C17.1416 18.1678 16.9492 18.3621 16.9492 18.6021C16.9492 18.8418 17.1416 19.0361 17.3787 19.0361H18.2375C18.3514 19.0361 18.4606 18.9905 18.5411 18.9089C18.6216 18.8275 18.667 18.7172 18.667 18.6021Z" fill="black"/>
<path d="M20.8146 18.1676H19.9559C19.7185 18.1676 19.5264 18.3619 19.5264 18.6019C19.5264 18.8416 19.7185 19.0359 19.9559 19.0359H20.8146C21.0518 19.0359 21.2439 18.8416 21.2439 18.6019C21.2439 18.3619 21.0518 18.1676 20.8146 18.1676Z" fill="black"/>
<path d="M22.5311 19.0364H23.3898C23.627 19.0364 23.8193 18.8421 23.8193 18.6024C23.8193 18.3624 23.627 18.1681 23.3898 18.1681H22.5311C22.2939 18.1681 22.1016 18.3624 22.1016 18.6024C22.1016 18.8421 22.2939 19.0364 22.5311 19.0364Z" fill="black"/>
<path d="M13.6397 12.2166L13.2102 12.6508V12.6506C13.1273 12.7316 13.0801 12.8427 13.0791 12.9593C13.0781 13.0756 13.1235 13.1877 13.2048 13.2699C13.2863 13.3523 13.3969 13.3982 13.5122 13.3971C13.6275 13.3961 13.7373 13.3483 13.8174 13.2646L14.2469 12.8304H14.2467C14.4095 12.6601 14.4071 12.3893 14.2415 12.2218C14.0759 12.0543 13.8081 12.0519 13.6397 12.2166Z" fill="black"/>
<path d="M15.7869 12.2165L14.9281 13.0849H14.9279C14.8452 13.1657 14.7979 13.277 14.7969 13.3933C14.7959 13.5099 14.8412 13.6218 14.9227 13.7042C15.004 13.7866 15.1149 13.8322 15.23 13.8312C15.3452 13.8302 15.4551 13.7825 15.5352 13.6987L16.394 12.8304C16.5568 12.6601 16.5544 12.3892 16.3888 12.2218C16.2232 12.0543 15.9554 12.0519 15.7869 12.2165Z" fill="black"/>
</g>
</g>
<defs>
<clipPath id="clip0_1_11196">
<rect width="24" height="26" fill="white" transform="translate(8 8.66666)"/>
</clipPath>
</defs>
</svg>
