<svg width="37" height="40" viewBox="0 0 37 40" fill="none" xmlns="http://www.w3.org/2000/svg">
<path d="M21.333 4.00543e-05C24.2785 4.00543e-05 26.72 2.41112 26.1348 5.29792C25.795 6.97392 25.294 8.61739 24.6365 10.2049C23.2963 13.4403 21.3321 16.38 18.8559 18.8562C16.3796 21.3325 13.4399 23.2967 10.2046 24.6368C8.61702 25.2944 6.97356 25.7954 5.29755 26.1351C2.41075 26.7203 -0.000328064 24.2789 -0.000326157 21.3334V14.8555C-0.000326157 12.5421 1.94434 10.7401 4.08163 9.85476C5.37577 9.31871 6.55165 8.533 7.54214 7.54251C8.53264 6.55202 9.31834 5.37614 9.85439 4.082C10.7397 1.9447 12.5417 4.00543e-05 14.8551 4.00543e-05H21.333Z" fill="#EEEEF0"/>
<g clip-path="url(#clip0_1_11051)">
<path d="M35.6662 24.9669V23.6669C35.6662 16.4869 29.8461 10.6667 22.6661 10.6667C15.4862 10.6667 9.66602 16.4869 9.66602 23.6669C9.66602 26.5932 10.6332 29.2946 12.266 31.4669" stroke="black" stroke-width="1.75" stroke-linecap="round" stroke-linejoin="round"/>
<path d="M23.9665 10.7302C23.9665 10.7302 27.8665 15.8653 27.8665 23.6653V24.9653M21.3664 10.7302C21.3664 10.7302 17.4664 15.8653 17.4664 23.6653V24.9653M10.4854 28.2167H12.2664M10.4854 19.1166H34.001M23.9665 36.6667V28.8667L27.8665 36.6667V28.8667M31.7665 36.6667H34.3666C34.8837 36.6667 35.3797 36.4613 35.7454 36.0956C36.1111 35.7299 36.3166 35.2339 36.3166 34.7167C36.3166 34.1996 36.1111 33.7036 35.7454 33.3379C35.3797 32.9722 34.8837 32.7667 34.3666 32.7667H33.7165C33.1994 32.7667 32.7034 32.5613 32.3377 32.1956C31.972 31.8299 31.7665 31.3339 31.7665 30.8167C31.7665 30.2995 31.972 29.8035 32.3377 29.4378C32.7034 29.0721 33.1994 28.8667 33.7165 28.8667H35.6666M16.1664 36.6667V28.8667H17.4664C18.156 28.8667 18.8173 29.1406 19.3049 29.6282C19.7925 30.1158 20.0664 30.7771 20.0664 31.4667V34.0667C20.0664 34.7563 19.7925 35.4176 19.3049 35.9052C18.8173 36.3928 18.156 36.6667 17.4664 36.6667H16.1664Z" stroke="url(#paint0_radial_1_11051)" stroke-width="1.75" stroke-linecap="round" stroke-linejoin="round"/>
</g>
<defs>
<radialGradient id="paint0_radial_1_11051" cx="0" cy="0" r="1" gradientUnits="userSpaceOnUse" gradientTransform="translate(23.401 23.6985) rotate(91.4349) scale(15.9733 15.9084)">
<stop stop-color="#396FB6"/>
<stop offset="0.538462" stop-color="#396FB6"/>
<stop offset="0.927885"/>
</radialGradient>
<clipPath id="clip0_1_11051">
<rect width="29" height="30" fill="white" transform="translate(7.99902 9.66675)"/>
</clipPath>
</defs>
</svg>
