<svg width="32" height="31" viewBox="0 0 32 31" fill="none" xmlns="http://www.w3.org/2000/svg">
<path d="M18.667 -4.19617e-05C21.2443 -4.19617e-05 23.3806 2.10965 22.8685 4.6356C22.5713 6.10211 22.1329 7.54014 21.5575 8.92924C20.3849 11.7602 18.6662 14.3324 16.4995 16.4991C14.3328 18.6658 11.7605 20.3845 8.9296 21.5571C7.5405 22.1325 6.10247 22.5709 4.63597 22.8682C2.11002 23.3802 0.000324249 21.2439 0.000324249 18.6666V12.9985C0.000324249 10.9742 1.7019 9.39747 3.57204 8.62283C4.70441 8.15379 5.73331 7.4663 6.59999 6.59962C7.46667 5.73294 8.15416 4.70404 8.6232 3.57167C9.39783 1.70154 10.9746 -4.19617e-05 12.9988 -4.19617e-05H18.667Z" fill="#EEEEF0"/>
<path d="M18.001 27.3333C17.1843 27.3333 16.494 27.0489 15.9301 26.4803C15.3663 25.9117 15.0843 25.2156 15.0843 24.3921C15.0843 23.5685 15.3663 22.8725 15.9301 22.3038C16.494 21.7352 17.1843 21.4509 18.001 21.4509C18.8176 21.4509 19.5079 21.7352 20.0718 22.3038C20.6357 22.8725 20.9176 23.5685 20.9176 24.3921C20.9176 25.2156 20.6357 25.9117 20.0718 26.4803C19.5079 27.0489 18.8176 27.3333 18.001 27.3333Z" fill="#E1442A"/>
<path d="M11.4093 20.6862L8.95931 18.1568C10.1065 16.9999 11.4533 16.0834 12.9995 15.4074C14.5457 14.7313 16.2129 14.3929 18.001 14.3921C19.7891 14.3913 21.4566 14.7344 23.0036 15.4215C24.5506 16.1085 25.897 17.0399 27.0426 18.2156L24.5926 20.6862C23.7371 19.8234 22.7454 19.147 21.6176 18.6568C20.4899 18.1666 19.2843 17.9215 18.001 17.9215C16.7176 17.9215 15.5121 18.1666 14.3843 18.6568C13.2565 19.147 12.2649 19.8234 11.4093 20.6862Z" fill="#FDB415"/>
<path d="M6.45098 15.6862L4.00098 13.2156C5.78987 11.3725 7.88014 9.93129 10.2718 8.89208C12.6635 7.85286 15.2399 7.33325 18.001 7.33325C20.7621 7.33325 23.3385 7.85286 25.7301 8.89208C28.1218 9.93129 30.2121 11.3725 32.001 13.2156L29.551 15.6862C28.0538 14.1764 26.3185 12.9952 24.3453 12.1427C22.3721 11.2901 20.2573 10.8634 18.001 10.8627C15.7446 10.8619 13.6303 11.2885 11.6578 12.1427C9.68537 12.9968 7.94975 14.178 6.45098 15.6862Z" fill="#069857"/>
</svg>
