<svg width="31" height="31" viewBox="0 0 31 31" fill="none" xmlns="http://www.w3.org/2000/svg">
<path d="M18.667 -4.19617e-05C21.2443 -4.19617e-05 23.3806 2.10965 22.8685 4.6356C22.5713 6.10211 22.1329 7.54014 21.5575 8.92924C20.3849 11.7602 18.6662 14.3324 16.4995 16.4991C14.3328 18.6658 11.7605 20.3845 8.9296 21.5571C7.5405 22.1325 6.10247 22.5709 4.63597 22.8682C2.11002 23.3802 0.000324249 21.2439 0.000324249 18.6666V12.9985C0.000324249 10.9742 1.7019 9.39747 3.57204 8.62283C4.70441 8.15379 5.73331 7.4663 6.59999 6.59962C7.46667 5.73294 8.15416 4.70404 8.6232 3.57167C9.39783 1.70154 10.9746 -4.19617e-05 12.9988 -4.19617e-05H18.667Z" fill="#E7E7EA"/>
<path fill-rule="evenodd" clip-rule="evenodd" d="M19.6884 15.4254C19.6884 17.6195 17.8895 19.4048 15.6778 19.4048C13.4661 19.4048 11.6661 17.6204 11.6661 15.4254C11.6661 13.2314 13.466 11.4471 15.6778 11.4471C17.8897 11.4482 19.6884 13.2326 19.6884 15.4254ZM17.2315 13.7621C17.4088 13.5748 17.7049 13.5666 17.8926 13.7424C18.0804 13.9183 18.0897 14.2121 17.9114 14.3993L15.3544 17.0919C15.2668 17.185 15.1427 17.2378 15.0144 17.2378C15.0103 17.2378 15.0061 17.2378 15.0019 17.2368C14.8695 17.2336 14.7443 17.1747 14.6578 17.0733L13.4283 15.6334C13.2614 15.4368 13.2854 15.1441 13.4825 14.9786C13.6796 14.812 13.9747 14.8369 14.1416 15.0324L15.0332 16.0761L17.2315 13.7621Z" fill="#069857"/>
<path d="M20.9188 22.6013L23.1307 26.4009L20.922 25.8144C20.8031 25.7823 20.6748 25.7989 20.5674 25.8609C20.46 25.923 20.3818 26.0244 20.3495 26.1433L19.7571 28.3332L17.2564 24.0361C17.5004 23.8168 17.7007 23.5416 17.8404 23.223L17.854 23.193C18.1605 22.4937 18.9604 22.1648 19.681 22.4462L19.7113 22.4575C20.1075 22.6137 20.5215 22.6582 20.9188 22.6013Z" fill="#E1442A"/>
<path d="M13.5138 23.222L13.5002 23.1899C13.1926 22.4917 12.3938 22.1638 11.6784 22.4441L11.6398 22.4586C11.2446 22.6138 10.8317 22.6582 10.4354 22.6013L8.22351 26.4009L10.4322 25.8144C10.6815 25.7472 10.938 25.8951 11.0047 26.1423L11.5981 28.3333L14.0988 24.0371C13.8558 23.8179 13.6556 23.5447 13.5159 23.2272L13.5147 23.2246L13.5138 23.222Z" fill="#E1442A"/>
<path fill-rule="evenodd" clip-rule="evenodd" d="M24.0223 15.4254C24.0223 16.0037 23.7042 16.4857 23.1713 16.7175L23.139 16.7309L23.137 16.7318L23.1348 16.733C21.9648 17.2378 21.4152 18.5556 21.8814 19.7286L21.896 19.7658C22.1097 20.3048 21.9909 20.8706 21.5789 21.2792C21.41 21.4468 21.214 21.5647 21.0054 21.6309L21.0044 21.6319C20.703 21.7281 20.3734 21.7178 20.0512 21.5916L20.021 21.5802C18.8332 21.1157 17.5046 21.6619 16.9947 22.8267L16.9821 22.8567C16.7496 23.3863 16.2626 23.7028 15.6776 23.7028H15.6744C15.0946 23.7028 14.6087 23.3873 14.3761 22.8577L14.3625 22.8267C14.3625 22.8267 14.3615 22.8236 14.3605 22.8215C13.8516 21.6609 12.524 21.1157 11.3406 21.5781L11.302 21.5926C10.9839 21.7167 10.6564 21.7271 10.3572 21.6329L10.3478 21.6298C10.1413 21.5626 9.94628 21.4457 9.77838 21.2792C9.36541 20.8695 9.24653 20.3047 9.4624 19.7616L9.47387 19.7316C9.94106 18.5555 9.39149 17.2376 8.22143 16.7318L8.21935 16.7308L8.21726 16.7297L8.18494 16.7163C7.65205 16.4856 7.33398 16.0025 7.33398 15.4243C7.33398 14.846 7.65309 14.363 8.18702 14.1333L8.19171 14.1312L8.1964 14.1292L8.22664 14.1147C9.39358 13.6088 9.94107 12.293 9.47596 11.1209L9.46136 11.0827C9.24758 10.5448 9.36646 9.97892 9.77942 9.57034C10.1903 9.16276 10.7576 9.04381 11.2988 9.25277L11.328 9.26519L11.3332 9.26777L11.3385 9.27036C12.5262 9.73275 13.8548 9.18657 14.3648 8.02181L14.3783 7.99077C14.6078 7.46321 15.0948 7.14771 15.6777 7.14771C16.2606 7.14771 16.7476 7.46321 16.9802 7.99284L16.9958 8.02904C17.3806 8.91038 18.2389 9.43691 19.1503 9.43691C19.4392 9.43691 19.7333 9.38415 20.019 9.27243C20.0221 9.2714 20.0263 9.26933 20.0294 9.26726L20.0586 9.25485C20.5999 9.04693 21.1672 9.16382 21.578 9.57242C21.991 9.97999 22.1088 10.5458 21.894 11.0879L21.8826 11.1189C21.4143 12.2961 21.9628 13.6109 23.1298 14.1166L23.16 14.1311L23.1647 14.1332L23.1694 14.1352C23.7033 14.3649 24.0223 14.8482 24.0223 15.4254ZM15.6778 10.5192C18.4057 10.5192 20.6238 12.7204 20.6238 15.4254C20.6238 18.1315 18.4048 20.3327 15.6778 20.3327C12.9498 20.3327 10.7306 18.1314 10.7306 15.4254C10.7306 12.7195 12.9498 10.5192 15.6778 10.5192Z" fill="#396FB6"/>
</svg>
