<svg width="32" height="33" viewBox="0 0 32 33" fill="none" xmlns="http://www.w3.org/2000/svg">
<path d="M18.667 8.01086e-05C21.2443 8.01086e-05 23.3806 2.10977 22.8685 4.63573C22.5713 6.10223 22.1329 7.54026 21.5575 8.92936C20.3849 11.7603 18.6662 14.3325 16.4995 16.4992C14.3328 18.6659 11.7605 20.3847 8.9296 21.5573C7.5405 22.1327 6.10247 22.571 4.63597 22.8683C2.11002 23.3803 0.000324249 21.2441 0.000324249 18.6667V12.9986C0.000324249 10.9744 1.7019 9.39759 3.57204 8.62296C4.70441 8.15391 5.73331 7.46642 6.59999 6.59974C7.46667 5.73306 8.15416 4.70416 8.6232 3.57179C9.39783 1.70166 10.9746 8.01086e-05 12.9988 8.01086e-05H18.667Z" fill="#EEEEF0"/>
<path d="M16.2995 20.2153L10.3535 22.7885V24.2201L16.2995 26.8056V25.132L12.151 23.4873L16.2995 21.9013V20.2153Z" fill="#299D8F"/>
<path d="M20.2455 18.9729H18.9974L16.8496 27.9414H18.0738L20.2455 18.9729Z" fill="black"/>
<path d="M20.7959 20.2268V21.8897L24.9493 23.5046L20.7959 25.1377V26.8121L26.7476 24.22V22.8L20.7959 20.2268Z" fill="#299D8F"/>
<path d="M7.51477 12.1604L13.7292 12.1736L14.8138 13.2466L15.055 13.4854H15.3945H30.9417V31.5074H6.16004V13.5085L7.51477 12.1604ZM7.17444 11.3335L5.33398 13.1649V32.3335H31.7678V12.6593H15.3937L14.0687 11.3484L7.17444 11.3335Z" fill="#396FB6"/>
<path d="M31.7678 14.7517H5.33398V15.5778H31.7678V14.7517Z" fill="#1F62FF"/>
</svg>
