<svg width="35" height="35" viewBox="0 0 35 35" fill="none" xmlns="http://www.w3.org/2000/svg">
<path d="M21.333 4.00543e-05C24.2785 4.00543e-05 26.72 2.41112 26.1348 5.29792C25.795 6.97392 25.294 8.61739 24.6365 10.2049C23.2963 13.4403 21.3321 16.38 18.8559 18.8562C16.3796 21.3325 13.4399 23.2967 10.2046 24.6368C8.61702 25.2944 6.97356 25.7954 5.29755 26.1351C2.41075 26.7203 -0.000328064 24.2789 -0.000326157 21.3334V14.8555C-0.000326157 12.5421 1.94434 10.7401 4.08163 9.85476C5.37577 9.31871 6.55165 8.533 7.54214 7.54251C8.53264 6.55202 9.31834 5.37614 9.85439 4.082C10.7397 1.9447 12.5417 4.00543e-05 14.8551 4.00543e-05H21.333Z" fill="#EEEEF0"/>
<path d="M12.999 30.0833C13.4157 30.0833 13.7699 29.9374 14.0615 29.6458L17.3115 26.3958C17.6032 26.1041 17.749 25.7499 17.749 25.3333C17.749 24.8958 17.5824 24.5208 17.249 24.2083C17.2178 24.2395 17.1214 24.3385 16.96 24.5051C16.7985 24.6718 16.6865 24.7838 16.624 24.8411C16.5615 24.8984 16.4626 24.9765 16.3271 25.0754C16.1917 25.1744 16.0589 25.2421 15.9287 25.2786C15.7985 25.315 15.6553 25.3333 15.499 25.3333C15.0824 25.3333 14.7282 25.1874 14.4365 24.8958C14.1449 24.6041 13.999 24.2499 13.999 23.8333C13.999 23.677 14.0173 23.5338 14.0537 23.4036C14.0902 23.2734 14.1579 23.1405 14.2568 23.0051C14.3558 22.8697 14.4339 22.7708 14.4912 22.7083C14.5485 22.6458 14.6605 22.5338 14.8271 22.3723C14.9938 22.2109 15.0928 22.1145 15.124 22.0833C14.8011 21.7395 14.4209 21.5676 13.9834 21.5676C13.5667 21.5676 13.2126 21.7135 12.9209 22.0051L9.68652 25.2239C9.40527 25.5051 9.26465 25.8593 9.26465 26.2864C9.26465 26.703 9.40006 27.0572 9.6709 27.3489L11.9521 29.6458C12.2438 29.9374 12.5928 30.0833 12.999 30.0833ZM24.0146 19.0989C24.4313 19.0989 24.7855 18.953 25.0771 18.6614L28.3115 15.4426C28.6032 15.151 28.749 14.7968 28.749 14.3801C28.749 13.9739 28.6084 13.6197 28.3271 13.3176L26.0459 11.0208C25.7542 10.7291 25.4053 10.5833 24.999 10.5833C24.5824 10.5833 24.2282 10.7291 23.9365 11.0208L20.6865 14.2708C20.4053 14.552 20.2646 14.9062 20.2646 15.3333C20.2646 15.7708 20.4261 16.1458 20.749 16.4583C20.7803 16.427 20.8766 16.328 21.0381 16.1614C21.1995 15.9947 21.3115 15.8827 21.374 15.8254C21.4365 15.7681 21.5355 15.69 21.6709 15.5911C21.8063 15.4921 21.9391 15.4244 22.0693 15.3879C22.1995 15.3515 22.3428 15.3333 22.499 15.3333C22.9157 15.3333 23.2699 15.4791 23.5615 15.7708C23.8532 16.0624 23.999 16.4166 23.999 16.8333C23.999 16.9895 23.9808 17.1327 23.9443 17.2629C23.9079 17.3931 23.8402 17.526 23.7412 17.6614C23.6423 17.7968 23.5641 17.8958 23.5068 17.9583C23.4495 18.0208 23.3376 18.1327 23.1709 18.2942C23.0042 18.4556 22.9053 18.552 22.874 18.5833C23.1969 18.927 23.5771 19.0989 24.0146 19.0989ZM12.999 33.0833C11.749 33.0833 10.6917 32.6405 9.82715 31.7551L7.5459 29.4583C6.68131 28.5937 6.24902 27.5364 6.24902 26.2864C6.24902 25.026 6.69173 23.9635 7.57715 23.0989L10.8115 19.8801C11.6761 19.0155 12.7334 18.5833 13.9834 18.5833C15.2646 18.5833 16.3532 19.0416 17.249 19.9583L18.624 18.5833C17.7074 17.6874 17.249 16.6041 17.249 15.3333C17.249 14.0833 17.6865 13.0208 18.5615 12.1458L21.8115 8.89575C22.6865 8.02075 23.749 7.58325 24.999 7.58325C26.249 7.58325 27.3063 8.02596 28.1709 8.91138L30.4521 11.2083C31.3167 12.0728 31.749 13.1301 31.749 14.3801C31.749 15.6405 31.3063 16.703 30.4209 17.5676L27.1865 20.7864C26.3219 21.651 25.2646 22.0833 24.0146 22.0833C22.7334 22.0833 21.6449 21.6249 20.749 20.7083L19.374 22.0833C20.2907 22.9791 20.749 24.0624 20.749 25.3333C20.749 26.5833 20.3115 27.6458 19.4365 28.5208L16.1865 31.7708C15.3115 32.6458 14.249 33.0833 12.999 33.0833Z" fill="#E1442A"/>
</svg>
