<svg width="841" height="513" viewBox="0 0 841 513" fill="none" xmlns="http://www.w3.org/2000/svg">
<mask id="mask0_17964_11344" style="mask-type:luminance" maskUnits="userSpaceOnUse" x="0" y="0" width="841" height="513">
<path d="M0 0H840.339V512.5H0V0Z" fill="white"/>
</mask>
<g mask="url(#mask0_17964_11344)">
<path d="M235.3 505L234.46 501.85L233.619 500.275H231.938L229.417 501.85L228.576 504.212L227.736 505.787L224.374 504.212L221.012 501.85L219.331 501.063L222.693 505L225.214 507.362L228.576 509.724L231.098 510.511L232.778 511.298L235.3 512.086L236.981 510.511L237.821 508.936L238.662 510.511H241.183L242.024 508.936L238.662 508.149L235.3 505ZM741.178 462.489C740.338 462.489 739.497 463.276 737.816 463.276L735.295 462.489H733.614V464.063L735.295 466.425V468L736.976 470.362H739.497L741.178 468L742.019 468.787V466.425L742.859 465.638V462.489H741.178ZM802.521 463.276L800.84 464.851C800.84 464.063 800 463.276 800 462.489L798.319 463.276V464.851L797.478 465.638L796.638 468L794.957 469.575C794.116 470.362 792.435 471.149 791.595 471.937L789.914 472.724L786.552 475.873L785.711 478.236V479.023H788.233L789.914 479.81H792.435C793.276 479.023 794.116 478.236 795.797 477.448L797.478 474.299L798.319 471.937L800 471.149H801.681L800.84 469.575L801.681 468C802.521 467.213 803.362 465.638 804.202 464.063V462.489L802.521 463.276ZM810.926 454.615H809.245L806.724 453.828V451.466L805.883 450.678V452.253L804.202 449.104L803.362 446.742L801.681 445.954L800 445.173H799.159L800 446.748L801.681 449.11L802.521 449.897V450.684L803.362 452.259V456.196L801.681 456.983V457.771L804.202 458.558L805.043 460.133L803.362 462.495L804.202 463.282V464.069L805.883 463.282C806.724 461.707 807.564 460.133 808.405 459.345V457.771L809.245 456.983H810.926L811.767 455.408L812.607 453.046H811.767L810.926 454.615ZM511.759 394.788L510.919 393.214L509.238 391.639L508.397 392.426V394.001L506.716 395.576H505.876V396.363L502.514 399.513H501.673L500.833 400.3L499.152 401.087H498.311V402.662L497.471 404.237V406.599L498.311 408.173L499.152 408.961V410.535L498.311 412.11V412.897L497.471 413.685V416.834L498.311 418.409V420.771L499.152 422.346C499.992 423.133 501.673 423.133 502.514 423.92L505.876 422.346L506.716 419.196C507.557 414.472 509.238 409.748 510.919 405.811V404.237L511.759 403.449V402.662L510.919 401.087L511.759 400.3L512.6 401.874V400.3L511.759 399.512L511.759 394.788ZM753.782 425.488V423.914L752.941 421.552L751.26 419.977C750.42 419.19 749.579 418.402 748.739 417.615V415.253H747.898L747.058 414.466L746.217 415.253L745.377 412.891L743.696 411.316V410.529C742.855 409.742 741.174 408.954 740.334 408.167L737.812 406.592L736.972 405.017V403.443L736.131 401.868H735.291C735.291 401.081 734.45 399.506 734.45 398.719V397.931L732.769 396.357L731.088 397.144V392.426L730.248 391.639V390.851H729.407V389.277L728.567 388.489L727.726 389.277V390.064L726.045 393.213V394.001L725.205 394.788V399.512L724.364 401.087V402.662L723.524 403.449L722.683 405.024L721.002 405.811L718.481 405.024V404.236L717.64 403.449H716.8L714.278 401.087L714.285 398.725L712.604 397.938V397.15L714.285 395.575V394.788H715.125L715.966 394.001L716.806 392.426L714.285 390.851H713.444L711.763 391.639L710.082 390.851H709.242L707.561 390.064L706.72 389.277L705.039 388.489H704.199L705.88 389.277V390.064L704.199 390.851H703.358L701.677 391.639L700.837 393.213V394.001L699.996 394.788L699.156 396.363L699.996 397.938H696.634L694.953 396.363L693.273 395.575C692.432 395.575 691.592 396.363 690.751 396.363V397.15H689.911V397.938H687.396L685.715 398.725V400.3L684.874 399.512L684.034 400.3L684.874 401.087L684.034 401.874L683.193 399.512L681.512 401.087V403.449L679.831 404.236L678.991 405.811L677.31 406.598L674.788 407.386H672.267V408.173H670.586L668.905 408.96H667.224L665.543 409.748L664.702 410.535L662.181 415.259V413.685L661.34 415.259V418.409L660.5 419.196V420.771L661.34 421.558V422.345L662.181 423.92V425.495L660.5 423.92L661.34 426.282L660.5 425.495V426.282L662.181 427.857V429.431L663.021 430.219V431.006L663.862 432.581V435.73L664.702 438.092V442.816H663.862V444.391L665.543 445.178L668.064 446.753H671.426L673.107 445.178H673.948L675.629 443.604H678.991L680.672 444.391H684.034L684.874 443.604L685.715 442.029L687.396 441.242L689.917 439.667H692.438C694.12 438.88 696.641 438.092 698.322 438.092H702.524L705.046 439.667H706.727L710.089 441.242L709.248 442.029L711.77 444.391V445.966L713.451 446.753L714.291 444.391L715.972 443.604L717.653 441.242V442.816L716.813 444.391V445.966L715.972 447.54L717.653 446.753L718.494 445.178L719.334 447.54L718.494 449.115H721.015L721.856 449.902L722.696 451.477L722.69 453.04L724.371 454.614L726.892 455.402H728.573C729.414 455.402 731.095 456.189 731.935 456.976L733.616 454.614L735.297 453.827V455.402L736.978 456.189L738.659 457.764L741.18 455.402L743.702 454.614H746.223L747.904 453.827V451.465L748.745 449.103L749.585 447.528L750.426 445.166L751.266 443.591L752.107 441.229L753.788 439.655L754.628 437.293L755.469 435.718V434.143C755.469 433.356 756.309 431.781 756.309 430.994V428.632L755.469 426.27L753.782 425.488ZM687.395 383.771L684.873 385.346L684.033 386.921V387.708L685.714 386.921L687.395 385.346C689.076 384.559 690.757 384.559 691.597 383.771L692.438 382.984H689.076L687.395 383.771ZM671.425 382.984L670.585 382.197L669.744 382.984H668.063L667.223 384.559H668.904C670.585 384.559 671.425 383.771 673.106 383.771L672.266 382.984H671.425ZM678.99 382.984L677.309 382.197L675.628 382.984V383.771H678.99L682.352 382.984V381.409L680.671 382.984H678.99ZM663.021 383.771L665.542 382.984L663.021 381.409L659.659 380.622L658.818 379.047L654.616 378.26L653.775 379.047H649.573V378.26H648.732L647.051 377.472H644.53L642.849 379.834H645.37V380.622L649.573 381.409H652.094L657.137 382.984H662.18L663.021 383.771ZM740.334 377.473L736.132 375.898V374.323H735.291L733.61 373.536L725.205 370.386L722.69 369.599C721.85 368.812 720.169 368.812 719.328 368.024H717.647L714.285 369.599L712.604 371.961L710.083 370.386L709.242 366.45V365.662L705.88 364.875L705.04 365.662L700.837 366.45L701.678 367.237L703.359 368.024L704.199 369.599H707.561V370.386H705.88L703.359 371.174L705.04 371.961V372.749L705.88 373.536H706.721L707.561 372.749L710.923 375.111H712.604L716.807 376.685L717.647 378.26L718.488 380.622L716.807 381.409L715.966 382.984H719.328L720.169 382.197L722.69 382.984L724.371 384.559H728.574L730.255 383.771V382.197L733.617 380.622L736.979 381.409L737.819 382.984L741.181 386.133C742.862 386.133 743.703 386.921 745.383 386.921L746.224 387.708H747.905V386.921L745.383 386.133L746.224 385.346H744.543V384.559H742.862L742.015 382.197L739.494 380.622V379.047H742.015L740.334 377.473ZM673.947 367.237V368.812L673.107 370.386L673.947 371.961H674.788V374.323L673.947 376.685L674.788 377.472H676.469V371.961L678.15 371.174V373.536L679.831 375.11V375.898L680.671 376.685L683.193 375.898H680.671L681.512 376.685L682.352 375.898V374.323L679.831 371.961L680.671 371.174L678.15 368.024L679.831 367.237L680.671 365.662H681.512V364.875L678.99 366.45L677.309 367.237L675.628 365.662V364.087H681.512L684.033 364.875L685.714 364.087L687.395 361.725V360.938L684.874 362.513H678.99L677.309 361.725L674.788 364.087L673.947 367.237ZM642.855 373.536L643.695 371.174L642.855 369.599H641.174L640.333 368.024V366.45H638.652L636.971 365.662L637.812 364.087L636.131 363.3L632.769 360.151H630.247L627.726 357.789L626.045 357.001L624.364 355.427L622.683 353.065C621.002 353.065 619.321 352.277 617.64 352.277V353.065L621.843 357.001L622.683 358.576L625.204 360.151L626.885 363.3L628.566 364.875L631.088 369.599L632.769 371.174L633.609 372.748L636.971 374.323L638.652 375.898H641.174L642.855 373.536ZM668.063 349.134L667.222 350.709L663.02 354.646L662.179 356.22L660.498 357.795L657.977 358.582L655.462 358.576V360.151L653.781 360.938L652.1 360.151L650.419 361.725V365.662L651.259 367.237L652.1 368.024V371.174H655.462L656.302 371.961L658.824 371.174L659.664 371.961H661.345L662.186 373.536L664.707 372.748V373.536L665.548 370.386V368.024L668.069 366.45V364.088L668.91 362.513H671.431L668.91 360.151V359.363L667.229 357.001L668.91 354.639L670.591 353.852V353.065H672.272V352.277C671.431 352.277 669.75 351.49 668.91 350.703V349.915L668.069 349.128L668.063 349.134ZM684.032 345.197L680.67 346.772V349.134L682.351 347.559H683.192L684.032 346.772L685.713 347.559L684.873 348.347L685.713 349.921L688.235 351.496L689.075 350.709L688.235 349.134L689.075 348.347L689.916 350.709L690.756 348.347C690.756 346.772 689.916 345.197 689.916 343.623L688.235 342.835V344.41H686.554V345.197L684.873 345.985L684.032 345.197ZM682.351 340.473V342.048L681.511 342.835L683.192 344.41L684.032 343.623L684.873 342.048L685.713 341.261V338.899L684.032 341.261V339.686L682.351 340.473ZM673.106 341.261L672.265 342.835L670.584 344.41L669.744 345.985L673.106 343.623L673.946 342.048L675.627 340.473V338.899L673.106 341.261ZM689.075 337.324L688.235 336.537H685.713L687.394 338.111V338.899L685.713 338.899V340.473H686.554V342.048L687.394 341.261L686.554 339.686V338.899L688.235 339.686L689.075 337.324ZM681.511 323.158H677.308L676.468 325.52V329.456L675.627 328.669V331.818L676.468 333.393V332.606L677.308 333.393L676.468 334.181V334.968L677.308 335.755H679.83L681.511 337.33L682.351 336.543L683.192 338.117L684.873 338.905V333.387L682.351 331.812H680.67L679.83 330.238V328.663L681.511 327.876L682.351 326.301L680.67 324.726L681.511 323.158ZM215.13 320.008H220.173V319.221L218.492 317.646H216.811V316.859L215.13 316.072H214.289C212.608 315.284 211.768 313.71 210.087 312.922H207.565L206.725 312.135L204.203 311.347H198.32L194.958 314.497H196.639V313.709H197.479L199.16 312.135H201.682V313.709L202.522 314.497H205.884L206.725 315.284L209.246 316.072H210.927L211.768 317.646L212.608 318.434H214.289L215.13 319.221L213.449 320.796L215.13 320.008ZM706.73 286.946L707.571 286.158L708.411 286.946L710.092 285.371V284.584L708.411 283.796L707.571 284.584H705.89L704.209 286.158V287.733L705.89 288.521L706.73 286.946ZM720.178 274.348L716.816 277.498L715.135 275.923L712.614 280.647L710.092 279.86L705.049 280.647L703.368 282.222L700.847 283.796L700.006 285.371L697.485 286.158L698.326 287.733L700.006 288.52L699.166 290.882L700.006 291.67L701.687 290.882L703.368 286.158L700.847 284.584H703.368L705.89 283.009L710.092 282.222L710.092 284.584L711.773 285.371L715.135 282.222H719.338L722.7 280.647L723.54 279.072V277.498L724.381 275.136V271.986L726.902 268.837V266.475L726.062 264.113L723.54 264.9L722.7 266.475V269.624L720.178 274.348ZM723.54 258.608L722.7 260.963V264.113H725.221L726.902 260.963L730.264 263.326L731.945 260.176L735.307 259.389L734.467 256.239L733.62 256.245H731.939L730.258 255.458L727.736 252.309L726.896 254.671L726.055 258.608L723.54 258.608ZM263.865 232.625L264.705 231.837H263.865L261.343 232.625L259.662 234.987L257.141 240.498L255.46 242.86L256.3 243.648L254.619 244.435V245.222H261.343L263.865 246.01L262.184 247.584H263.865L266.386 244.435L267.227 245.222L266.386 247.584L268.908 248.372H269.748L270.589 245.222L269.748 242.86V241.286L268.067 242.073L268.908 239.711L266.386 238.924L265.546 239.711L263.865 238.924L264.705 237.349L263.024 236.562L261.343 237.349C262.184 235.774 263.024 234.199 263.865 232.625ZM726.893 230.263L728.574 233.412V238.136L727.733 240.498V247.584L728.574 249.946L730.255 247.584L731.936 249.159V246.797L729.414 243.648L731.095 238.924L734.457 239.711L731.089 234.2L730.248 230.263V227.113C729.408 224.751 729.408 223.177 728.567 220.815L727.727 221.602L728.567 223.177L726.046 224.751L726.893 230.263ZM373.951 231.05L378.153 228.688L379.834 225.539V223.177L380.675 220.815L378.153 218.459H376.472C374.791 220.033 373.11 221.608 371.429 223.183L372.27 227.119L370.589 231.056L373.951 231.05ZM381.515 217.671L383.196 216.096L384.037 216.884L383.196 218.459L384.037 219.246L386.558 220.033L388.239 222.395V224.757H384.877L384.037 227.119L385.718 228.694L383.196 229.481L384.037 231.056L387.399 231.843L384.037 232.625L380.675 236.561L381.515 237.349L383.196 235.774H385.718L387.399 234.199L388.239 234.987L392.442 234.199H395.804L398.325 232.625L397.485 231.05L398.325 230.263V227.901L395.804 227.113L394.957 225.545L393.276 221.608L391.595 220.821L389.073 216.097H386.552L389.073 212.16L389.914 209.01H384.877L387.399 204.286H383.196L381.515 207.436L380.675 211.372L381.515 213.734L381.515 217.671ZM362.183 174.373L359.662 170.436L360.502 167.287H356.3L352.945 169.649L349.583 168.074L346.221 171.223L342.859 167.287L339.497 168.074L337.816 171.223L342.859 172.798V174.373L338.656 175.16L343.699 177.522L341.178 179.884C344.54 180.672 347.902 181.459 350.423 182.246C353.785 180.671 356.307 179.097 358.828 177.522L362.183 174.373ZM311.766 376.685L310.925 375.898H309.244L307.563 375.111L304.201 372.748L300.839 371.174H297.477L293.275 370.386L290.753 371.174V369.599L289.913 368.024L284.877 366.45L281.515 365.662L279.834 367.237V364.875H275.631L274.791 364.088L276.472 362.513V360.938H275.631L273.95 357.002L273.11 355.427H272.269V354.639L269.748 353.065C268.067 352.277 266.386 352.277 264.705 351.49H263.024V352.277L260.502 351.496C259.662 350.709 258.821 349.922 257.981 349.922H257.14V349.134L255.459 347.56C254.619 346.772 253.778 346.772 252.938 345.985H252.097V344.41L249.582 342.835H247.901L247.061 342.048L248.742 341.261H242.858V342.048L241.177 342.835H239.496L237.816 342.048H232.773V341.261L231.092 339.686H229.411L228.57 338.111L227.73 338.899V339.686L226.889 340.473V342.048L227.73 342.835L226.889 344.41H226.049L225.208 342.835L226.049 341.261V340.473L225.208 339.686H226.889V338.899L227.73 338.111L226.889 337.324H226.049L225.208 338.111C224.368 338.899 223.527 338.899 222.687 339.686H221.006V340.473H219.325L217.644 341.261L216.81 342.835V343.623H215.969L214.288 345.198H213.448L211.767 343.623H207.564L206.724 344.41L205.043 345.198L204.202 345.985H203.362L202.521 345.198H201.681V344.41C200.84 343.623 200 342.835 199.159 342.048L198.319 340.473V339.686L199.159 338.899V334.175L200 333.387V331.813L199.159 331.025H198.319L196.638 329.451H189.073L188.233 330.238H187.392L186.552 329.451L187.392 328.663H188.233L189.073 327.876V324.726L189.914 325.514C189.914 324.727 190.754 323.939 190.754 322.364L189.914 321.577L190.754 320.002L192.435 318.428V317.64L191.595 316.853H188.233L185.711 317.64L184.03 318.428V320.79L183.19 322.364L181.509 323.152C180.668 323.152 178.987 323.939 178.147 323.939H176.466L174.785 324.727L173.944 323.939L171.423 323.152L168.067 320.796V320.008L166.386 318.434L165.546 316.859L164.705 316.072V308.986L165.546 306.623L164.705 305.836V303.474L167.227 301.112L169.748 300.325L172.27 298.75L173.951 297.963H175.632L177.313 298.75H178.994L180.675 300.325H182.356L183.196 299.537H184.877V295.601L184.037 294.813H190.761L192.442 295.601L193.282 297.175L195.804 296.388H196.644L198.325 298.75L199.166 300.325L198.325 301.899V302.687C199.166 304.261 200.006 305.049 200.847 306.623L201.687 307.411V308.198H203.368L204.209 306.623V304.261L203.368 301.112V300.325L202.528 298.75L201.687 296.388V293.239L202.528 291.664L204.209 290.089L206.73 288.515V287.727L207.57 286.94H208.411L210.092 285.365L212.613 284.578L214.294 282.216V279.066H213.454V276.704L215.128 271.986L215.969 270.412V272.774L216.809 273.561L215.969 275.136C216.809 274.348 217.65 272.774 217.65 271.986V271.199L216.809 270.412L215.969 268.837L216.809 269.624H217.65V270.412L219.331 268.05L220.171 265.688H219.331L220.171 264.9H221.852L225.214 264.113L224.374 263.326L221.012 264.113L222.693 263.326H225.214L226.895 262.538H227.736L229.417 261.751V260.964L228.576 260.176V260.964H227.736L226.895 259.389V257.814C227.736 257.027 227.736 256.239 228.576 255.452C230.257 254.665 231.938 253.877 233.619 253.877L236.141 252.303V251.515H242.024L237.822 253.877V256.239H239.503L242.024 253.877L244.545 252.303L249.588 250.728L252.11 248.366L250.429 247.579V245.217L247.907 249.153L243.705 249.941L240.343 248.366L239.503 246.004L238.662 242.855L241.183 240.493L239.503 238.918H236.141L231.098 242.067L227.736 246.004L226.055 246.791L228.576 243.642L231.938 238.918L235.3 237.343L236.981 234.981H242.864L247.907 235.769L252.11 234.981L255.472 231.832L259.674 230.257C260.515 229.47 262.196 228.682 263.036 227.895V223.958L262.196 222.384L260.502 223.971L259.661 220.821L257.98 219.246L254.618 218.459L252.103 216.097L248.741 213.735L249.582 211.373C247.901 208.224 246.22 204.287 243.698 201.137L242.017 197.201L240.337 199.563L237.815 204.287L235.294 205.861L233.613 203.499L231.091 202.712L230.251 197.201V193.264L226.889 193.27L226.048 191.695L223.527 189.333L221.005 187.759L219.324 189.333L216.803 188.546L212.6 186.971L210.919 187.759L211.76 194.845L212.6 198.782L210.085 203.5L212.607 206.649L214.288 209.798V212.16L212.607 214.522L210.085 216.884L206.723 218.459L208.404 220.821L209.245 226.333L207.564 230.269L206.723 232.625L203.361 229.476L201.68 225.545L200.84 221.608V218.459H194.116L191.595 216.884L189.073 216.097L187.392 214.522L184.871 212.948L180.668 211.373L177.306 212.16L176.472 207.436L175.632 203.5L172.27 202.712V197.988L173.11 194.839L175.632 189.327L178.153 185.391L180.675 184.603V181.454L182.356 179.092H185.718L188.239 175.942L189.08 173.58L191.601 168.856L192.442 166.494L194.963 168.069L198.325 167.282L202.528 163.345V160.196L201.68 157.058L203.361 153.909V150.76L199.999 147.61L193.276 146.036V153.122L191.595 158.633L189.073 162.57L186.552 158.633L187.392 153.909L184.877 150.76L181.515 155.484V149.185L177.313 147.61L178.994 144.461L175.632 136.587L173.11 133.438L169.748 132.651L168.067 138.162V145.248L170.589 147.61L173.11 151.547L172.27 157.846H170.589L168.908 162.57V157.059L165.546 154.697L163.865 155.484V159.421H160.503L157.141 160.208L152.939 157.846L150.417 158.633L147.896 155.484L146.215 153.909H141.178L139.497 156.271L142.019 158.633L138.657 161.783L136.135 158.633L134.454 159.421L127.73 160.208L123.528 158.633L126.89 155.484L123.528 152.335H121.007L117.645 151.547L111.761 149.185L109.246 146.823H106.725L105.884 148.398L103.363 149.185V144.461L100.001 148.398L95.7983 142.886L94.1173 142.099L93.2768 146.036L91.5959 147.61L89.9149 145.248L85.7124 146.036L82.3505 149.185L78.9885 148.398L76.467 149.973L74.7861 152.335L72.2646 151.547L68.9026 148.398C66.3812 147.61 64.7002 146.823 62.1787 146.036L58.8168 144.461L54.6208 146.036L52.9398 145.248L48.7374 144.461L43.6945 142.099L41.173 142.886L37.811 142.099V140.524L33.6151 139.737L32.7746 141.312L30.2531 138.162L26.8912 136.588L23.5292 140.524L21.0077 139.737L16.8118 142.886L14.2903 143.674L11.7689 146.823L10.9283 149.972L8.40688 152.335H4.20443L2.52343 155.484L5.8854 157.059L8.40688 160.208L10.0879 163.357L12.6093 165.719L14.2903 168.869H9.24735V166.507L8.40685 166.501L3.3639 168.863L0.00195312 171.225L3.3639 174.374L4.20443 176.736L7.56638 177.523L10.9283 176.736L12.6093 177.523L13.4498 176.736L15.9713 175.949H17.6523L15.1308 177.523L16.8118 179.098V180.673L15.1308 182.247L13.4498 181.46L11.7689 183.822L10.0879 183.035H8.40688L7.56638 185.397L5.8854 187.759L5.0449 190.121L6.72588 191.696V194.058L8.40685 197.201L10.0878 199.563L13.4498 198.776L15.1308 200.35L14.2902 201.925V204.287H15.9712L18.4927 202.712L19.3332 205.074L20.1737 203.5L21.8547 205.862L23.5357 204.287L24.3762 205.074L26.8976 203.5L26.0571 205.862V209.011L23.5357 211.373L20.1737 213.735L19.3332 215.31L16.8117 216.097L14.2903 218.459L9.24735 221.609V222.396L13.4498 221.609L15.1308 220.034C15.1308 218.459 16.8117 217.672 18.4862 216.884H20.1672L22.6887 215.31L23.5292 213.735L26.8911 211.373L27.7316 209.798L32.7746 206.649L35.2961 203.5L32.7746 201.138L36.1365 197.988L37.8175 194.839L41.1795 192.477L42.02 194.058L39.4985 195.632L38.658 200.356V202.718L41.1795 201.138L42.8605 199.563L45.3819 198.776H47.0629L46.2224 195.626L48.7438 194.839L51.2653 196.413L55.4678 198.776H58.8297C61.3512 199.563 63.0322 200.35 65.5536 201.138L70.5966 205.862L73.118 207.436H79.0015L80.6825 211.373L84.0444 214.522L84.8849 217.672L88.2469 220.821V222.396L90.7684 224.758V227.907L94.1303 229.482V231.844L95.8113 234.993L100.014 236.568L101.695 238.143L105.897 241.292L106.738 243.654V246.016L105.897 246.803L105.057 243.654L101.695 242.867V243.654L102.535 245.229L103.376 248.378L104.216 252.315L103.376 257.826L102.535 260.976L103.376 263.338V265.7L102.535 268.062L103.376 269.636V271.999L105.057 274.361L105.897 275.148V275.935L107.578 279.872L110.1 282.234V283.809L110.94 284.596H113.462L114.302 285.383H115.983V286.171H116.824L118.505 287.745V289.32L119.345 291.682C120.186 293.257 121.026 295.619 121.867 297.194L123.548 297.981L125.229 299.556V300.343L124.388 301.13H123.548L125.228 302.705L126.909 303.492L127.75 304.28C128.59 305.067 129.431 305.854 130.271 305.854V309.004L131.112 309.791L132.793 310.579L134.474 312.153L135.314 313.728L136.155 312.941V312.153C135.314 311.366 135.314 310.578 134.474 309.791H133.633V308.216C133.633 307.429 132.793 306.642 131.952 305.854L132.773 303.474L129.411 300.325L128.571 298.75V297.175L126.049 295.601L125.209 294.813V290.877L126.89 291.664H127.73L129.411 292.451V293.239L130.252 294.813L131.933 296.388V297.175C132.773 297.963 133.614 298.75 134.454 299.537H136.135L136.976 301.112L139.497 303.474V305.049L140.338 305.836L142.019 306.624L142.859 308.198L145.381 309.773L147.062 312.135L147.902 313.71V314.497L148.743 315.284V316.072L147.902 316.859V317.646H147.062L147.902 318.434L148.743 320.009L151.264 321.583L152.105 322.371L154.626 323.158H156.307L157.148 323.945L158.829 324.733L161.35 325.52H163.031L165.553 326.307L168.915 327.882H169.755L171.436 327.095H173.117L174.798 327.882L178.16 331.031L179.841 331.819L180.681 332.606H182.362L184.043 334.181H185.724L186.565 334.968H189.086V334.181H189.927V334.968L192.448 337.33C193.289 338.118 194.129 338.118 194.129 338.905L193.289 339.692H194.129V342.054H194.97L195.81 342.842L196.651 342.054V341.267L197.491 342.054V342.842H198.332L200.013 344.416V345.204L200.853 345.991L202.534 346.778V345.991H205.056L205.896 346.778H206.737V348.353H208.418L207.577 346.778V345.991H208.418L210.099 344.416H210.939L212.62 345.991H213.461L210.086 346.772L210.926 348.347L212.607 349.922V351.496L211.767 352.284L212.607 354.646L211.767 356.22L212.607 357.008C211.767 357.795 210.926 358.583 210.926 359.37L210.086 358.576V360.151H209.245V360.938L205.883 362.513V363.3L205.043 364.875V366.45H204.202V368.812L203.362 369.599L205.043 370.387L205.883 369.599L206.724 370.387L205.883 371.961L204.202 373.536L203.362 375.111L204.202 377.473L203.362 378.26L205.043 379.047L206.724 380.622L207.564 382.197L208.405 382.984C210.086 386.134 211.767 388.496 212.607 391.645L214.288 394.794V395.582L215.129 397.157L216.81 398.731L221.012 401.093L226.055 403.455V404.243L228.577 405.817L229.417 408.967V412.903C228.577 417.627 227.736 423.139 227.736 427.863L226.889 431V434.15L226.049 436.512L226.889 440.448L226.049 444.385C225.208 447.535 223.527 449.896 222.687 453.046H221.846V456.195L222.687 458.557L221.846 460.132C221.006 463.281 221.006 466.431 220.165 469.58L221.846 470.368L222.687 466.431L224.368 467.218L223.527 473.517L221.006 472.73L220.165 478.241L217.644 481.391L221.006 482.178L218.484 484.54L217.644 487.689V493.201L218.484 495.563L217.644 497.925L218.484 500.287L223.527 505.011L226.049 506.586H226.889V503.436L229.41 501.862L230.251 501.074H232.772L231.091 498.712L230.251 494.775L231.091 493.201L233.613 491.626L235.294 487.689L237.815 486.115L238.656 482.965L236.134 482.178L233.613 479.816L234.453 477.454L236.134 475.879H238.656L239.496 474.304V471.155L243.699 468.787L246.22 468L245.38 466.425L243.699 467.212L242.018 466.425V463.276L242.858 462.488L245.38 463.276L247.901 462.488L249.582 461.701L247.901 460.913L248.742 458.551L247.901 456.977H250.423L255.466 456.189L258.828 454.615L261.349 450.678V449.103L259.668 447.529V445.954L257.14 445.173V443.598L258.821 445.173H260.502L263.024 445.96H264.705L266.386 446.747L268.907 445.173L269.748 443.598L271.429 442.023L272.269 439.661L273.95 438.087L275.631 435.725L278.152 431.001L279.833 429.426L280.674 427.851L281.514 425.489V422.34L283.195 419.978L285.717 418.403L288.238 417.616L289.919 416.828L293.281 416.041H295.803L296.643 414.466L298.324 413.679V411.317L300.846 408.168V405.018L301.686 404.231C301.686 402.656 302.527 401.081 302.527 399.507V395.57L303.367 393.995H304.208L305.889 392.421L307.57 390.059L310.932 386.909L311.772 385.335L312.613 381.398C312.606 379.048 311.766 377.473 311.766 376.685ZM121.851 137.373L116.808 139.735L117.648 142.097H121.01L126.053 141.309L130.256 142.884L126.894 143.671H123.532L120.17 144.459L119.329 146.033L121.851 150.758L123.532 149.97L126.894 151.545L128.575 154.694C131.937 153.907 135.299 153.907 138.661 153.12L142.863 150.758H145.385L149.587 152.332L153.79 153.12L154.63 150.758L152.949 148.396L157.152 147.608V144.459C154.63 142.097 151.268 140.522 148.746 138.16C147.906 134.223 147.066 130.286 146.225 126.35L143.704 123.2L141.182 121.626L139.501 122.413L141.182 130.287L140.342 133.436L138.661 126.35L136.139 123.988L133.618 127.924L130.256 123.988L125.213 126.35L126.053 123.2L124.372 122.419L117.655 127.143L115.974 130.293L114.293 135.804L118.495 137.379L121.851 137.373ZM235.299 145.246L233.618 142.884L227.735 140.522L225.213 135.798L221.011 137.373V134.223L216.815 130.293L211.772 126.356L209.251 129.506L204.208 131.868V127.143L200.005 119.27L194.962 122.419L193.281 128.718L191.6 123.994L193.281 119.27L187.398 121.632L184.883 123.994L183.202 130.293L184.043 137.379H187.404L184.883 140.528L186.564 142.89L190.766 143.678L195.809 145.252L204.214 146.827L208.417 146.04L209.257 144.465L210.938 146.827H212.619L215.141 150.764L213.46 152.338L218.503 154.701L221.865 157.85L223.546 162.574L220.184 168.085L219.343 170.447L220.184 172.022L215.141 172.809H210.938L210.091 176.734L211.772 178.309L218.496 177.521V175.947C221.018 177.521 222.699 179.096 225.22 180.671L224.38 182.245L226.901 184.607L231.944 187.757L238.668 189.331V187.757C236.987 185.395 234.466 183.033 232.785 180.671L238.668 184.607L242.03 186.182L242.87 183.033L241.183 177.521L240.342 175.946L236.981 173.584L234.459 170.435V167.286L237.821 166.498L241.183 172.01L243.704 174.372L247.907 168.073L248.747 164.136H245.385L242.023 158.625L238.662 157.05L232.778 153.907L236.981 150.758L235.299 145.246ZM158.826 118.482L156.305 122.419L158.826 127.143L153.783 126.356V128.718L159.667 134.229L161.348 136.591L163.869 137.378L168.072 135.016L168.912 128.718L165.55 125.568L168.072 121.632L167.231 119.27L163.029 120.057L158.826 118.482ZM170.593 118.482L169.753 121.632V125.568L171.434 131.867H173.955L176.477 126.356L178.998 124.781L182.36 117.695L178.158 116.12H173.115L170.593 118.482ZM724.376 110.609H732.781L734.462 104.31L726.057 99.5858L720.173 98.8046L716.811 100.379L715.971 106.672L721.014 112.183L724.376 110.609ZM156.299 97.2297H153.777V104.316L157.98 103.529V108.253L160.501 109.827L164.704 109.04L165.544 102.741V98.0172L163.863 93.2932V94.8678L159.661 94.0805L156.299 97.2297ZM131.932 107.459L126.889 111.396V113.758H130.251L136.134 109.821L143.699 108.247L145.38 104.31V99.5858L142.858 98.7985L141.177 100.373L140.337 98.8046L139.496 94.0805L136.975 93.2932L134.453 96.4425L137.815 105.103L134.453 104.31L130.251 98.8047L123.527 95.6553L121.005 98.8047L117.643 107.466L121.005 109.04L131.932 107.459ZM515.131 135.798L519.333 137.373L520.174 140.522L527.738 141.31L529.419 140.522L525.217 135.011L524.376 129.5C526.898 124.776 529.419 119.264 531.941 114.54L539.505 106.666C544.548 103.517 549.591 101.155 554.634 98.0054L556.315 94.856L554.628 91.7188L550.425 93.2935L546.223 96.4429L537.818 98.0176L530.253 103.529L525.21 108.253L526.051 112.19L520.167 119.276L522.689 120.063L517.646 126.362V130.299L515.125 131.874L515.131 135.798ZM173.948 97.2296L176.469 101.166V105.89L177.31 110.614L183.193 112.976L187.395 113.764H192.438L199.162 112.189L202.524 112.976L205.886 111.402L207.567 109.04L206.727 105.103L204.205 101.954L200.003 101.166L194.96 101.954L191.598 103.528L188.236 102.741H184.874L183.193 100.379L180.672 98.0169L181.512 94.8676L179.831 91.7182H175.629L173.107 88.5688L168.064 87.7814L167.224 91.7182L169.745 94.8675L173.948 97.2296ZM149.58 73.6093L147.059 76.7586L152.102 77.546L156.304 80.6954L160.507 81.4828L159.66 77.546L157.979 72.0346L151.261 68.104L147.059 66.5293V71.2534L149.58 73.6093ZM171.427 65.7418H175.63L173.949 68.8912V72.8279L176.47 77.552L181.513 79.1266L185.716 78.3393L189.918 69.6783L193.28 66.529L190.759 62.5922L189.078 53.9313C186.556 52.3566 184.035 50.7819 181.513 48.4199L178.151 40.5463L173.108 41.3336L173.949 44.483L171.427 45.2704L169.746 49.2071L168.065 54.7185L171.427 65.7418ZM182.354 40.5465L184.035 46.0579L188.237 50.7819L196.642 49.9946L201.685 51.5692L198.323 56.2933L196.642 54.7187L189.918 53.9313L190.759 60.23L194.121 64.9541L193.28 68.8908L189.078 71.2528L187.397 75.1896L191.599 77.5516L194.961 84.6378L189.078 79.9138L187.397 80.7011L188.237 87.7874L184.035 90.1494V94.8735L188.237 95.6608L191.599 96.4482L198.323 94.8735L204.207 97.2355L210.09 91.7241V89.3621H205.888V87.0001L209.25 83.8507L210.09 79.914L213.452 76.7646L215.974 72.8279L214.293 67.3165L215.974 64.9544L212.612 63.3798L219.336 61.8051L221.017 59.4431L226.06 57.081L230.262 46.8454L234.464 42.9087L240.348 34.2477H235.305L237.826 31.0984L243.71 27.949L249.593 20.8627V16.1387L245.391 11.4146L240.335 12.208C234.451 10.6334 229.408 9.84602 223.525 8.27133L216.801 11.4207L215.961 9.05868L208.396 9.84604L204.2 12.2081L200.838 15.3574L199.157 24.8057L196.636 20.0817L194.114 19.2943L190.752 25.5931L185.716 27.9551H183.194L179.832 31.1045L180.673 36.6159L182.354 40.5465ZM338.654 144.459H332.771L335.292 141.31L334.452 136.586C336.133 138.948 337.814 140.522 339.495 142.884L343.697 141.31L342.857 135.798L339.495 131.861L336.133 130.293L336.973 128.718L342.016 131.868V128.718L338.654 122.419H342.016L345.378 120.845L346.219 118.483L343.697 115.333L348.74 114.546L345.378 107.46L347.9 106.672L347.059 98.7988L342.857 94.0747L347.059 90.9253L350.421 90.138L347.9 83.8392V72.0289C349.581 66.5175 351.262 61.006 352.943 55.5008L347.9 54.7134L355.464 52.3514L357.145 49.202L366.391 38.9664L364.71 32.6677L357.986 29.5183L346.219 35.817L340.335 41.3284L342.857 32.6675L340.335 27.9556L336.133 32.6797L329.409 27.1683L321.004 28.743L319.329 26.3809C326.894 25.5936 333.618 24.8062 341.177 24.0189L345.379 17.7201L331.09 2.76045L312.606 0.398438L304.201 1.97312L300.839 9.05937L292.434 8.272L284.869 19.295V26.3812L290.753 35.0422L285.71 30.3181L282.348 28.7434L276.464 22.4447L270.581 31.1056L268.06 26.3815H260.495L252.93 28.7436L247.047 32.6803L247.888 39.7665L244.526 41.3412L236.12 50.7895L234.44 56.3009L241.163 61.025L240.323 65.749C234.44 69.6858 228.556 72.8353 222.679 76.772V80.7087L227.722 84.6454L237.808 87.0075L232.765 87.7948L226.888 90.932L231.091 97.2308L233.612 100.38C237.815 99.5928 241.177 99.5928 245.379 99.5928L250.422 100.38L256.306 105.892V109.828L259.668 112.978C261.349 117.702 263.029 122.426 264.71 127.15L266.391 130.299L263.87 136.598L265.551 138.173L268.072 137.385C269.753 139.747 272.275 142.11 273.956 143.684L268.906 140.523H266.385L265.544 143.672V148.396L268.066 150.758L270.587 149.971C272.268 149.183 273.109 147.609 274.79 146.821L273.949 151.545V153.907L270.587 156.269L268.066 163.356L269.747 165.718L268.906 169.654L272.268 174.379V179.103L273.109 182.252L277.311 188.551L278.992 193.275L281.514 195.637H286.557L289.919 199.574H293.281C294.121 197.212 294.962 194.062 295.802 191.7L294.115 186.182L298.317 182.246L299.158 179.096V175.16L300.839 172.01C303.36 171.223 305.041 170.436 307.562 169.648H309.243L314.286 165.712L317.648 159.413L320.17 157.051H322.691L329.415 154.689L336.139 149.965L342.023 144.453L338.654 144.459ZM836.126 164.143L829.402 163.356L830.242 167.293L828.562 165.718V162.569L822.678 157.057L818.482 153.908L815.961 151.546L813.439 149.971L806.715 146.822H801.672L794.108 145.247L793.267 148.396L794.948 152.333L792.433 153.908L788.231 148.396L784.028 149.184L779.826 147.609H775.624L772.262 149.184L769.74 147.609V142.885L768.059 140.523L763.016 139.736L753.771 141.31L747.887 135.799L746.206 131.862L725.2 127.138L721.838 130.288L723.519 136.586L719.316 135.799L717.635 137.374L713.433 135.012L709.231 136.586L705.869 133.437L703.347 140.523L698.311 138.161L694.949 132.65L696.63 129.5L695.789 124.776L691.587 120.84H688.225L683.182 119.265V124.776L673.096 123.989L672.255 120.052L664.691 118.478L661.329 120.052L660.501 122.42L659.661 117.696L657.139 119.271L653.777 116.909L651.256 116.122L652.937 113.76L658.82 109.035L661.342 106.673L662.182 101.949L660.501 98.8L655.458 94.0759H648.734L646.213 96.438L645.372 90.9327L640.33 89.358L643.692 86.9959L639.489 83.8465L633.606 87.7833L631.084 91.72L630.244 95.6567H626.041L620.998 100.381L619.324 98.8061L613.44 99.5935L612.6 101.955L606.716 103.53L602.514 107.467H599.992L597.471 112.978L599.152 116.915L594.109 117.702H588.226L584.023 119.277V127.151L585.704 133.449L581.508 130.294H576.465L572.263 133.443L573.103 138.167L570.582 136.593L571.422 129.506L570.582 125.57H569.741L570.582 131.081L566.379 135.805L569.741 141.317L568.06 147.615L568.901 150.765L571.422 151.552L570.582 155.489L572.263 158.638L570.582 161L569.741 164.15L567.22 165.724L566.379 168.086L563.858 167.299L568.06 159.425L568.901 155.489L566.379 151.552L567.22 142.891L566.379 138.167L563.018 136.586L565.539 131.075L564.698 127.138L558.815 124.776L557.134 126.351L555.453 132.649L551.251 138.948V141.31L552.091 146.034L551.251 149.184L553.772 149.971V151.546L556.294 154.695L554.613 157.844L546.208 150.758L542.846 149.183L536.122 147.609L535.281 149.971L537.803 153.908L535.281 157.844L532.76 153.908L529.398 156.27H525.195L523.514 158.632L520.993 157.844L523.514 153.908H521.833C517.631 156.27 513.428 159.419 508.385 161.781L507.545 165.718L504.183 167.293L502.502 165.718V162.568L505.864 161.781L504.183 158.632L497.459 157.057L499.14 160.994L496.631 161.781L498.312 164.93L496.631 168.867L494.11 167.293H491.589L487.393 172.01L489.074 175.947L487.393 177.522L481.509 174.373L479.828 175.947L481.509 178.309V180.671L476.466 177.522V169.648L472.264 165.712L473.945 164.924L484.031 168.861L488.233 167.286L490.755 164.137V160.2L489.074 157.838L479.828 150.752L473.104 149.177L468.902 145.24L466.38 147.603L463.859 143.666L467.221 142.091L460.497 138.16L456.294 139.735H452.092L448.73 145.247H444.528L439.485 148.396C436.123 152.333 432.761 156.27 429.399 160.994C426.037 167.292 422.675 172.804 419.313 179.097L414.27 184.608L408.386 188.545L405.865 191.694L406.705 201.93L407.546 206.654L410.908 209.016L414.27 208.229L419.313 203.505L420.994 205.867L422.675 211.378L424.356 216.102L425.196 220.039H427.718L429.399 216.889H431.92L433.601 212.953L434.441 205.866L436.963 205.079L439.484 200.355L436.963 197.993L435.282 194.844L436.963 188.545L441.165 184.608L444.527 180.671V177.522L447.049 173.585L451.251 172.011L454.613 174.373V176.735L452.932 177.522L447.889 183.033L445.368 186.183L444.527 189.332L445.368 193.269L444.527 197.993L447.049 199.568L448.73 201.93L452.932 201.142L457.135 199.568H461.337L463.859 201.93L459.656 201.136H457.135L454.613 200.349L452.098 201.136L448.736 202.711V205.073L450.417 206.648L451.258 205.86C451.258 207.435 450.417 209.797 450.417 211.372H448.736L447.055 208.222L445.374 209.797L444.534 212.159V215.308L445.374 218.458L442.012 220.032L441.172 221.607H438.65V220.82L436.129 220.032C433.607 220.82 431.926 222.394 429.405 223.182L427.724 223.969L426.884 222.394L424.362 220.82L422.681 221.607L420.166 223.182V221.607L417.645 220.82V219.245L416.804 216.883L418.485 213.734L419.326 214.521L420.166 212.946L418.485 212.159V211.372L419.326 209.797V207.435L416.804 209.797H415.123L414.283 211.372V216.096L415.123 218.458V220.82L415.964 222.394L413.442 224.757L412.602 223.969H410.921V224.757H409.24L405.878 226.331L403.356 231.836L402.516 232.624C400.835 233.411 399.994 233.411 398.313 234.199L397.473 237.348L392.43 239.71L389.908 238.135L390.749 242.072L386.553 240.497L383.191 241.285V243.647L386.553 245.221L388.234 246.796L390.755 249.945L390.749 256.244L389.908 257.819H384.025L381.504 257.031H378.142L375.62 256.244L372.258 258.606L373.099 260.181V263.33L373.939 264.118V265.692L373.099 267.267V268.054L372.258 268.842V270.416L373.099 271.204H373.939V275.14H375.62L376.461 274.353L378.982 275.14L379.823 276.715L380.663 277.503H381.504L382.344 276.715L384.025 275.928H389.068L390.749 273.566L392.43 272.778L393.271 271.204L394.952 271.985L394.111 270.41L394.952 268.048L396.633 266.474V265.686L399.994 264.899L402.516 263.324V260.175L405.878 259.387L410.921 260.175L413.442 258.6H414.283L416.804 256.238L418.485 257.025H419.326L420.166 260.175L421.847 261.749L424.369 263.324L426.05 264.899H427.731L428.571 265.686L430.252 266.474L431.093 268.048H431.933C432.774 268.836 432.774 270.41 433.614 271.198L431.927 271.985L431.086 273.56V274.347H431.927L432.767 271.985H433.608V270.41L431.927 269.623L432.767 268.048L434.448 268.836L436.129 270.41L436.97 269.623V268.836L435.289 267.261C433.608 266.474 432.767 265.686 431.086 265.686L431.927 264.899L431.086 264.111H429.405L426.884 261.749L426.043 259.387L423.528 256.244L422.688 254.669V252.307L424.369 251.52L426.05 252.307H425.209V253.095L426.05 253.882L426.89 252.307L428.571 253.095V253.882L429.412 255.457H428.571L430.252 257.819L432.774 258.606L434.455 259.394C435.295 260.181 436.976 260.181 437.817 260.968L438.657 261.756H439.498V267.267L441.179 268.054V269.629C442.019 270.416 442.86 271.204 443.7 272.778V274.353L444.541 276.715L446.222 278.29H447.903L447.062 275.928H448.743L447.903 274.353L450.424 275.141V273.566L447.903 271.204L448.743 270.416L447.062 267.267L447.903 266.48L448.743 268.054H450.424L451.265 267.267L449.584 265.692L452.105 264.905H454.627V265.692L455.467 267.267C456.308 266.48 457.148 265.692 458.829 264.905H461.35L462.191 264.118L460.51 263.33V262.543L459.669 260.968L460.51 258.606L461.35 257.032L462.191 253.095H463.031L463.872 252.307V251.52L465.553 249.158L466.393 247.583L468.915 246.796V248.371L472.277 249.158L473.117 249.945L470.583 251.52V252.307L473.104 253.095L472.264 254.67L473.945 255.457L477.307 253.882L479.828 253.095L480.669 252.307H478.147L477.307 251.52V249.945L478.988 248.371H481.509L483.19 247.583H484.871L487.393 246.796V247.583L482.35 248.371L484.031 249.945L482.35 252.307L480.669 253.095L482.35 254.669L484.871 255.457L488.233 257.819L489.074 258.606H490.755L492.436 259.394L493.276 261.756V263.33L490.755 264.905H489.074L486.552 265.692L480.669 264.112L476.466 261.75H472.264L470.583 263.324L468.062 264.899H463.859L462.178 267.261H458.816L456.295 269.623L457.976 271.198L457.135 273.56L458.816 275.134L460.497 277.496H463.019L465.54 279.071H467.221L468.062 278.284H470.583L472.264 279.858H475.626L477.307 278.284L478.988 279.071H480.669L479.828 279.859H478.988L478.147 280.646V283.008L477.307 284.583L476.466 286.945V287.732L474.785 290.881L473.104 292.456H471.423L469.742 291.669L468.902 292.456L468.061 290.881H464.699L463.859 291.669L462.178 293.237C460.497 292.45 458.816 291.663 456.295 291.663H452.933L452.092 290.875H449.571L448.73 290.088H447.89L447.049 289.301L444.534 287.732H442.853L441.172 289.307L440.332 290.881L441.172 293.243L439.491 294.818L436.97 293.237L433.608 292.45L431.086 291.663L430.246 289.301L426.884 288.513L425.203 287.732H424.362L421.841 286.944H420.166V285.37H419.326L418.485 283.795L420.166 282.22V279.858H419.326V278.284L420.166 276.709V275.922L418.485 276.709V275.134H416.804L414.283 275.922H412.602L411.761 276.709H409.24L406.719 277.496L405.878 276.709C403.356 276.709 400.835 276.709 398.313 277.496L395.792 278.284L394.111 279.859L391.59 280.646L389.068 282.221H388.228L385.706 281.433H383.185L382.351 279.859H380.67L378.148 284.583L376.467 285.37L373.946 286.945L372.265 288.519V290.094L371.424 292.456L372.265 295.605L369.743 297.174L367.222 299.536H364.7L363.86 300.323L362.179 303.473L360.498 304.26L359.657 305.835V307.409L358.817 308.984H357.976L356.295 310.559L355.455 312.134V312.921L354.614 314.496L353.774 315.283V317.645L355.455 319.22V325.518L355.461 327.087V328.662L354.621 329.449L353.78 331.024L352.94 331.811L353.78 332.598L354.621 334.173V337.323L356.302 338.897H357.142L357.983 339.685H358.823V341.259L359.664 342.047H360.504L361.345 342.834L362.185 344.409V346.771L363.026 348.345L364.707 349.133H365.547L368.909 352.282L371.431 353.857L373.952 354.644H375.633C377.314 353.857 378.155 353.857 379.836 353.069H384.038L385.719 353.857H386.56L388.241 354.644L390.762 353.857L397.486 350.707H399.167H403.369L405.05 352.282L406.731 355.432H408.412L409.253 354.644H410.093L412.615 353.857V354.644H413.455L414.296 355.432H415.136L415.977 357.006V358.581L415.136 360.943H415.977C415.977 361.73 415.136 363.305 415.136 364.092L415.123 366.448V367.236L416.804 369.598L421.007 373.534L422.688 375.896L423.528 377.471V379.046L424.369 380.62C424.369 382.195 425.209 382.982 425.209 384.557L424.369 385.345V386.132C424.369 386.919 425.209 387.707 425.209 388.494L426.05 389.281V392.431L422.688 395.58L421.847 397.942V398.729L421.007 401.091V403.453V406.603L422.688 408.965L423.528 410.54L424.369 413.689L425.209 415.264L426.05 416.051V420.775L426.89 424.712L427.731 426.286L428.571 428.648L429.412 430.223L431.093 431.798C432.774 434.16 433.614 437.309 435.295 439.671V442.033L434.455 442.821L435.295 444.396V446.758L436.136 448.332H436.976L437.817 449.12H438.657L442.019 447.545L444.541 446.758H447.062L449.584 447.545L450.424 446.758H452.105V445.97H452.946L455.467 445.183L457.148 443.608C458.829 442.034 459.67 440.459 461.35 439.671L463.031 438.097L464.712 434.947C465.553 434.16 466.393 434.16 466.393 433.373L470.583 429.424V427.062L471.423 425.487V423.912H470.583V423.125L471.423 422.338C473.104 421.55 474.785 420.763 476.466 419.976L477.307 419.188V418.401L476.466 417.614V413.677L474.785 410.527V408.953L480.669 403.441C482.35 402.654 484.031 401.867 485.712 401.079L487.393 399.505L489.074 396.355V386.907L488.233 386.12L487.393 384.557L486.552 382.982V381.408L487.393 379.833V379.046L485.712 378.258V376.684L486.552 374.322H487.393L488.233 372.747L489.074 371.96V370.385H489.914L490.755 369.598L492.436 368.81L496.638 364.873L499.16 363.299L502.522 360.937L505.043 359.362C506.724 357.787 508.405 355.425 510.086 353.851L511.767 350.701C512.607 349.127 513.448 347.552 514.288 345.19L515.129 342.828L515.969 342.04V338.891H515.129L512.601 338.897H510.92H509.239L508.398 339.685H507.558L505.877 340.472H503.355L500.834 341.259H499.994L498.313 339.685C497.472 339.685 497.472 338.897 496.632 338.897L498.313 338.11V337.323L495.791 336.535L494.951 335.748C494.11 334.96 492.429 333.386 491.589 332.598L487.393 330.236L485.712 329.449V327.087L484.031 324.725C483.19 323.938 482.35 323.938 481.509 323.15L480.669 320.001V317.639L481.509 316.852L480.669 314.489V313.702L478.147 311.34V309.765L478.988 308.978L476.466 306.616L474.785 303.467L473.104 299.53L471.423 297.168L469.742 295.599L471.423 299.536C472.264 300.323 472.264 301.111 473.104 301.111L473.945 300.323L475.626 297.174L476.466 296.387V299.536H477.307C478.147 301.111 478.988 301.898 479.828 303.473L480.669 305.047L481.509 305.835L482.35 307.409V308.197L483.19 309.772L484.871 310.559L485.712 311.346L487.393 313.708V316.858L489.074 319.22H489.914L491.595 320.794L493.276 323.944L494.117 324.731V325.518L494.957 326.306V329.455H494.117L494.957 330.242L495.798 331.817V334.179L496.638 335.754H500V334.967H500.841L501.681 334.179H504.203L507.565 332.605H509.246L510.927 331.03L514.289 330.242L516.81 329.455V328.668L517.651 327.88L519.332 327.093H520.172L521.853 326.306H523.534L524.375 325.518V324.731L525.215 323.944H526.896L527.737 323.156V322.369L529.417 321.582H530.258V318.432L531.099 317.645H531.939L532.779 316.07L533.62 315.283C533.62 314.495 534.461 313.708 534.461 312.921V312.133H533.62C532.779 311.346 532.78 310.559 531.939 309.771L530.258 308.984H528.577L526.896 308.197L526.056 306.622V303.473L525.215 304.26C523.534 305.835 521.853 307.409 520.172 308.984H516.81H515.129V308.197L514.289 307.409L515.129 305.835V304.26L514.289 303.472H513.448L512.608 305.047L512.601 305.835V303.473L510.92 302.685V301.898L510.08 301.11C509.239 299.536 509.239 298.748 508.399 297.174V296.386L506.718 295.599H508.399L509.239 294.812L510.92 295.599L512.601 294.812L514.282 297.961L515.963 300.323L518.485 301.11L521.006 302.685L523.528 303.472L526.049 301.898L527.73 301.11L528.57 301.898L529.411 305.047H531.932C534.454 305.835 536.975 305.835 538.656 306.622H546.221L550.423 305.834L552.104 307.409L552.945 308.984L554.626 309.771L557.988 312.921L557.147 313.708L560.509 316.857H562.19L565.552 315.283L566.393 317.645V320.794C567.233 323.156 567.233 325.518 568.074 327.88L570.595 331.03V332.604L571.436 335.754L572.276 338.116L573.117 338.903C573.957 340.478 574.798 342.84 574.798 344.415L577.319 346.777L578.16 345.989L579 344.414L581.522 343.627L580.681 342.84L581.522 341.265H582.362V337.328L583.203 334.966V333.392L582.362 330.242L583.203 328.668H584.043L586.565 327.88L587.405 327.093V326.306L589.927 324.731L594.129 320.794L597.491 319.219L598.331 317.645V316.07L600.853 315.283H602.534V314.495H604.215V313.708L605.055 314.495L605.896 312.921V312.133H608.417L609.258 313.708L610.098 314.495V316.07L610.939 317.645L612.62 319.219H614.301V320.007L615.982 322.369L616.822 324.731L615.982 327.88L617.663 328.668H619.344L621.865 327.093L623.546 326.306L624.387 327.88L625.227 331.03L626.068 333.392L626.908 334.179V336.541L627.749 338.116L626.908 339.69V341.265L626.068 343.627V345.202L626.908 346.776V345.202C627.749 345.989 628.589 346.776 629.43 347.564V348.351L631.111 349.926V351.501L631.951 353.075V354.65L633.632 356.225V357.012L638.675 360.161H640.356V359.374L637.809 358.574H636.968V353.85L636.128 352.276L634.447 350.707H633.606L632.766 349.92H631.085L629.404 346.77L628.563 344.408H626.882V342.834C627.723 341.259 628.563 339.684 628.563 337.322V334.96H630.244V336.535H631.925L634.447 337.322L635.287 339.684L636.128 340.472H637.809L639.49 342.046L638.649 343.621L639.49 345.196L643.692 341.259L646.213 339.684L647.894 338.11V334.173L647.054 330.236L645.373 328.661L646.213 327.087C644.532 325.512 643.692 323.15 642.011 321.575L642.852 320.001L644.533 317.639L647.894 315.277H648.735L652.097 316.064L651.256 316.851L652.097 318.426H653.778L654.618 316.064H657.14L662.183 313.702L663.023 314.489L664.704 313.702H667.226C669.747 312.127 671.428 310.553 673.95 309.765L676.471 306.616C677.312 304.254 678.993 302.679 679.833 301.104H681.514L682.355 298.742V296.38L680.674 295.593L679.833 294.018L681.514 293.231V291.656L678.152 286.932L677.312 284.57L674.79 282.996L675.631 281.421L678.152 279.846L678.993 278.271L682.355 277.484V275.909H680.674L678.993 275.122L676.471 277.484L674.79 276.697V275.122L673.109 274.335L669.741 271.985L670.581 270.41H673.103L677.305 266.473L678.986 265.686L679.827 267.261L678.146 268.835L678.986 269.623L678.146 271.197L680.667 270.41L682.348 268.835L685.71 268.048L686.551 268.835H688.232V272.772H687.391L686.551 274.347L687.391 275.134H688.232V275.922H689.072V275.134L689.913 275.922L691.594 278.284L689.913 279.071L690.753 282.22L689.913 284.582V286.157H692.434L694.115 285.37L696.637 284.582L697.477 283.008V279.858L697.471 275.922L695.789 271.985L693.268 269.623V268.048L694.109 267.261L695.789 266.473L696.63 265.686V264.899L697.471 264.111V261.749L699.151 260.175H699.992V259.387L703.354 257.025L705.035 258.6H706.716L710.078 257.025C712.599 253.876 715.121 250.726 717.643 248.364L718.483 246.002L721.845 241.278L722.685 235.767V231.83L724.366 227.893V224.744L722.685 222.394H720.164L718.483 223.969L715.961 223.181L715.121 220.819L711.759 220.032C717.643 214.521 722.686 208.222 728.569 202.716L736.133 201.142L743.698 201.929L746.219 199.567L749.581 200.354V203.504L752.943 202.716L757.986 201.929L756.299 199.561L762.182 191.687L768.066 190.113L769.747 195.624L775.63 190.113L777.311 186.176L779.833 185.389L778.145 193.268L773.943 197.205C771.421 200.354 768.059 203.504 765.538 206.653L762.176 207.441V209.015L760.495 211.377L759.654 216.889C760.495 221.613 761.335 226.337 762.176 230.274L763.016 232.636L766.378 229.486L767.219 225.55L770.581 224.762L771.421 220.826L773.102 220.038L775.623 219.251L774.783 217.676L775.623 214.527H778.145V209.015L775.623 208.228V206.653L778.145 202.717L778.985 199.567L782.347 200.355L784.869 198.78L785.709 200.355L791.593 197.205L794.955 200.355L795.795 197.993C798.317 196.418 800.838 194.056 802.519 191.694L810.924 187.757L815.127 188.545L815.967 186.97V184.608L815.127 183.033L813.446 179.096L810.924 176.734H814.286L817.648 173.585L818.489 172.01L817.648 169.648L820.17 168.074L819.329 170.436L821.01 172.01L823.532 171.223L826.053 172.01L826.894 174.372L830.256 175.947L831.936 177.522H834.458L835.298 176.734V172.01L839.501 171.223L840.328 169.648L836.126 164.143ZM520.997 266.475L518.475 265.687L517.635 268.049H519.316L518.475 269.624L520.156 270.411V273.561L520.997 275.135V275.923L517.635 276.71L514.273 275.923L512.592 274.348L510.07 273.561L509.23 271.199V269.624L510.07 268.837V265.687H511.751L510.911 264.9H510.07L509.23 262.538C507.549 260.963 506.708 259.388 505.027 257.814V255.452L504.187 254.67L506.708 251.521L509.23 250.734L510.07 249.159L512.592 248.372L515.113 246.797L516.794 247.584H519.315V249.946L518.475 253.096L516.794 252.308L515.113 253.096V255.458H512.592V256.245L514.273 257.033L515.113 259.395L517.635 260.182L518.475 260.969L517.635 262.544V263.331L518.475 264.906V262.544L520.156 261.757L520.997 264.113L522.677 265.687L520.997 266.475Z" fill="black" fill-opacity="0.05"/>
</g>
<path d="M705.169 208.282C705.169 201.887 701.291 195 691.331 195C681.369 195 678.17 202.05 678.17 208.282C678.17 208.402 678.174 208.523 678.177 208.644C678.175 208.697 678.17 208.748 678.17 208.802C678.17 219.365 689.025 232 691.801 232C694.578 232 705.315 218.457 705.168 208.802C705.167 208.762 705.163 208.722 705.161 208.682C705.165 208.548 705.169 208.415 705.169 208.282H705.169ZM691.554 214.469C686.957 214.245 685.327 211.002 685.327 208.267C685.327 205.339 686.831 202.027 691.511 202.027C696.19 202.027 698.012 205.262 698.012 208.267C698.012 211.271 696.31 214.699 691.554 214.469Z" fill="black" fill-opacity="0.15"/>
</svg>
