<svg width="130" height="69" viewBox="0 0 130 69" fill="none" xmlns="http://www.w3.org/2000/svg">
<path d="M7.57266 18.9745C7.15285 17.101 8.01049 15.3538 8.90382 13.9377C9.88719 12.3787 11.5279 10.9969 13.3604 10.5C13.0275 12.2675 12.0572 13.7921 11.1233 15.2255C10.1957 16.6496 9.02575 18.0918 7.57266 18.9745Z" fill="#1F62FF"/>
<path d="M6.29431 22.568C6.62203 21.0843 6.61476 19.4601 6.30278 18.0685C6.02843 16.8454 5.62923 15.1166 4.31532 14.5332C3.36026 16.162 2.97635 18.38 3.53296 20.042C3.93542 21.2441 4.6592 22.8335 6.16023 23.0795C7.5376 23.4171 8.93037 22.636 10.0304 21.991C11.2535 21.274 12.4515 20.1332 13.1794 18.777C11.8441 18.0604 10.3235 18.6419 9.17945 19.1992C7.94625 19.8 6.81339 21.089 6.29431 22.568Z" fill="#1F62FF"/>
<path d="M2.05254 26.5718C2.72989 27.6705 3.77802 29.0467 5.30629 29.0075C6.69602 29.0813 7.89667 28.0729 8.84218 27.2313C9.86048 26.3249 10.7796 24.9993 11.1677 23.5663C9.74625 23.1266 8.38538 23.9411 7.37055 24.7094C6.31081 25.5118 5.4958 26.9802 5.32071 28.488C5.30759 26.9774 4.92303 25.4173 4.30307 24.1605C3.73626 23.0115 2.94642 21.4584 1.53727 21.1479C0.982067 22.9358 1.15921 25.1232 2.05254 26.5718Z" fill="#1F62FF"/>
<path d="M5.75922 34.9252C4.34085 35.1779 2.9573 34.254 2.05876 33.1672C0.90193 31.7679 0.213623 29.8909 0.353996 28.0117C1.8111 28.051 2.91466 29.3902 3.73032 30.4028C4.60879 31.4935 5.32855 32.9283 5.67384 34.4085C5.52197 32.9334 5.98779 31.3405 6.85248 30.3562C7.68712 29.4061 8.85632 28.3706 10.311 28.5368C10.2797 30.0326 9.57445 31.4577 8.8471 32.525C8.1691 33.5197 7.12465 34.7499 5.75922 34.9252Z" fill="#1F62FF"/>
<path d="M3.13843 39.8954C4.44474 40.7996 6.02909 41.6946 7.69415 41.0172C9.06012 40.5034 9.92861 39.0415 10.4628 37.6997C11.0286 36.278 11.4065 34.6386 11.1449 33.0825C9.64385 33.2242 8.39916 34.366 7.73808 35.7598C7.04696 37.2169 6.91439 38.9513 7.44529 40.4791C6.66088 38.9074 5.5137 37.6357 4.29851 36.4607C3.19386 35.3926 1.60268 34.2674 0 34.479C0.304937 36.5856 1.51405 38.7711 3.13843 39.8954Z" fill="#1F62FF"/>
<path d="M11.0601 46.712C12.3456 45.895 12.863 44.1758 13.0744 42.7026C13.3023 41.1139 13.2925 39.3617 12.6719 37.8545C11.1805 38.2974 10.1568 39.7245 9.8188 41.2877C9.46168 42.9392 9.76304 44.6993 10.6317 46.1054C9.47698 44.6969 7.94145 43.5338 6.46992 42.7183C5.04851 41.9305 3.30469 40.9804 1.59766 41.5542C2.4208 43.6901 4.18164 45.6787 6.1332 46.5013C7.64454 47.1382 9.48316 47.768 11.0601 46.712Z" fill="#1F62FF"/>
<path d="M17.1531 47.2652C17.3417 48.7987 17.3364 50.7437 16.2166 51.924C14.8172 53.4469 12.6515 53.153 10.9811 52.818C8.73861 52.3678 6.21429 50.7417 4.86133 48.5765C6.51369 47.6092 8.53456 48.228 10.1704 48.7289L10.2638 48.7574C12.0899 49.3159 14.0358 50.2156 15.6632 51.4448C14.3645 50.1971 13.4182 48.3658 13.3719 46.52C13.3302 44.8691 14.0042 43.1028 15.4546 42.3159C16.4671 43.7289 16.9413 45.543 17.1531 47.2652Z" fill="#1F62FF"/>
<path d="M23.6527 56.2658C24.4774 54.5968 23.6603 52.6379 23.0092 51.1901C22.2395 49.4785 21.1878 47.7342 19.6826 46.4814C18.2373 47.8057 18.3748 49.7006 18.8045 51.3473C19.3154 53.3054 21.0868 54.9745 22.9211 55.9257C20.7967 55.0834 18.4766 54.5779 16.2693 54.4286L16.0457 54.4133C14.2724 54.2904 11.9638 54.1306 10.5508 55.5103C12.6873 57.4414 15.722 58.5555 18.3967 58.4976C20.1891 58.4589 22.6483 58.2334 23.6527 56.2658Z" fill="#1F62FF"/>
<path d="M35.7056 28.5V19.92H38.9816C39.4843 19.92 39.935 19.9633 40.3336 20.05C40.7323 20.1367 41.0746 20.271 41.3606 20.453C41.6466 20.635 41.8633 20.869 42.0106 21.155C42.1666 21.441 42.2446 21.7833 42.2446 22.182C42.2446 22.5113 42.1753 22.8017 42.0366 23.053C41.9066 23.3043 41.6986 23.5123 41.4126 23.677C41.1266 23.833 40.7496 23.9457 40.2816 24.015V24.184C41.0876 24.2447 41.6726 24.457 42.0366 24.821C42.4093 25.1763 42.5956 25.6487 42.5956 26.238C42.5956 26.732 42.4743 27.148 42.2316 27.486C41.9976 27.8153 41.638 28.0667 41.1526 28.24C40.6673 28.4133 40.0476 28.5 39.2936 28.5H35.7056ZM37.0576 27.317H39.3716C39.987 27.317 40.4463 27.2173 40.7496 27.018C41.053 26.81 41.2046 26.4937 41.2046 26.069C41.2046 25.5837 41.001 25.2197 40.5936 24.977C40.1863 24.7343 39.5753 24.613 38.7606 24.613H37.0576V27.317ZM37.0576 23.625H38.5136C39.3023 23.625 39.8873 23.521 40.2686 23.313C40.6586 23.0963 40.8536 22.7713 40.8536 22.338C40.8536 21.9133 40.6846 21.6013 40.3466 21.402C40.0086 21.194 39.5016 21.09 38.8256 21.09H37.0576V23.625ZM44.1558 28.5V19.92H45.5728V28.5H44.1558ZM44.9878 28.5V27.304H50.3698V28.5H44.9878ZM44.9878 24.691V23.586H49.7458V24.691H44.9878ZM44.9878 21.103V19.92H50.3568V21.103H44.9878ZM54.7987 28.669C54.2353 28.669 53.7327 28.6127 53.2907 28.5C52.8573 28.3787 52.489 28.2053 52.1857 27.98C51.891 27.746 51.6657 27.46 51.5097 27.122C51.3623 26.7753 51.293 26.3767 51.3017 25.926L52.5627 25.588C52.5453 26.0213 52.6277 26.381 52.8097 26.667C52.9917 26.953 53.2603 27.1697 53.6157 27.317C53.9797 27.4557 54.3957 27.525 54.8637 27.525C55.323 27.525 55.7087 27.4687 56.0207 27.356C56.3327 27.2433 56.5667 27.0917 56.7227 26.901C56.8873 26.7017 56.9697 26.4763 56.9697 26.225C56.9697 25.939 56.87 25.7137 56.6707 25.549C56.48 25.3757 56.2243 25.2413 55.9037 25.146C55.583 25.042 55.2233 24.9467 54.8247 24.86C54.4173 24.7733 54.0143 24.6737 53.6157 24.561C53.217 24.4483 52.853 24.301 52.5237 24.119C52.203 23.9283 51.943 23.6857 51.7437 23.391C51.553 23.0963 51.4577 22.7237 51.4577 22.273C51.4577 21.753 51.5877 21.3067 51.8477 20.934C52.1077 20.5613 52.476 20.271 52.9527 20.063C53.438 19.855 54.01 19.751 54.6687 19.751C55.3273 19.751 55.9037 19.855 56.3977 20.063C56.9003 20.2623 57.2947 20.557 57.5807 20.947C57.8753 21.3283 58.027 21.792 58.0357 22.338L56.7357 22.676C56.7357 22.3813 56.6837 22.1213 56.5797 21.896C56.4843 21.6707 56.3457 21.4843 56.1637 21.337C55.9817 21.1897 55.765 21.0813 55.5137 21.012C55.2623 20.934 54.9763 20.895 54.6557 20.895C54.283 20.895 53.958 20.9513 53.6807 21.064C53.4033 21.168 53.1867 21.3153 53.0307 21.506C52.8833 21.688 52.8097 21.9047 52.8097 22.156C52.8097 22.468 52.918 22.715 53.1347 22.897C53.36 23.0703 53.6547 23.2133 54.0187 23.326C54.3827 23.43 54.7727 23.5297 55.1887 23.625C55.5613 23.703 55.9297 23.7983 56.2937 23.911C56.6663 24.015 57.0043 24.158 57.3077 24.34C57.6197 24.522 57.8667 24.7603 58.0487 25.055C58.2393 25.3497 58.3347 25.7267 58.3347 26.186C58.3347 26.6887 58.2003 27.1263 57.9317 27.499C57.6717 27.8717 57.2817 28.162 56.7617 28.37C56.2417 28.5693 55.5873 28.669 54.7987 28.669ZM61.5048 28.5V19.92H62.9348V28.5H61.5048ZM58.9308 21.142V19.92H65.5218V21.142H58.9308ZM73.3976 28.669C72.7649 28.669 72.1973 28.5737 71.6946 28.383C71.1919 28.1923 70.7673 27.915 70.4206 27.551C70.0739 27.1783 69.8096 26.7233 69.6276 26.186C69.4456 25.64 69.3546 25.016 69.3546 24.314C69.3546 23.6033 69.4456 22.9663 69.6276 22.403C69.8183 21.8397 70.0869 21.363 70.4336 20.973C70.7803 20.5743 71.1963 20.271 71.6816 20.063C72.1669 19.855 72.7086 19.751 73.3066 19.751C73.7659 19.751 74.1906 19.816 74.5806 19.946C74.9706 20.0673 75.3086 20.245 75.5946 20.479C75.8806 20.713 76.1016 20.999 76.2576 21.337C76.4223 21.675 76.5089 22.0563 76.5176 22.481L75.1786 22.819C75.1873 22.403 75.1006 22.0607 74.9186 21.792C74.7453 21.5147 74.5113 21.3067 74.2166 21.168C73.9219 21.0293 73.6056 20.96 73.2676 20.96C72.9556 20.96 72.6523 21.0207 72.3576 21.142C72.0629 21.2633 71.7986 21.4583 71.5646 21.727C71.3393 21.987 71.1573 22.325 71.0186 22.741C70.8886 23.157 70.8236 23.6597 70.8236 24.249C70.8236 25.003 70.9319 25.6183 71.1486 26.095C71.3739 26.563 71.6816 26.9097 72.0716 27.135C72.4703 27.3517 72.9253 27.46 73.4366 27.46C73.9479 27.46 74.3553 27.3603 74.6586 27.161C74.9619 26.9617 75.1829 26.6973 75.3216 26.368C75.4689 26.03 75.5513 25.6487 75.5686 25.224L76.8296 25.445C76.8209 25.887 76.7516 26.3073 76.6216 26.706C76.4916 27.096 76.2879 27.4383 76.0106 27.733C75.7419 28.0277 75.3909 28.2573 74.9576 28.422C74.5243 28.5867 74.0043 28.669 73.3976 28.669ZM78.8826 28.5V27.304H81.4046C81.9592 27.304 82.4186 27.1783 82.7826 26.927C83.1466 26.6757 83.4152 26.3203 83.5886 25.861C83.7706 25.4017 83.8616 24.86 83.8616 24.236C83.8616 23.6987 83.8052 23.235 83.6926 22.845C83.5799 22.4463 83.4066 22.1213 83.1726 21.87C82.9472 21.6187 82.6569 21.4323 82.3016 21.311C81.9549 21.181 81.5476 21.116 81.0796 21.116H78.8826V19.92H81.0406C82.0286 19.92 82.8389 20.089 83.4716 20.427C84.1042 20.765 84.5722 21.2503 84.8756 21.883C85.1789 22.507 85.3306 23.261 85.3306 24.145C85.3306 24.7517 85.2612 25.2933 85.1226 25.77C84.9839 26.238 84.7932 26.6453 84.5506 26.992C84.3166 27.33 84.0349 27.6117 83.7056 27.837C83.3849 28.0623 83.0296 28.2313 82.6396 28.344C82.2582 28.448 81.8596 28.5 81.4436 28.5H78.8826ZM78.1676 28.5V19.92H79.5846V28.5H78.1676ZM86.9352 28.5V19.92H88.8072L93.1102 26.615H93.2272L93.1362 19.92H94.5142V28.5H92.8112L88.3392 21.597H88.2222L88.3132 28.5H86.9352ZM42.7247 48.5L45.7147 39.92H47.7817L50.7717 48.5H49.2377L46.8327 41.077H46.6637L44.2587 48.5H42.7247ZM44.2197 46.654V45.614H49.4587V46.654H44.2197ZM52.6848 48.5L50.6178 39.92H52.1518L53.7118 47.239H53.8418L55.5188 39.92H57.3908L59.0548 47.239H59.1848L60.7838 39.92H62.2528L60.1338 48.5H58.1318L56.5068 41.181H56.3898L54.7388 48.5H52.6848ZM62.0753 48.5L65.0653 39.92H67.1323L70.1223 48.5H68.5883L66.1833 41.077H66.0143L63.6093 48.5H62.0753ZM63.5703 46.654V45.614H68.8093V46.654H63.5703ZM71.317 48.5V39.92H74.463C74.9137 39.92 75.321 39.9547 75.685 40.024C76.049 40.0933 76.374 40.1973 76.66 40.336C76.946 40.4747 77.1887 40.648 77.388 40.856C77.5873 41.0553 77.7347 41.2893 77.83 41.558C77.934 41.818 77.986 42.1083 77.986 42.429C77.986 42.7323 77.9383 43.0097 77.843 43.261C77.7563 43.5037 77.6177 43.7203 77.427 43.911C77.245 44.1017 77.0153 44.2577 76.738 44.379C76.4693 44.4917 76.153 44.5697 75.789 44.613V44.782C76.1443 44.8253 76.4433 44.9163 76.686 45.055C76.9287 45.1937 77.1323 45.3887 77.297 45.64C77.4617 45.8913 77.6003 46.2207 77.713 46.628L78.246 48.5H76.699L76.283 46.784C76.1963 46.4373 76.0663 46.16 75.893 45.952C75.7197 45.7353 75.503 45.5793 75.243 45.484C74.983 45.3887 74.6753 45.341 74.32 45.341H72.734V48.5H71.317ZM72.734 44.223H74.359C75.0697 44.223 75.607 44.093 75.971 43.833C76.3437 43.573 76.53 43.1743 76.53 42.637C76.53 42.0997 76.3523 41.7053 75.997 41.454C75.6503 41.194 75.113 41.064 74.385 41.064H72.734V44.223ZM80.406 48.5V47.304H82.928C83.4827 47.304 83.942 47.1783 84.306 46.927C84.67 46.6757 84.9387 46.3203 85.112 45.861C85.294 45.4017 85.385 44.86 85.385 44.236C85.385 43.6987 85.3287 43.235 85.216 42.845C85.1033 42.4463 84.93 42.1213 84.696 41.87C84.4707 41.6187 84.1803 41.4323 83.825 41.311C83.4783 41.181 83.071 41.116 82.603 41.116H80.406V39.92H82.564C83.552 39.92 84.3623 40.089 84.995 40.427C85.6277 40.765 86.0957 41.2503 86.399 41.883C86.7023 42.507 86.854 43.261 86.854 44.145C86.854 44.7517 86.7847 45.2933 86.646 45.77C86.5073 46.238 86.3167 46.6453 86.074 46.992C85.84 47.33 85.5583 47.6117 85.229 47.837C84.9083 48.0623 84.553 48.2313 84.163 48.344C83.7817 48.448 83.383 48.5 82.967 48.5H80.406ZM79.691 48.5V39.92H81.108V48.5H79.691Z" fill="#1A1925"/>
<path d="M122.427 18.9745C122.847 17.101 121.99 15.3538 121.096 13.9377C120.113 12.3787 118.472 10.9969 116.64 10.5C116.973 12.2675 117.943 13.7921 118.877 15.2255C119.804 16.6496 120.974 18.0918 122.427 18.9745Z" fill="#1F62FF"/>
<path d="M123.706 22.568C123.378 21.0843 123.385 19.4601 123.697 18.0685C123.972 16.8454 124.371 15.1166 125.685 14.5332C126.64 16.162 127.024 18.38 126.467 20.042C126.065 21.2441 125.341 22.8335 123.84 23.0795C122.462 23.4171 121.07 22.636 119.97 21.991C118.747 21.274 117.548 20.1332 116.821 18.777C118.156 18.0604 119.677 18.6419 120.821 19.1992C122.054 19.8 123.187 21.089 123.706 22.568Z" fill="#1F62FF"/>
<path d="M127.947 26.5718C127.27 27.6705 126.222 29.0467 124.694 29.0075C123.304 29.0813 122.103 28.0729 121.158 27.2313C120.14 26.3249 119.22 24.9993 118.832 23.5663C120.254 23.1266 121.615 23.9411 122.629 24.7094C123.689 25.5118 124.504 26.9802 124.679 28.488C124.692 26.9774 125.077 25.4173 125.697 24.1605C126.264 23.0115 127.054 21.4584 128.463 21.1479C129.018 22.9358 128.841 25.1232 127.947 26.5718Z" fill="#1F62FF"/>
<path d="M124.241 34.9252C125.659 35.1779 127.043 34.254 127.941 33.1672C129.098 31.7679 129.786 29.8909 129.646 28.0117C128.189 28.051 127.085 29.3902 126.27 30.4028C125.391 31.4935 124.671 32.9283 124.326 34.4085C124.478 32.9334 124.012 31.3405 123.148 30.3562C122.313 29.4061 121.144 28.3706 119.689 28.5368C119.72 30.0326 120.426 31.4577 121.153 32.525C121.831 33.5197 122.875 34.7499 124.241 34.9252Z" fill="#1F62FF"/>
<path d="M126.862 39.8954C125.555 40.7996 123.971 41.6946 122.306 41.0172C120.94 40.5034 120.071 39.0415 119.537 37.6997C118.971 36.278 118.593 34.6386 118.855 33.0825C120.356 33.2242 121.601 34.366 122.262 35.7598C122.953 37.2169 123.086 38.9513 122.555 40.4791C123.339 38.9074 124.486 37.6357 125.701 36.4607C126.806 35.3926 128.397 34.2674 130 34.479C129.695 36.5856 128.486 38.7711 126.862 39.8954Z" fill="#1F62FF"/>
<path d="M118.94 46.712C117.654 45.895 117.137 44.1758 116.926 42.7026C116.698 41.1139 116.707 39.3617 117.328 37.8545C118.819 38.2974 119.843 39.7245 120.181 41.2877C120.538 42.9392 120.237 44.6993 119.368 46.1054C120.523 44.6969 122.059 43.5338 123.53 42.7183C124.951 41.9305 126.695 40.9804 128.402 41.5542C127.579 43.6901 125.818 45.6787 123.867 46.5013C122.355 47.1382 120.517 47.768 118.94 46.712Z" fill="#1F62FF"/>
<path d="M112.847 47.2652C112.658 48.7987 112.664 50.7437 113.783 51.924C115.183 53.4469 117.349 53.153 119.019 52.818C121.261 52.3678 123.786 50.7417 125.139 48.5765C123.486 47.6092 121.465 48.228 119.83 48.7289L119.736 48.7574C117.91 49.3159 115.964 50.2156 114.337 51.4448C115.636 50.1971 116.582 48.3658 116.628 46.52C116.67 44.8691 115.996 43.1028 114.545 42.3159C113.533 43.7289 113.059 45.543 112.847 47.2652Z" fill="#1F62FF"/>
<path d="M106.347 56.2658C105.523 54.5968 106.34 52.6379 106.991 51.1901C107.761 49.4785 108.812 47.7342 110.317 46.4814C111.763 47.8057 111.625 49.7006 111.196 51.3473C110.685 53.3054 108.913 54.9745 107.079 55.9257C109.203 55.0834 111.523 54.5779 113.731 54.4286L113.954 54.4133C115.728 54.2904 118.036 54.1306 119.449 55.5103C117.313 57.4414 114.278 58.5555 111.603 58.4976C109.811 58.4589 107.352 58.2334 106.347 56.2658Z" fill="#1F62FF"/>
</svg>
