<svg width="39" height="39" viewBox="0 0 39 39" fill="none" xmlns="http://www.w3.org/2000/svg">
<path d="M17.4167 24.7083C17.4167 27.5833 22.0812 29.9166 27.8333 29.9166C33.5854 29.9166 38.25 27.5833 38.25 24.7083M0.75 14.2916C0.75 17.1666 5.41458 19.5 11.1667 19.5C13.5125 19.5 15.6771 19.1125 17.4167 18.4583M0.75 21.5833C0.75 24.4583 5.41458 26.7916 11.1667 26.7916C13.5125 26.7916 15.675 26.4041 17.4167 25.75M27.8333 21.5833C22.0812 21.5833 17.4167 19.25 17.4167 16.375C17.4167 13.5 22.0812 11.1666 27.8333 11.1666C33.5854 11.1666 38.25 13.5 38.25 16.375C38.25 19.25 33.5854 21.5833 27.8333 21.5833Z" stroke="black" stroke-width="1.5" stroke-linecap="round" stroke-linejoin="round"/>
<path d="M0.75 5.95837V28.875C0.75 31.75 5.41458 34.0834 11.1667 34.0834C13.5125 34.0834 15.675 33.6959 17.4167 33.0417M17.4167 33.0417V16.375M17.4167 33.0417C17.4167 35.9167 22.0812 38.25 27.8333 38.25C33.5854 38.25 38.25 35.9167 38.25 33.0417V16.375M21.5833 12.2084V5.95837" stroke="black" stroke-width="1.5" stroke-linecap="round" stroke-linejoin="round"/>
<path d="M11.1667 11.1667C5.41458 11.1667 0.75 8.83333 0.75 5.95833C0.75 3.08333 5.41458 0.75 11.1667 0.75C16.9188 0.75 21.5833 3.08333 21.5833 5.95833C21.5833 8.83333 16.9188 11.1667 11.1667 11.1667Z" stroke="black" stroke-width="1.5" stroke-linecap="round" stroke-linejoin="round"/>
</svg>
