<svg width="149" height="111" viewBox="0 0 149 111" fill="none" xmlns="http://www.w3.org/2000/svg">
<path d="M0.400391 118.8V148.4H30.0004M0.400391 118.8V89.2M0.400391 118.8H30.0004M0.400391 89.2V59.6M0.400391 89.2H30.0004M0.400391 59.6V30M0.400391 59.6H30.0004M0.400391 30V0.400029H30.0004M0.400391 30H30.0004M30.0004 148.4V118.8M30.0004 148.4H59.6004M30.0004 118.8V89.2M30.0004 118.8H59.6004M30.0004 89.2V59.6M30.0004 89.2H59.6004M30.0004 59.6V30M30.0004 59.6H59.6004M30.0004 30V0.400029M30.0004 30H59.6004M30.0004 0.400029H59.6004M59.6004 148.4V118.8M59.6004 148.4H89.2003M59.6004 118.8V89.2M59.6004 118.8H89.2003M59.6004 89.2V59.6M59.6004 89.2H89.2003M59.6004 59.6V30M59.6004 59.6H89.2003M59.6004 30V0.400029M59.6004 30H89.2003M59.6004 0.400029H89.2003M89.2003 148.4V118.8M89.2003 148.4H118.8M89.2003 118.8V89.2M89.2003 118.8H118.8M89.2003 89.2V59.6M89.2003 89.2H118.8M89.2003 59.6V30M89.2003 59.6H118.8M89.2003 30V0.400029M89.2003 30H118.8M89.2003 0.400029H118.8M118.8 148.4V118.8M118.8 148.4H148.4V118.8M118.8 118.8V89.2M118.8 118.8H148.4M118.8 89.2V59.6M118.8 89.2H148.4M118.8 59.6V30M118.8 59.6H148.4M118.8 30V0.400029M118.8 30H148.4M118.8 0.400029H133.115M148.4 118.8V89.2M148.4 89.2V59.6M148.4 59.6V30M148.4 30V15.6853" stroke="url(#paint0_radial_17856_5191)" stroke-width="0.8"/>
<defs>
<radialGradient id="paint0_radial_17856_5191" cx="0" cy="0" r="1" gradientUnits="userSpaceOnUse" gradientTransform="translate(148.401 0.400142) rotate(135) scale(171.345 157.831)">
<stop stop-color="#1A1925" stop-opacity="0.12"/>
<stop offset="0.770202" stop-color="#1A1925" stop-opacity="0"/>
</radialGradient>
</defs>
</svg>
