<svg width="27" height="27" viewBox="0 0 27 27" fill="none" xmlns="http://www.w3.org/2000/svg">
<path d="M21.333 4.00543e-05C24.2785 4.00543e-05 26.72 2.41112 26.1348 5.29792C25.795 6.97392 25.294 8.61739 24.6365 10.2049C23.2963 13.4403 21.3321 16.38 18.8559 18.8562C16.3796 21.3325 13.4399 23.2967 10.2046 24.6368C8.61702 25.2944 6.97356 25.7954 5.29755 26.1351C2.41075 26.7203 -0.000328064 24.2789 -0.000326157 21.3334V14.8555C-0.000326157 12.5421 1.94434 10.7401 4.08163 9.85476C5.37577 9.31871 6.55165 8.533 7.54214 7.54251C8.53264 6.55202 9.31834 5.37614 9.85439 4.082C10.7397 1.9447 12.5417 4.00543e-05 14.8551 4.00543e-05H21.333Z" fill="#EEEEF0"/>
</svg>
