<svg width="28" height="30" viewBox="0 0 28 30" fill="none" xmlns="http://www.w3.org/2000/svg">
<path d="M5.33887 9.75C5.33887 12.0706 6.25306 14.2962 7.88033 15.9372C9.5076 17.5781 11.7146 18.5 14.016 18.5C16.3173 18.5 18.5243 17.5781 20.1516 15.9372C21.7788 14.2962 22.693 12.0706 22.693 9.75C22.693 7.42936 21.7788 5.20376 20.1516 3.56282C18.5243 1.92187 16.3173 1 14.016 1C11.7146 1 9.5076 1.92187 7.88033 3.56282C6.25306 5.20376 5.33887 7.42936 5.33887 9.75Z" stroke="#1A1925" stroke-width="2" stroke-linecap="round" stroke-linejoin="round"/>
<path d="M14.0156 18.5C15.9434 18.0144 16.908 17.7708 16.908 9.75C16.908 4.40278 15.9439 1.48611 14.0156 1C12.0874 1.48611 11.1233 4.40278 11.1233 9.75C11.1233 17.7708 12.0879 18.0144 14.0156 18.5ZM14.0156 18.5V22.875M5.33854 9.75H22.6927M1 25.7917H11.1233M11.1233 25.7917C11.1233 26.5652 11.428 27.3071 11.9704 27.8541C12.5128 28.401 13.2485 28.7083 14.0156 28.7083C14.7827 28.7083 15.5184 28.401 16.0608 27.8541C16.6033 27.3071 16.908 26.5652 16.908 25.7917M11.1233 25.7917C11.1233 25.0181 11.428 24.2763 11.9704 23.7293C12.5128 23.1823 13.2485 22.875 14.0156 22.875M16.908 25.7917H27.0313M16.908 25.7917C16.908 25.0181 16.6033 24.2763 16.0608 23.7293C15.5184 23.1823 14.7827 22.875 14.0156 22.875" stroke="#1A1925" stroke-width="2" stroke-linecap="round" stroke-linejoin="round"/>
</svg>
